<svg xmlns="http://www.w3.org/2000/svg" id="_레이어_1" version="1.1" viewBox="0 0 1796.3365975 352.1719169"><defs><style>.st0{fill:#ed7848}.st1{fill:#fff}.st2{fill:#0068b6}</style></defs><path d="M400.841 158.162c0 86.26-89.722 156.188-200.42 156.188C89.721 314.35 0 244.423 0 158.162S89.722 1.974 200.42 1.974c110.699 0 200.421 69.927 200.421 156.188" class="st2"/><path d="M43.002 190.522h210.345v16.258H43.002z" class="st1"/><path d="M140.187 114.006h15.078v167.778h-15.078zM254.603 101.185c-1.795 6.308-13.052 11.564-13.052 11.564 5.41-6.308 5.41-8.41 2.718-11.564-2.718-3.154-25.668-3.872-25.668-3.872 13.232-2.488 22.206-5.41 22.206-5.41l-11.513-16.54c2.692 1.051 14.668 6 14.668 6 1.59-3.359 9.256-13.898 9.256-13.898l.436 10.36s6.103.897 8.82 0c2.694-.872 17.823-3.872 17.823-3.872-11.514 4.41-13.54 11.795-13.54 11.795 8.565 2.462 23.925 11.95 23.925 11.95-7.898-3.155-25.283-3.18-25.283-3.18 1.795 2.436 2.717 18.924 2.717 18.924-.922-8.77-13.513-12.257-13.513-12.257m41.412-1.41s-3.615-7.027-26.104-15.437c0 0 7.642-8.411 18.899-12.975 0 0-3.154-3.154-31.95 4.564l-.898-22.104s-10.795 12.283-13.949 25.258c0 0-17.565-11.924-24.309-13.667 0 0 18.462 27.693 16.206 25.232l-77.415 16.847 82.364-5.616-40.49 57.157s48.131-51.541 59.388-53.31l29.694 57.515-18.001-65.234z" class="st1"/><path d="M413.457 2.59s42.412 59.926 47.875 143.802c8.103 124.16-93.21 183.702-93.21 183.702s131.852-72.234 115.954-186.138c0 0-9.154-83.21-70.619-141.366" class="st2"/><path d="M450.382 0s43.848 58.413 52.85 142.059C515 251.398 417.354 330.248 417.354 330.248s115.057-78.85 104.082-189.6c0 0-7.616-84.67-71.055-140.648" class="st2"/><path d="M513.924 243.782s-5.308 27.104-27.771 58.285c-29.386 40.746-49.233 50.105-49.233 50.105s33.72-12.437 54.643-44.515c0 0 20.592-34.848 22.36-63.875" class="st0"/><path d="M514.59 14.77s25.207 37.31 32.49 120.878c9.256 105.877-40.798 165.085-40.798 165.085s63.773-64.131 61.901-149.11c0 0-3.692-94.364-53.592-136.853" class="st2"/><path d="M375.096 274.322s55.388-59.798 66.414-110.467c3.923-18.104 3.41-35.361-8.59-48.003 0 0-20.642-25.18-91.159 16.924 0 0-55.746 32.335-76.67 96.185-16.18 49.335 10 96.774 39.514 107.056 9.95 3.462 33.207 7.206 63.516-5.923 0 0-44.95 16.308-71.773-14.437-28.41-32.591-22.026-73.03-9.077-103.287 12.95-30.232 32.95-57.875 57.849-73.67 21.514-13.642 47.9-25.694 68.26-22.156 24.36 4.206 21.796 28.13 21.796 36.772s0 43.95-60.08 121.006" class="st0"/><path d="M1262.849 102.593c0-23.574-24.16-42.705-53.985-42.705-29.826 0-54.005 19.131-54.005 42.705s24.18 42.684 54.005 42.684 53.985-19.111 53.985-42.684m-80.34 0c0-15.748 11.832-28.508 26.415-28.508 14.584 0 26.414 12.76 26.414 28.508s-11.83 28.507-26.414 28.507c-14.583 0-26.414-12.76-26.414-28.507M1273.443 60.607h28.209v97.922h-28.21zM1205.453 158.435h-28.071v40.057c0 7.221.46 13.081 23.481 13.081h97.038v-15.18h-92.448zM1440.33 93.935h-22.325v14.272h22.324v50.322h27.811V60.607h-27.81zM1375.472 158.435h-28.01v40.057c0 7.221.458 13.081 23.48 13.081h97.038v-15.18h-92.508z" class="st2"/><path d="m1351.332 145.05 25.197-51.324 24.719 51.325h28.03l-34.594-65.389h34.254V65.541h-40.518V52.78h-27.192v12.76h-38.684v14.121h34.214l-31.322 65.389zM775.33 93.935h-22.324v14.272h22.325v50.322h27.81V60.607h-27.81zM710.472 158.435h-28.01v40.057c0 7.221.479 13.081 23.502 13.081h97.017v-15.18h-92.509z" class="st2"/><path d="m686.333 145.05 25.197-51.324 24.719 51.325h28.03l-34.594-65.389h34.254V65.541h-40.518V52.78h-27.173v12.76h-38.703v14.121h34.215l-31.322 65.389zM1579.171 113.935h-28.21v81.702h-10.713v-81.702h-28.19v81.702h-23.42v15.936h140.887v-15.936h-50.354z" class="st2"/><path d="M1593.595 79.057v100.626h28.25V64.766h-125.108l.04 14.291zM1082.932 113.935h-28.208v81.702h-10.715v-81.702h-28.19v81.702H992.4v15.936h140.887v-15.936h-50.354z" class="st2"/><path d="M1097.357 79.057v100.626h28.25V64.766h-125.09l.022 14.291zM1649.304 139.606v14.254h59.172v57.713h28.01V153.86h59.85v-14.254zM1757.832 76.392v47.864h27.812V64.274h-125.747l.38 12.118zM868.08 123.5l31.422-35.501 32.718 35.5 29.427-.226-41.376-46.957h35.85V64.33H841.288v11.985h37.426L836.5 123.5zM824.51 153.67h59.372v57.903h28.09v-57.902h60.05V139.38H824.51zM1415.602 297.522l-31.916-55.015h-10.116v67.92h8.176v-54.972l32.39 54.972h9.607v-67.92h-8.141zM1562.11 270.581h-32.875v-28.074h-8.637v67.92h8.637v-31.766h32.874v31.766h8.65v-67.92h-8.65zM1787.471 242.507v55.015l-31.928-55.015h-10.115v67.92h8.186v-54.972l32.39 54.972h9.585v-67.92zM1343.107 242.51h8.649v67.91h-8.65zM934.135 279.315h34.895v-7.863h-34.895v-20.625h37.724v-8.32h-46.073v67.92h46.72v-8.08h-38.371zM1600.663 279.315h34.884v-7.863h-34.884v-20.625h37.724v-8.32h-46.073v67.92h46.72v-8.08h-38.371zM1247.382 310.427h8.406v-8.08h-.057v-23.032h34.884v-7.863h-34.884v-20.625h37.713v-8.32h-46.062zM1689.21 240.666c-18.292 0-33.13 16.03-33.13 35.805 0 19.765 14.838 35.806 33.13 35.806 18.29 0 33.14-16.04 33.14-35.806 0-19.776-14.85-35.805-33.14-35.805m0 63.65c-14.24 0-25.764-12.468-25.764-27.845s11.525-27.845 25.763-27.845 25.773 12.469 25.773 27.845c0 15.377-11.535 27.846-25.773 27.846M1494.648 256.981l5.162-5.565c-12.806-13.852-33.58-13.852-46.397 0-12.794 13.83-12.794 36.274 0 50.115 12.817 13.84 33.591 13.84 46.397 0l-5.162-5.565c-9.954 10.77-26.096 10.77-36.074 0-9.953-10.77-9.953-28.226 0-38.985 9.978-10.77 26.12-10.77 36.074 0M897.612 256.981l5.16-5.565c-12.816-13.852-33.578-13.852-46.395 0-12.806 13.83-12.806 36.274 0 50.115 12.817 13.84 33.579 13.84 46.396 0l-5.161-5.565c-9.966 10.77-26.12 10.77-36.073 0-9.967-10.77-9.967-28.226 0-38.985 9.953-10.77 26.107-10.77 36.073 0M791.194 240.666c-18.302 0-33.128 16.03-33.128 35.805 0 19.765 14.826 35.806 33.128 35.806 18.291 0 33.13-16.04 33.13-35.806 0-19.776-14.839-35.805-33.13-35.805m0 63.65c-14.237 0-25.773-12.468-25.773-27.845s11.536-27.845 25.773-27.845c14.226 0 25.762 12.469 25.762 27.845 0 15.377-11.536 27.846-25.762 27.846M1196.075 240.666c-18.29 0-33.13 16.03-33.13 35.805 0 19.765 14.84 35.806 33.13 35.806 18.303 0 33.14-16.04 33.14-35.806 0-19.776-14.837-35.805-33.14-35.805m0 63.65c-14.226 0-25.761-12.468-25.761-27.845s11.535-27.845 25.76-27.845c14.238 0 25.775 12.469 25.775 27.845 0 15.377-11.537 27.846-25.774 27.846M1023.268 272.633h-11.212c-5.912 0-10.704-5.227-10.704-11.609 0-6.392 4.792-11.554 10.704-11.554v-.25h23.453v-7.438h-23.453c-9.838 0-17.805 8.614-17.805 19.242s7.967 19.286 17.805 19.286h11.212c5.913 0 10.705 5.216 10.705 11.609 0 6.38-4.792 11.553-10.705 11.553v.11h-26.131v7.426h26.131v.142c9.839 0 17.806-8.603 17.806-19.231s-7.967-19.286-17.806-19.286M697.509 249.222c-2.772-2.788-5.878-4.846-9.32-6.142-4.19-1.568-9.468-2.352-15.819-2.352h-14.884v71.48h13.88c11.35 0 20.253-3.18 26.697-9.55 6.443-6.381 9.676-15.3 9.676-26.745 0-5.184-.866-10.074-2.574-14.68-1.733-4.606-4.273-8.603-7.656-12.011m-6.086 49.668c-4.746 4.792-10.508 5.554-17.286 5.554h-8.026V247.99h3.453c5.554 0 9.954.01 13.14.97 3.188.958 6.04 2.046 8.615 4.573 3.395 3.212 5.774 7.188 7.125 11.903.877 3.016 1.328 6.468 1.328 10.367 0 9.855-2.783 17.543-8.349 23.086M727.553 242.51h8.66v67.91h-8.66zM1073.66 279.315h34.896v-7.863h-34.895v-20.625h37.736v-8.32h-46.063v67.92h46.709v-8.08h-38.382z" class="st2"/></svg>