<svg width="74" height="84" viewBox="0 0 74 84" fill="none" xmlns="http://www.w3.org/2000/svg">
<g clip-path="url(#clip0_276_4569)">
<path opacity="0.5" d="M31.3706 24.758C31.5285 24.5799 31.7429 24.4272 31.836 24.2208C32.2098 23.3894 32.6513 22.6019 33.1731 21.8526C33.3085 21.6589 33.3255 21.3803 33.4157 21.0764C34.2451 20.368 35.1083 19.5423 36.0575 18.8439C37.0759 18.0945 38.0844 17.2731 39.351 17.0172C39.7402 16.938 40.1267 16.8419 40.5146 16.7514C40.5682 16.7386 40.626 16.7316 40.6726 16.7047C41.7431 16.0656 42.9378 16.1717 44.0647 15.8861C44.6049 15.7489 45.0774 15.8833 45.5838 15.9101C46.3215 15.9483 46.9491 16.2777 47.6473 16.4021C48.0253 16.47 48.4132 16.7372 48.6713 17.0327C48.9746 17.3805 49.3145 17.6718 49.6544 17.9715C49.732 18.0408 49.8166 18.1355 49.9097 18.1468C50.2863 18.1893 50.5176 18.4155 50.677 18.7336C51.2919 18.6855 51.6601 19.1182 52.0705 19.4264C52.7095 19.9043 53.2652 20.4783 53.5741 21.2587C53.5811 21.2757 53.5938 21.2884 53.6051 21.3026C54.2469 22.0675 54.4754 23.0572 54.8675 23.9592C55.0875 24.4639 55.3033 24.9588 55.3499 25.5258C55.3555 25.5964 55.3809 25.677 55.4246 25.7265C55.883 26.2355 55.7927 26.8152 55.5262 27.4458C56.0057 28.0509 56.0678 28.7833 55.9225 29.5722C55.8971 29.7122 55.9408 29.8621 55.9521 30.0077C55.9592 30.0982 55.9944 30.1985 55.9676 30.2777C55.6319 31.249 55.2864 32.2161 54.8167 33.1394C54.639 33.4886 54.4866 33.852 54.3371 34.2139C54.0522 34.9081 53.5304 35.4326 53.0903 36.0152C52.615 36.6443 52.1791 37.3173 51.6347 37.8772C51.2877 38.2349 51.0606 38.6534 50.7687 39.0337C50.457 39.4423 50.062 39.7039 49.6459 39.9499C49.5218 40.0234 49.3652 40.1054 49.2369 40.0927C48.8589 40.0531 48.574 40.2497 48.2792 40.4561C47.6247 40.9142 46.8955 41.1771 46.1409 41.3058C44.7756 41.5363 43.4103 41.6225 42.0506 41.4726C41.911 41.4571 41.76 41.4783 41.6176 41.5037C41.2734 41.5674 40.9645 41.5419 40.8376 41.3567C40.1295 41.2181 39.5414 41.1121 38.9588 40.9863C38.7007 40.9311 38.4285 40.8788 38.2028 40.7544C37.3326 40.2779 36.3523 39.9881 35.6175 39.2755C35.506 39.1681 35.3551 39.1016 35.2183 39.0252C34.4778 38.6082 33.8925 38.0454 33.4975 37.2608C33.2902 36.8479 33.0335 36.4435 32.7175 36.1198C32.1787 35.5655 31.9912 34.8063 31.6146 34.1588C31.544 34.0372 31.623 33.8166 31.6371 33.596C31.4115 33.35 31.4058 33.0602 31.5976 32.6813C31.8388 32.2062 31.6907 31.9687 31.0659 31.6251C31.0744 31.4894 31.087 31.3438 31.0899 31.1996C31.0927 31.0525 31.1378 30.8659 31.0715 30.7655C30.7725 30.3145 30.7274 29.7942 30.6992 29.2626C30.6893 29.066 30.647 28.8695 30.6569 28.673C30.6865 28.099 30.616 27.5688 30.1787 27.204C30.3578 26.7869 30.6047 27.1291 30.8289 27.0471C30.8684 26.9679 30.915 26.8732 30.9799 26.7417C30.7993 26.6865 30.654 26.6427 30.458 26.5833C31.0856 26.1068 31.4058 25.5045 31.3832 24.7481L31.3691 24.7623L31.3706 24.758ZM45.6811 35.4242C45.6303 35.5288 45.5796 35.6334 45.5076 35.779C45.7996 35.7564 45.8744 35.6645 45.6811 35.4242ZM42.9716 21.3577L42.9773 21.3266L42.942 21.3379L42.9716 21.3577Z" fill="white"/>
<path d="M6.51396 66.4894H4.71844C4.61406 65.8093 4.10771 65.3979 3.27694 65.3979C2.44618 65.3979 2.01599 65.7231 2.01599 66.1925C2.01599 66.7764 2.61826 66.9772 4.13591 67.2939C5.93144 67.6671 6.54217 68.5579 6.54217 69.7257C6.54217 71.2187 5.13875 72.1293 3.39965 72.1293C1.48001 72.1293 0.076599 71.0858 -0.000976562 69.4203H1.78467C1.88058 70.1668 2.5294 70.6645 3.52236 70.6645C4.229 70.6645 4.7537 70.3096 4.7537 69.8035C4.7537 69.1814 4.229 68.9325 2.84393 68.6738C1.15419 68.3585 0.235981 67.6587 0.235981 66.1939C0.235981 64.7291 1.63093 63.9445 3.38696 63.9445C5.14299 63.9445 6.42369 65.0077 6.50973 66.4908L6.51396 66.4894Z" fill="white"/>
<path d="M7.56445 64.1339H13.3516V65.6467H9.30214V67.2359H13.0173V68.7487H9.30214V70.4242H13.4376V71.937H7.56445V64.1353V64.1339Z" fill="white"/>
<path d="M14.1445 68.0305C14.1445 65.6666 15.9302 63.9332 18.3463 63.9332C20.7624 63.9332 22.5481 65.6666 22.5481 68.0305C22.5481 70.3945 20.7624 72.1279 18.3463 72.1279C15.9302 72.1279 14.1445 70.3945 14.1445 68.0305ZM20.8104 68.0305C20.8104 66.5559 19.7596 65.5025 18.3463 65.5025C16.933 65.5025 15.8822 66.5559 15.8822 68.0305C15.8822 69.5052 16.933 70.5585 18.3463 70.5585C19.7596 70.5585 20.8104 69.4953 20.8104 68.0305Z" fill="white"/>
<path d="M23.4843 64.1339H25.222V68.4801C25.222 69.7243 25.9103 70.5571 27.0457 70.5571C28.1811 70.5571 28.8694 69.7243 28.8694 68.4801V64.1339H30.6071V68.4801C30.6071 70.6914 29.184 72.1279 27.0443 72.1279C24.9046 72.1279 23.4814 70.6914 23.4814 68.4801V64.1339H23.4843Z" fill="white"/>
<path d="M33.6273 64.1339V70.3945H37.5146V71.9356H31.8896V64.1339H33.6273Z" fill="white"/>
<path d="M12.3578 78.0916C12.3578 78.9271 11.9558 79.6454 10.5538 81.1002L9.40709 82.2893H12.5157V83.8035H6.79914V82.7813L9.41696 80.078C10.3775 79.0855 10.6032 78.5638 10.6032 78.1113C10.6032 77.5218 10.2802 77.1287 9.50441 77.1287C8.77802 77.1287 8.38591 77.7183 8.38591 78.3277H6.62988C6.62988 76.7555 7.81608 75.5749 9.503 75.5749C11.2971 75.5749 12.3564 76.6367 12.3564 78.0916H12.3578Z" fill="white"/>
<path d="M19.3989 79.7924C19.3989 82.5947 18.0843 84.0001 16.3396 84.0001C14.5948 84.0001 13.2803 82.5947 13.2803 79.7924C13.2803 76.9902 14.5948 75.5749 16.3396 75.5749C18.0843 75.5749 19.3989 76.9803 19.3989 79.7924ZM14.9658 79.7924C14.9658 81.6106 15.5539 82.4363 16.3382 82.4363C17.1224 82.4363 17.7105 81.6106 17.7105 79.7924C17.7105 77.9742 17.1224 77.1386 16.3382 77.1386C15.5539 77.1386 14.9658 77.9643 14.9658 79.7924Z" fill="white"/>
<path d="M25.8021 78.0916C25.8021 78.9271 25.4001 79.6454 23.9981 81.1002L22.8514 82.2893H25.9601V83.8035H20.2435V82.7813L22.8613 80.078C23.8218 79.0855 24.0475 78.5638 24.0475 78.1113C24.0475 77.5218 23.7245 77.1287 22.9487 77.1287C22.2224 77.1287 21.8302 77.7183 21.8302 78.3277H20.0742C20.0742 76.7555 21.2604 75.5749 22.9473 75.5749C24.7414 75.5749 25.8007 76.6367 25.8007 78.0916H25.8021Z" fill="white"/>
<path d="M32.1759 76.853L29.2041 83.8035H27.3409L30.0969 77.345H26.6836V75.7912H32.1759V76.853Z" fill="white"/>
<path d="M15.2569 60.6544H12.5389L11.639 56.5528H11.6009L10.7208 60.6544H8.01271L5.75879 52.9744H8.36392L9.43446 57.5128H9.45279L10.4853 52.9744H12.8435L13.8478 57.5793H13.8859L14.9564 52.9744H17.5799L15.2597 60.6544H15.2569Z" fill="white"/>
<path d="M18.0641 57.8253L14.9385 52.9744H17.9597L19.428 55.7469H19.4463L20.971 52.9744H23.9824L20.8004 57.8253V60.6544H18.0627V57.8253H18.0641Z" fill="white"/>
<path d="M23.4018 52.9744H27.6826C30.5613 52.9744 31.5839 54.8633 31.5839 56.8003C31.5839 59.1642 30.172 60.6544 27.1607 60.6544H23.4004V52.9744H23.4018ZM26.0732 58.7174H27.0112C28.6586 58.7174 28.9153 57.4832 28.9153 56.7706C28.9153 56.287 28.7644 54.9099 26.8222 54.9099H26.0746V58.7174H26.0732Z" fill="white"/>
<path d="M73.4997 47.6271C73.2642 47.2171 72.7212 46.7958 72.6873 47.268C72.6873 47.2708 72.4969 48.409 72.4969 48.4118C72.2966 49.3605 72.1118 49.8638 71.7409 50.6047C70.7634 52.5544 69.5321 53.7774 68.3939 53.9923C66.3995 54.4999 65.8198 52.3494 65.6858 50.4223C65.6152 47.6116 65.8395 45.1571 65.8691 42.3944C65.8776 41.655 65.5701 41.047 65.5701 41.047C65.0496 40.063 64.2485 39.496 63.233 39.4084C63.0722 39.3942 62.8973 39.39 62.7153 39.3914C58.6588 39.6784 56.4472 42.4397 56.4472 42.4397L56.8323 41.1488C57.9889 36.3742 57.3203 33.9452 57.2723 33.6568C57.2187 33.4532 56.876 32.554 56.7632 32.366C56.261 31.2617 55.0269 31.8329 55.0269 31.8329C52.244 33.6031 51.8054 37.7485 51.8054 37.7485C51.8054 37.7485 51.7504 38.3904 51.7476 38.6703C51.7476 38.6703 51.7518 39.53 51.7588 39.6586C51.5698 39.0224 51.3287 38.6873 51.1044 38.8188C51.0127 38.8754 50.9309 39.0083 50.8646 39.1991C50.7983 39.3914 50.725 39.7138 50.7038 40.0192C50.6643 40.5706 50.6954 41.2945 50.7109 41.6578C50.7306 42.0184 50.8293 43.2922 50.8293 43.2922C50.8293 43.2922 51.0494 52.8131 56.7815 49.9939C57.3274 49.7253 57.814 49.3492 58.2315 48.9067C58.6856 48.4245 59.3754 47.695 60.0256 47.0121C59.9268 48.0272 59.8648 49.123 59.8634 50.2965C59.8606 52.0285 59.79 53.6516 60.1807 55.0103C61.209 58.593 64.0666 59.0129 64.3585 59.0949C65.3628 59.3239 66.3445 59.307 67.2556 59.1797C68.824 58.962 70.0765 58.1717 71.0032 57.2088C71.9031 56.2743 72.5815 55.1375 73.0639 54.1492C73.8114 52.6138 74.1528 50.9016 73.944 49.2064C73.8467 48.4132 73.6732 47.9269 73.504 47.6299L73.4997 47.6271Z" fill="white"/>
<path d="M24.6254 17.3042C24.6254 17.3042 21.4039 14.5189 19.133 17.471C19.133 17.471 20.0244 14.7564 17.6647 16.8617C17.6647 16.8617 15.8622 18.6771 13.9919 21.7013C12.7464 20.45 10.6618 18.2868 9.87615 17.0582C9.87615 17.0582 8.02421 14.4426 7.43322 16.8306C7.43322 16.8306 6.81544 17.8782 7.43322 19.0531C7.43322 19.0531 5.68284 20.8403 7.43322 22.667C7.43322 22.667 6.32178 23.3173 7.43322 23.7797C8.29925 24.1402 9.88461 25.3759 12.0469 25.3632C10.7492 28.2757 9.77318 31.7694 9.89448 35.5741C9.89448 35.5741 9.97488 37.7486 10.1836 40.3529C10.1836 40.3529 10.3628 42.3337 10.9227 36.5751C10.9227 36.5751 11.2387 42.9289 11.5687 45.2533C11.5687 45.2533 12.5236 47.0828 13.2105 43.2329C13.2105 43.2329 15.1992 25.1059 24.0711 20.6084C24.0711 20.6084 27.7227 18.6686 24.6211 17.3042H24.6254Z" fill="white"/>
<path d="M36.3354 24.2165C36.3354 24.2165 31.0842 27.4316 24.4988 25.407C17.9133 23.3823 20.9049 32.3306 25.2125 32.8863C25.2125 32.8863 22.3464 35.4963 31.0631 33.7558C39.7797 32.0153 48.8095 26.326 46.392 14.3817C46.392 14.3817 42.8602 2.62129 42.0083 2.78388C41.3877 2.90265 42.4215 4.75763 41.8531 4.26985C40.8616 3.42153 38.9603 0.264393 39.5118 3.18118C40.3778 7.77197 45.4343 20.2111 36.3354 24.2151V24.2165Z" fill="white"/>
<path d="M56.7174 21.7564C58.7752 21.3803 60.4255 21.2757 58.5044 22.4407C58.5044 22.4407 69.7966 21.8426 64.9178 25.0606C64.9178 25.0606 68.98 24.5134 67.1703 27.1502C67.1703 27.1502 66.4947 28.1399 62.7965 27.9321C62.0912 27.8925 48.9485 28.5061 46.9725 38.0115C44.4548 50.1127 45.3829 58.3724 46.5804 76.0555C46.5804 76.0555 45.3321 79.3159 44.1769 68.3825C44.1769 68.3825 44.3617 72.272 43.9287 72.5096C42.7228 73.1698 41.9541 67.021 41.3729 65.1193C41.3729 65.1193 40.4082 60.1016 40.1614 56.8992C39.0414 42.3831 38.5816 31.6845 47.39 25.7406C50.2278 23.8263 53.3534 22.3728 56.7188 21.7564H56.7174Z" fill="white"/>
<path d="M57.4683 1.05468C57.4683 1.05468 60.2652 1.36432 58.481 0.561246C56.6968 -0.241824 56.1636 0.00984262 54.5472 0.154056C52.9068 0.301097 51.6318 3.12315 51.7756 6.57155L51.2016 12.9791C51.2016 12.9791 49.3003 19.5847 56.433 18.6388C63.1567 17.7467 64.955 14.9656 65.515 11.9371C66.0763 8.90865 63.0311 6.06256 63.0311 6.06256C63.0311 6.06256 61.1581 4.38007 62.9874 6.81614C62.9874 6.81614 62.5995 6.679 62.3922 6.50227C60.5769 4.96965 58.5007 3.13305 61.7815 9.03307C61.7815 9.03307 63.6193 12.2213 57.5825 13.3538C57.5825 13.3538 56.6291 13.2096 56.8336 11.9357C56.9394 11.2811 56.9351 9.61841 57.1777 8.34594C57.3597 7.39158 57.371 6.9137 57.9436 6.62951C58.3569 6.42451 58.4105 6.33967 58.8816 6.03428C58.9366 5.99752 59.2215 5.63557 59.3428 5.3726C59.639 4.73212 59.8604 4.44652 60.017 4.31927C60.2836 4.10013 60.9281 3.57559 60.9338 3.23061C60.9408 2.79372 60.536 2.23667 60.0001 1.95248C59.6728 1.77858 59.2723 1.43218 57.4711 1.05327L57.4683 1.05468Z" fill="white"/>
</g>
<defs>
<clipPath id="clip0_276_4569">
<rect width="74" height="84" fill="white"/>
</clipPath>
</defs>
</svg>
