<svg width="74" height="84" viewBox="0 0 74 84" fill="none" xmlns="http://www.w3.org/2000/svg">
<g clip-path="url(#clip0_276_3976)">
<path d="M31.2566 24.9003C31.415 24.7231 31.6301 24.5685 31.722 24.3628C32.0955 23.5318 32.5369 22.7447 33.059 21.9945C33.1948 21.8002 33.2104 21.5222 33.3009 21.2187C34.13 20.5097 34.9944 19.6843 35.9423 18.9865C36.961 18.2363 37.9683 17.4166 39.2359 17.1599C39.625 17.0819 40.0112 16.9841 40.3989 16.8947C40.4526 16.882 40.5106 16.8749 40.5559 16.8479C41.6255 16.2098 42.821 16.3161 43.9486 16.0296C44.489 15.8921 44.9601 16.0268 45.468 16.0538C46.2051 16.092 46.8333 16.4211 47.5308 16.5459C47.9085 16.6139 48.2976 16.882 48.5551 17.1769C48.8578 17.5244 49.1988 17.8165 49.5383 18.1158C49.6162 18.1839 49.6996 18.2803 49.793 18.2902C50.1707 18.3328 50.3999 18.5583 50.5612 18.8773C51.1767 18.8291 51.5445 19.2617 51.9548 19.5694C52.5929 20.0473 53.1489 20.6217 53.4587 21.4017C53.4658 21.4187 53.4785 21.4315 53.4898 21.4442C54.1321 22.2086 54.3599 23.1999 54.7518 24.1019C54.9711 24.6068 55.1876 25.1017 55.2342 25.6676C55.2399 25.7385 55.2654 25.8179 55.3092 25.8675C55.7676 26.3767 55.6771 26.9567 55.4111 27.5864C55.8907 28.1919 55.9529 28.9237 55.8072 29.7122C55.7818 29.8526 55.8256 30.0015 55.8369 30.1476C55.844 30.2384 55.8794 30.3376 55.8525 30.4185C55.5158 31.3899 55.1706 32.3571 54.7009 33.2789C54.5226 33.6278 54.3698 33.9908 54.2213 34.3539C53.9369 35.0474 53.4148 35.5721 52.9748 36.155C52.4995 36.7847 52.0637 37.4569 51.519 38.017C51.1724 38.3744 50.9446 38.7928 50.6532 39.1743C50.3405 39.5827 49.9458 39.8437 49.5299 40.0904C49.4054 40.1642 49.2483 40.2464 49.121 40.2322C48.7432 40.1925 48.4589 40.3897 48.1646 40.5953C47.5096 41.0534 46.7809 41.3171 46.0254 41.4448C44.6602 41.6759 43.2949 41.7625 41.9353 41.6121C41.7953 41.5965 41.6453 41.6178 41.5024 41.6433C41.1586 41.7057 40.8488 41.6816 40.7214 41.4958C40.0141 41.3583 39.4255 41.2519 38.8426 41.1257C38.5837 41.0704 38.3121 41.0179 38.0857 40.8945C37.2156 40.418 36.2352 40.1287 35.5009 39.4154C35.3906 39.3076 35.2392 39.2409 35.1019 39.1644C34.362 38.7474 33.7763 38.1844 33.3816 37.4001C33.1736 36.9875 32.9175 36.5833 32.602 36.2585C32.063 35.704 31.8748 34.9453 31.4999 34.2972C31.4292 34.1752 31.5084 33.9554 31.5226 33.7356C31.2962 33.4888 31.2905 33.1995 31.4829 32.8208C31.7234 32.3458 31.5763 32.1089 30.951 31.7643C30.9595 31.6282 30.9722 31.4835 30.975 31.3389C30.9779 31.1914 31.0231 31.0056 30.9566 30.9049C30.6567 30.4539 30.6114 29.9334 30.5831 29.4016C30.5732 29.2045 30.5308 29.0088 30.5407 28.8117C30.5704 28.2373 30.4997 27.7069 30.0625 27.3424C30.2422 26.9255 30.4883 27.2673 30.7133 27.185C30.7529 27.1056 30.7996 27.0106 30.8647 26.8801C30.6836 26.8248 30.5393 26.7808 30.3426 26.7213C30.9708 26.2448 31.2905 25.642 31.2679 24.8862L31.2537 24.9003H31.2566ZM45.5671 35.565C45.5161 35.67 45.4652 35.7735 45.393 35.9196C45.6845 35.8969 45.7609 35.8047 45.5671 35.565ZM42.8578 21.4995L42.8634 21.4683L42.828 21.4797L42.8578 21.4995Z" fill="url(#paint0_linear_276_3976)"/>
<path d="M6.5132 66.4895H4.71785C4.61315 65.8102 4.10666 65.3976 3.27619 65.3976C2.44571 65.3976 2.01562 65.7237 2.01562 66.1917C2.01562 66.776 2.6169 66.9774 4.13637 67.2922C5.93173 67.6652 6.54291 68.5558 6.54291 69.7244C6.54291 71.2177 5.13945 72.1268 3.40069 72.1268C1.48084 72.1268 0.0773746 71.083 0.000976562 69.4181H1.78643C1.88263 70.1655 2.53202 70.6632 3.52519 70.6632C4.23258 70.6632 4.75746 70.3087 4.75746 69.801C4.75746 69.1784 4.23258 68.9302 2.84751 68.6707C1.15685 68.3545 0.240074 67.6553 0.240074 66.1917C0.240074 64.7282 1.63505 63.9425 3.3922 63.9425C5.14936 63.9425 6.42973 65.0047 6.51462 66.4895H6.5132Z" fill="#F32735"/>
<path d="M7.5625 64.1343H13.3504V65.6475H9.30126V67.2372H13.0165V68.7504H9.30126V70.4253H13.4367V71.9385H7.56392V64.1357L7.5625 64.1343Z" fill="#F32735"/>
<path d="M14.1436 68.03C14.1436 65.6659 15.929 63.9329 18.3454 63.9329C20.7619 63.9329 22.5473 65.6659 22.5473 68.03C22.5473 70.3941 20.7619 72.1271 18.3454 72.1271C15.929 72.1271 14.1436 70.3941 14.1436 68.03ZM20.81 68.03C20.81 66.5551 19.7602 65.5028 18.3454 65.5028C16.9307 65.5028 15.8809 66.5565 15.8809 68.03C15.8809 69.5035 16.9321 70.5572 18.3454 70.5572C19.7588 70.5572 20.81 69.495 20.81 68.03Z" fill="#F32735"/>
<path d="M23.4834 64.1343H25.2222V68.481C25.2222 69.7261 25.9097 70.5586 27.0458 70.5586C28.1819 70.5586 28.8695 69.7261 28.8695 68.481V64.1343H30.6082V68.481C30.6082 70.6919 29.185 72.1285 27.0458 72.1285C24.9067 72.1285 23.4834 70.6919 23.4834 68.481V64.1343Z" fill="#F32735"/>
<path d="M33.6265 64.1343V70.3955H37.5129V71.9371H31.8877V64.1343H33.6265Z" fill="#F32735"/>
<path d="M12.3565 78.0919C12.3565 78.9272 11.9547 79.6448 10.5526 81.0998L9.40524 82.2897H12.5135V83.8029H6.79639V82.7804L9.41514 80.0773C10.3758 79.0846 10.6021 78.5627 10.6021 78.1117C10.6021 77.5218 10.2782 77.129 9.50428 77.129C8.77849 77.129 8.3866 77.7189 8.3866 78.3287H6.63086C6.63086 76.756 7.81786 75.576 9.50428 75.576C11.2982 75.576 12.3579 76.6383 12.3579 78.0919H12.3565Z" fill="#0047BB"/>
<path d="M19.3977 79.7924C19.3977 82.5947 18.0833 84.0001 16.3375 84.0001C14.5917 84.0001 13.2773 82.5947 13.2773 79.7924C13.2773 76.99 14.5917 75.5747 16.3375 75.5747C18.0833 75.5747 19.3977 76.9801 19.3977 79.7924ZM14.9652 79.7924C14.9652 81.6105 15.5537 82.4373 16.3375 82.4373C17.1213 82.4373 17.7098 81.6119 17.7098 79.7924C17.7098 77.9728 17.1213 77.1375 16.3375 77.1375C15.5537 77.1375 14.9652 77.9629 14.9652 79.7924Z" fill="#0047BB"/>
<path d="M25.8008 78.092C25.8008 78.9273 25.399 79.6449 23.997 81.1L22.8496 82.2898H25.9578V83.803H20.2407V82.7805L22.8595 80.0775C23.8201 79.0847 24.0465 78.5629 24.0465 78.1119C24.0465 77.5219 23.7225 77.1291 22.9486 77.1291C22.2228 77.1291 21.8309 77.719 21.8309 78.3289H20.0752C20.0752 76.7561 21.2622 75.5762 22.9486 75.5762C24.7426 75.5762 25.8022 76.6384 25.8022 78.092H25.8008Z" fill="#0047BB"/>
<path d="M32.1763 76.8524L29.2053 83.8029H27.342L30.098 77.3445H26.6855V75.7916H32.1777V76.8538L32.1763 76.8524Z" fill="#0047BB"/>
<path d="M15.2571 60.654H12.5393L11.6395 56.5526H11.6013L10.7199 60.654H8.01058L5.75684 52.9731H8.36144L9.43102 57.5113H9.44941L10.4822 52.9731H12.8406L13.8451 57.578H13.8833L14.9529 52.9731H17.5759L15.2557 60.654H15.2571Z" fill="#0F1822"/>
<path d="M18.0637 57.8247L14.9385 52.9731H17.959L19.4276 55.7457H19.446L20.9711 52.9731H23.9832L20.8013 57.8247V60.654H18.0637V57.8247Z" fill="#0F1822"/>
<path d="M23.4023 52.9746H27.6835C30.5625 52.9746 31.5854 54.8636 31.5854 56.8008C31.5854 59.1649 30.1749 60.6555 27.1628 60.6555H23.4023V52.9746ZM26.0734 58.7182H27.0114C28.6597 58.7182 28.9157 57.4844 28.9157 56.7725C28.9157 56.2889 28.7644 54.9118 26.8233 54.9118H26.0749V58.7182H26.0734Z" fill="#0F1822"/>
<path d="M73.4987 47.6266C73.2638 47.2168 72.7206 46.7956 72.6866 47.2678C72.6866 47.2707 72.4956 48.4081 72.4956 48.4109C72.2947 49.3597 72.1108 49.8631 71.7387 50.6034C70.7611 52.5534 69.5302 53.7759 68.3913 53.99C66.3965 54.4977 65.8164 52.3463 65.6835 50.419C65.6127 47.6082 65.8363 45.1548 65.866 42.3907C65.8744 41.6519 65.5674 41.042 65.5674 41.042C65.0468 40.0578 64.246 39.4906 63.2302 39.4026C63.0704 39.3885 62.8949 39.3842 62.7124 39.3856C58.6562 39.6721 56.4449 42.4347 56.4449 42.4347L56.8298 41.1442C57.9871 36.3692 57.3179 33.9412 57.2698 33.6519C57.216 33.4491 56.8736 32.5486 56.7604 32.3614C56.2582 31.2581 55.0245 31.8282 55.0245 31.8282C52.2416 33.598 51.8031 37.7434 51.8031 37.7434C51.8031 37.7434 51.7479 38.3844 51.7451 38.6652C51.7451 38.6652 51.7493 39.5246 51.7564 39.6537C51.5668 39.0169 51.3263 38.6822 51.1013 38.8141C51.0094 38.8708 50.9287 39.0027 50.8622 39.1942C50.7957 39.3856 50.7236 39.709 50.7009 40.0139C50.6613 40.5641 50.6925 41.2888 50.708 41.6519C50.7278 42.0121 50.8269 43.287 50.8269 43.287C50.8269 43.287 51.0476 52.8072 56.7788 49.9879C57.3235 49.7199 57.8116 49.3441 58.229 48.9016C58.6845 48.4194 59.3721 47.6905 60.0229 47.0069C59.9253 48.0223 59.8616 49.1186 59.8602 50.2914C59.8574 52.0244 59.7867 53.6468 60.1771 55.0054C61.2057 58.5877 64.0635 59.0075 64.355 59.0898C65.3581 59.3181 66.3399 59.3011 67.2524 59.1749C68.82 58.9565 70.0735 58.1665 71.0002 57.205C71.9 56.2704 72.5791 55.1345 73.0615 54.1446C73.8099 52.6087 74.1495 50.897 73.9429 49.2008C73.8453 48.4066 73.6727 47.9216 73.5029 47.6238L73.4987 47.6266Z" fill="#0F1822"/>
<path d="M24.625 17.3045C24.625 17.3045 21.4036 14.5192 19.1329 17.4704C19.1329 17.4704 20.0256 14.7561 17.6657 16.862C17.6657 16.862 15.8633 18.6773 13.993 21.7009C12.748 20.45 10.6626 18.2859 9.87739 17.0578C9.87739 17.0578 8.02544 14.4412 7.43406 16.8308C7.43406 16.8308 6.81722 17.8789 7.43406 19.0531C7.43406 19.0531 5.68398 20.84 7.43406 22.6666C7.43406 22.6666 6.32205 23.3176 7.43406 23.7799C8.29991 24.1401 9.88588 25.3768 12.0477 25.3626C10.7503 28.2755 9.77411 31.7685 9.89578 35.5735C9.89578 35.5735 9.97642 37.7475 10.1844 40.3513C10.1844 40.3513 10.3627 42.3325 10.9243 36.5733C10.9243 36.5733 11.2398 42.9281 11.5709 45.2511C11.5709 45.2511 12.5244 47.0805 13.2134 43.2302C13.2134 43.2302 15.2026 25.1031 24.0747 20.606C24.0747 20.606 27.7262 18.666 24.625 17.3017V17.3045Z" fill="#0F1822"/>
<path d="M36.3333 24.2153C36.3333 24.2153 31.0816 27.4303 24.4958 25.4066C17.91 23.3814 20.9023 32.3301 25.2103 32.886C25.2103 32.886 22.344 35.4955 31.0618 33.7554C39.7783 32.0153 48.8074 26.3256 46.3895 14.3817C46.3895 14.3817 42.8568 2.62074 42.0051 2.78383C41.384 2.90296 42.4197 4.75793 41.8509 4.27008C40.8606 3.42059 38.9591 0.265147 39.5095 3.18234C40.3767 7.77297 45.4317 20.2118 36.3333 24.2153Z" fill="#F32735"/>
<path d="M56.7165 21.7562C58.775 21.3804 60.4246 21.2754 58.5047 22.4398C58.5047 22.4398 69.7975 21.8413 64.9179 25.0606C64.9179 25.0606 68.9798 24.5131 67.1703 27.151C67.1703 27.151 66.4954 28.1408 62.7958 27.9324C62.0912 27.8927 48.9479 28.5053 46.9715 38.0113C44.4546 50.1126 45.3827 58.3721 46.5796 76.0553C46.5796 76.0553 45.3317 79.3157 44.1759 68.3816C44.1759 68.3816 44.3612 72.2717 43.9283 72.5085C42.7229 73.1694 41.9532 67.0201 41.3732 65.1184C41.3732 65.1184 40.4083 60.1009 40.1607 56.8972C39.0402 42.3822 38.5804 31.6834 47.3902 25.7399C50.2283 23.8253 53.3535 22.3717 56.7193 21.7562H56.7165Z" fill="#0047BB"/>
<path d="M57.4677 1.05368C57.4677 1.05368 60.2647 1.36285 58.4807 0.560159C56.6952 -0.242529 56.1633 0.00848831 54.5476 0.153142C52.9319 0.297796 51.6318 3.12139 51.7761 6.57039L51.2017 12.9777C51.2017 12.9777 49.3002 19.5836 56.4321 18.6377C63.1551 17.7456 64.9533 14.9646 65.515 11.9368C66.0752 8.90896 63.0306 6.06268 63.0306 6.06268C63.0306 6.06268 61.1575 4.38073 62.9868 6.81715C62.9868 6.81715 62.5991 6.67959 62.3911 6.50374C60.576 4.97211 58.5005 3.13557 61.78 9.03376C61.78 9.03376 63.6178 12.2218 57.5809 13.3549C57.5809 13.3549 56.6273 13.2103 56.8311 11.9368C56.9358 11.2816 56.9315 9.61947 57.1749 8.34736C57.3574 7.39293 57.3673 6.91501 57.9417 6.63137C58.3548 6.42715 58.4085 6.34206 58.8797 6.03574C58.9348 6.00028 59.2206 5.63723 59.3409 5.37345C59.6366 4.73385 59.8587 4.44738 60.0143 4.31974C60.2803 4.10135 60.9254 3.57662 60.9311 3.232C60.9382 2.7952 60.5335 2.23786 59.9973 1.95281C59.6691 1.77837 59.2701 1.43234 57.4691 1.05368H57.4677Z" fill="#0F1822"/>
</g>
<defs>
<linearGradient id="paint0_linear_276_3976" x1="30.0639" y1="28.8258" x2="55.878" y2="28.8258" gradientUnits="userSpaceOnUse">
<stop stop-color="#FFF5C4"/>
<stop offset="1" stop-color="#FBE126"/>
</linearGradient>
<clipPath id="clip0_276_3976">
<rect width="74" height="84" fill="white"/>
</clipPath>
</defs>
</svg>
