<?xml version="1.0" encoding="utf-8"?>
<!-- Generator: Adobe Illustrator 23.0.6, SVG Export Plug-In . SVG Version: 6.00 Build 0)  -->
<svg version="1.1" id="레이어_1" xmlns="http://www.w3.org/2000/svg" xmlns:xlink="http://www.w3.org/1999/xlink" x="0px"
	 y="0px" viewBox="0 0 142.32 25.29" style="enable-background:new 0 0 142.32 25.29;" xml:space="preserve">
<style type="text/css">
	.st0{fill:#0047BA;}
	.st1{fill:#231815;}
	.st2{fill:#F32735;}
</style>
<g>
	<path class="st0" d="M19.25,20.32h-7.73l-1.08,2.77H3.32l8.38-20.94h7.44l8.23,20.94h-7.1L19.25,20.32z M13.57,15.04h3.78
		l-1.78-4.94H15.5L13.57,15.04z"/>
	<polygon class="st1" points="28.2,2.15 35.45,2.15 42.16,13.33 42.26,13.33 42.26,2.15 48.98,2.15 48.98,23.09 42.04,23.09 
		35.04,11.62 34.89,11.62 34.89,23.09 28.2,23.09 	"/>
	<path class="st1" d="M51.26,2.15h10.88c7.32,0,9.92,5.15,9.92,10.43c0,6.44-3.59,10.51-11.24,10.51h-9.56V2.15z M58.05,17.81h2.38
		c4.19,0,4.84-3.37,4.84-5.3c0-1.32-0.39-5.07-5.32-5.07h-1.9V17.81z"/>
	<path class="st1" d="M94.12,12.61c0,6.78-2.91,10.84-10.5,10.84c-7.56,0-10.49-4.06-10.49-10.84c0-6.81,3.15-10.87,10.49-10.87
		C90.95,1.74,94.12,5.8,94.12,12.61 M87.31,12.66v-0.13c0-3.29-0.77-5.43-3.68-5.43c-2.91,0-3.66,2.15-3.66,5.43v0.13
		c0,3.26,0.72,5.44,3.66,5.44C86.52,18.09,87.31,15.92,87.31,12.66"/>
	<polygon class="st1" points="95.68,2.15 102.93,2.15 109.64,13.33 109.74,13.33 109.74,2.15 116.46,2.15 116.46,23.09 
		109.52,23.09 102.52,11.62 102.38,11.62 102.38,23.09 95.68,23.09 	"/>
	<path class="st2" d="M132.27,16.05h-2.5v-4.74h9.24v11.75h-4.43l-0.24-1.76c-1.23,1.42-3.56,2.25-5.83,2.25
		c-6.74,0-10.49-3.83-10.49-10.84c0-7.06,3.9-10.97,10.88-10.97c5.97,0,9.22,3.29,9.89,8.05h-6.69c-0.17-1.73-1.95-2.54-3.06-2.54
		c-2.89,0-4.19,2.1-4.19,5.38v0.13c0,3.26,1.28,5.49,4.28,5.49C130.97,18.25,132.05,17.21,132.27,16.05"/>
</g>
</svg>
