<?xml version="1.0" encoding="utf-8"?>
<!-- Generator: Adobe Illustrator 23.0.6, SVG Export Plug-In . SVG Version: 6.00 Build 0)  -->
<svg version="1.1" id="레이어_1" xmlns="http://www.w3.org/2000/svg" xmlns:xlink="http://www.w3.org/1999/xlink" x="0px"
	 y="0px" viewBox="0 0 117.32 25.29" style="enable-background:new 0 0 117.32 25.29;" xml:space="preserve">
<style type="text/css">
	.st0{fill:#0047BA;}
	.st1{fill:#231815;}
	.st2{fill:#F32735;}
</style>
<g>
	<polygon class="st0" points="26.22,23.19 19.27,23.19 16.98,11.95 16.88,11.95 14.63,23.19 7.71,23.19 1.96,2.15 8.61,2.15 
		11.34,14.58 11.39,14.58 14.03,2.15 20.05,2.15 22.61,14.76 22.71,14.76 25.44,2.15 32.14,2.15 	"/>
	<path class="st1" d="M52.14,12.66c0,6.81-2.93,10.89-10.55,10.89c-7.59,0-10.54-4.08-10.54-10.89c0-6.84,3.17-10.92,10.54-10.92
		C48.94,1.74,52.14,5.82,52.14,12.66 M45.29,12.71v-0.13c0-3.3-0.77-5.46-3.7-5.46c-2.93,0-3.68,2.16-3.68,5.46v0.13
		c0,3.28,0.73,5.46,3.68,5.46C44.49,18.17,45.29,15.98,45.29,12.71"/>
	<polygon class="st1" points="53.7,2.15 60.98,2.15 67.73,13.39 67.83,13.39 67.83,2.15 74.58,2.15 74.58,23.19 67.61,23.19 
		60.57,11.67 60.43,11.67 60.43,23.19 53.7,23.19 	"/>
	<path class="st1" d="M82.38,16.22c0.02,1.3,0.34,2.34,1.89,2.34c1.74,0,1.62-2,1.62-2.94V2.15h6.96v13.39
		c0,5.75-2.76,8.01-8.46,8.01c-5.64,0-8.17-2.83-8.25-7.33H82.38z"/>
	<path class="st2" d="M115.37,14.94c0,5.85-3.24,8.61-10.09,8.61c-6.85,0-10.13-2.76-10.13-8.61V2.15h6.84v11.36
		c0,2.11-0.02,4.81,3.34,4.81c3.22,0,3.22-2.7,3.22-4.81V2.15h6.82V14.94z"/>
</g>
</svg>
