<?xml version="1.0" encoding="utf-8"?>
<!-- Generator: Adobe Illustrator 23.0.6, SVG Export Plug-In . SVG Version: 6.00 Build 0)  -->
<svg version="1.1" id="레이어_1" xmlns="http://www.w3.org/2000/svg" xmlns:xlink="http://www.w3.org/1999/xlink" x="0px"
	 y="0px" viewBox="0 0 129.32 25.29" style="enable-background:new 0 0 129.32 25.29;" xml:space="preserve">
<style type="text/css">
	.st0{fill:#0047BA;}
	.st1{fill:#231815;}
	.st2{fill:#F32735;}
</style>
<g>
	<path class="st0" d="M8.91,16.22c0.02,1.3,0.34,2.34,1.89,2.34c1.74,0,1.62-2,1.62-2.94V2.15h6.97v13.39
		c0,5.75-2.76,8.01-8.47,8.01c-5.63,0-8.17-2.83-8.25-7.33H8.91z"/>
	<polygon class="st1" points="21.68,2.15 40.42,2.15 40.42,7.53 28.65,7.53 28.65,10.16 39.7,10.16 39.7,15.18 28.65,15.18 
		28.65,17.78 40.76,17.78 40.76,23.19 21.68,23.19 	"/>
	<path class="st1" d="M63.42,12.66c0,6.81-2.93,10.89-10.55,10.89c-7.59,0-10.54-4.08-10.54-10.89c0-6.84,3.17-10.92,10.54-10.92
		C60.23,1.74,63.42,5.82,63.42,12.66 M56.57,12.71v-0.13c0-3.3-0.77-5.46-3.7-5.46c-2.93,0-3.67,2.16-3.67,5.46v0.13
		c0,3.28,0.73,5.46,3.67,5.46C55.78,18.17,56.57,15.98,56.57,12.71"/>
	<polygon class="st1" points="64.99,2.15 72.27,2.15 79.01,13.39 79.11,13.39 79.11,2.15 85.86,2.15 85.86,23.19 78.89,23.19 
		71.85,11.67 71.71,11.67 71.71,23.19 64.99,23.19 	"/>
	<path class="st1" d="M93.66,16.22c0.02,1.3,0.34,2.34,1.89,2.34c1.74,0,1.62-2,1.62-2.94V2.15h6.96v13.39
		c0,5.75-2.76,8.01-8.46,8.01c-5.64,0-8.17-2.83-8.25-7.33H93.66z"/>
	<path class="st2" d="M126.65,14.94c0,5.85-3.24,8.61-10.09,8.61c-6.85,0-10.13-2.76-10.13-8.61V2.15h6.84v11.36
		c0,2.11-0.02,4.81,3.34,4.81c3.22,0,3.22-2.7,3.22-4.81V2.15h6.82V14.94z"/>
</g>
</svg>
