<?xml version="1.0" encoding="utf-8"?>
<!-- Generator: Adobe Illustrator 23.0.6, SVG Export Plug-In . SVG Version: 6.00 Build 0)  -->
<svg version="1.1" id="레이어_1" xmlns="http://www.w3.org/2000/svg" xmlns:xlink="http://www.w3.org/1999/xlink" x="0px"
	 y="0px" viewBox="0 0 186.32 25.29" style="enable-background:new 0 0 186.32 25.29;" xml:space="preserve">
<style type="text/css">
	.st0{fill:#0047BA;}
	.st1{fill:#231815;}
	.st2{fill:#F32735;}
</style>
<g>
	<path class="st0" d="M22.66,14.88c0,5.82-3.23,8.57-10.04,8.57c-6.81,0-10.09-2.74-10.09-8.57V2.15h6.81v11.31
		c0,2.1-0.02,4.79,3.32,4.79c3.2,0,3.2-2.69,3.2-4.79V2.15h6.79V14.88z"/>
	<rect x="24.94" y="2.15" class="st1" width="6.93" height="20.94"/>
	<path class="st1" d="M39.65,16.15c0.02,1.29,0.34,2.33,1.88,2.33c1.73,0,1.61-1.99,1.61-2.93V2.15h6.93v13.33
		c0,5.72-2.74,7.97-8.43,7.97c-5.61,0-8.14-2.82-8.21-7.3H39.65z"/>
	<polygon class="st1" points="52.36,2.15 71.01,2.15 71.01,7.51 59.29,7.51 59.29,10.12 70.29,10.12 70.29,15.12 59.29,15.12 
		59.29,17.7 71.35,17.7 71.35,23.09 52.36,23.09 	"/>
	<path class="st1" d="M93.9,12.61c0,6.78-2.91,10.84-10.5,10.84c-7.56,0-10.49-4.06-10.49-10.84c0-6.81,3.15-10.87,10.49-10.87
		C90.72,1.74,93.9,5.8,93.9,12.61 M87.09,12.66v-0.13c0-3.29-0.77-5.43-3.68-5.43c-2.91,0-3.66,2.15-3.66,5.43v0.13
		c0,3.26,0.72,5.44,3.66,5.44C86.29,18.09,87.09,15.92,87.09,12.66"/>
	<polygon class="st1" points="95.46,2.15 102.7,2.15 109.42,13.33 109.52,13.33 109.52,2.15 116.23,2.15 116.23,23.09 109.3,23.09 
		102.29,11.62 102.15,11.62 102.15,23.09 95.46,23.09 	"/>
	<path class="st1" d="M132.04,16.05h-2.5v-4.74h9.24v11.75h-4.43l-0.24-1.76c-1.23,1.42-3.56,2.25-5.83,2.25
		c-6.74,0-10.49-3.83-10.49-10.84c0-7.06,3.9-10.97,10.88-10.97c5.97,0,9.22,3.29,9.89,8.05h-6.69c-0.17-1.73-1.95-2.54-3.06-2.54
		c-2.89,0-4.19,2.1-4.19,5.38v0.13c0,3.26,1.28,5.49,4.28,5.49C130.74,18.25,131.82,17.21,132.04,16.05"/>
	<path class="st1" d="M141.06,2.15h12.28c6.09,0,7.27,2.74,7.27,5.23c0,2.1-1.13,3.42-2.84,4.09c2.05,0.49,3.97,2.17,3.97,5.28
		c0,4.17-2.82,6.34-7.97,6.34h-12.71V2.15z M147.85,10.04h3.68c1.54,0,2.41-0.1,2.41-1.45c0-1.16-0.94-1.22-2.41-1.22h-3.68V10.04z
		 M147.85,17.83h4.14c1.73,0,2.77-0.13,2.77-1.73c0-1.27-0.87-1.63-2.5-1.63h-4.41V17.83z"/>
	<path class="st2" d="M183.79,14.88c0,5.82-3.23,8.57-10.04,8.57c-6.81,0-10.09-2.74-10.09-8.57V2.15h6.81v11.31
		c0,2.1-0.02,4.79,3.32,4.79c3.2,0,3.2-2.69,3.2-4.79V2.15h6.79V14.88z"/>
</g>
</svg>
