<?xml version="1.0" encoding="utf-8"?>
<!-- Generator: Adobe Illustrator 23.0.6, SVG Export Plug-In . SVG Version: 6.00 Build 0)  -->
<svg version="1.1" id="레이어_1" xmlns="http://www.w3.org/2000/svg" xmlns:xlink="http://www.w3.org/1999/xlink" x="0px"
	 y="0px" viewBox="0 0 177.32 25.29" style="enable-background:new 0 0 177.32 25.29;" xml:space="preserve">
<style type="text/css">
	.st0{fill:#0047BA;}
	.st1{fill:#231815;}
	.st2{fill:#F32735;}
</style>
<g>
	<path class="st0" d="M16.01,10.48c-0.05-1.16-0.53-3.39-3.11-3.39c-2.89,0-3.71,2.15-3.71,5.43v0.13c0,3.26,0.82,5.44,3.71,5.44
		c2.26,0,3.13-1.55,3.18-3.55h6.96c0.1,4.48-3.49,8.9-9.94,8.9c-7.56,0-10.74-3.83-10.74-10.84c0-7.06,3.42-10.87,10.74-10.87
		c5.87,0,9.53,3.13,9.8,8.75H16.01z"/>
	<polygon class="st1" points="24.62,2.15 31.56,2.15 31.56,9.84 37.93,9.84 37.93,2.15 44.84,2.15 44.84,23.09 37.93,23.09 
		37.93,15.25 31.56,15.25 31.56,23.09 24.62,23.09 	"/>
	<polygon class="st1" points="47.12,2.15 65.78,2.15 65.78,7.51 54.06,7.51 54.06,10.12 65.06,10.12 65.06,15.12 54.06,15.12 
		54.06,17.7 66.12,17.7 66.12,23.09 47.12,23.09 	"/>
	<path class="st1" d="M88.67,12.61c0,6.78-2.91,10.84-10.5,10.84c-7.56,0-10.49-4.06-10.49-10.84c0-6.81,3.15-10.87,10.49-10.87
		C85.49,1.74,88.67,5.8,88.67,12.61 M81.85,12.66v-0.13c0-3.29-0.77-5.43-3.68-5.43c-2.91,0-3.66,2.15-3.66,5.43v0.13
		c0,3.26,0.72,5.44,3.66,5.44C81.06,18.09,81.85,15.92,81.85,12.66"/>
	<polygon class="st1" points="90.23,2.15 97.47,2.15 104.19,13.33 104.28,13.33 104.28,2.15 111,2.15 111,23.09 104.07,23.09 
		97.06,11.62 96.92,11.62 96.92,23.09 90.23,23.09 	"/>
	<path class="st1" d="M126.81,16.05h-2.5v-4.74h9.24v11.75h-4.43l-0.24-1.76c-1.23,1.42-3.56,2.25-5.83,2.25
		c-6.74,0-10.49-3.83-10.49-10.84c0-7.06,3.9-10.97,10.88-10.97c5.97,0,9.22,3.29,9.89,8.05h-6.69c-0.17-1.73-1.95-2.54-3.06-2.54
		c-2.89,0-4.19,2.1-4.19,5.38v0.13c0,3.26,1.28,5.49,4.28,5.49C125.51,18.25,126.59,17.21,126.81,16.05"/>
	<path class="st1" d="M141.32,16.15c0.02,1.29,0.34,2.33,1.88,2.33c1.73,0,1.61-1.99,1.61-2.93V2.15h6.93v13.33
		c0,5.72-2.74,7.97-8.43,7.97c-5.61,0-8.14-2.82-8.21-7.3H141.32z"/>
	<path class="st2" d="M174.15,14.88c0,5.82-3.23,8.57-10.04,8.57c-6.81,0-10.09-2.74-10.09-8.57V2.15h6.81v11.31
		c0,2.1-0.02,4.79,3.32,4.79c3.2,0,3.2-2.69,3.2-4.79V2.15h6.79V14.88z"/>
</g>
</svg>
