<?xml version="1.0" encoding="utf-8"?>
<!-- Generator: Adobe Illustrator 23.0.6, SVG Export Plug-In . SVG Version: 6.00 Build 0)  -->
<svg version="1.1" id="레이어_1" xmlns="http://www.w3.org/2000/svg" xmlns:xlink="http://www.w3.org/1999/xlink" x="0px"
	 y="0px" viewBox="0 0 160.32 25.29" style="enable-background:new 0 0 160.32 25.29;" xml:space="preserve">
<style type="text/css">
	.st0{fill:#0047BA;}
	.st1{fill:#231815;}
	.st2{fill:#F32735;}
</style>
<g>
	<path class="st0" d="M16.54,16.05h-2.5v-4.74h9.24v11.75h-4.43L18.6,21.3c-1.23,1.42-3.56,2.25-5.82,2.25
		c-6.74,0-10.49-3.83-10.49-10.84c0-7.07,3.9-10.97,10.88-10.97c5.97,0,9.22,3.29,9.89,8.05h-6.69c-0.17-1.73-1.95-2.54-3.06-2.54
		c-2.89,0-4.19,2.1-4.19,5.38v0.13c0,3.26,1.28,5.49,4.28,5.49C15.24,18.25,16.32,17.21,16.54,16.05"/>
	<polygon class="st1" points="47.53,23.09 40.63,23.09 38.34,11.91 38.25,11.91 36.01,23.09 29.13,23.09 23.4,2.15 30.02,2.15 
		32.74,14.52 32.78,14.52 35.41,2.15 41.4,2.15 43.95,14.7 44.04,14.7 46.76,2.15 53.43,2.15 	"/>
	<path class="st1" d="M65.15,20.32h-7.72l-1.08,2.77h-7.12L57.6,2.15h7.44l8.23,20.94h-7.1L65.15,20.32z M59.48,15.04h3.78
		l-1.78-4.94H61.4L59.48,15.04z"/>
	<polygon class="st1" points="74.11,2.15 81.35,2.15 88.07,13.33 88.16,13.33 88.16,2.15 94.88,2.15 94.88,23.09 87.95,23.09 
		80.94,11.62 80.8,11.62 80.8,23.09 74.11,23.09 	"/>
	<path class="st1" d="M110.69,16.05h-2.5v-4.74h9.24v11.75H113l-0.24-1.76c-1.23,1.42-3.56,2.25-5.82,2.25
		c-6.74,0-10.49-3.83-10.49-10.84c0-7.07,3.9-10.97,10.88-10.97c5.97,0,9.22,3.29,9.89,8.05h-6.69c-0.17-1.73-1.95-2.54-3.06-2.54
		c-2.89,0-4.19,2.1-4.19,5.38v0.13c0,3.26,1.28,5.49,4.28,5.49C109.39,18.25,110.48,17.21,110.69,16.05"/>
	<path class="st1" d="M125.21,16.15c0.02,1.29,0.34,2.33,1.88,2.33c1.73,0,1.61-1.99,1.61-2.92V2.15h6.93v13.33
		c0,5.72-2.74,7.97-8.42,7.97c-5.61,0-8.13-2.82-8.2-7.3H125.21z"/>
	<path class="st2" d="M158.03,14.88c0,5.82-3.22,8.57-10.03,8.57c-6.81,0-10.08-2.74-10.08-8.57V2.15h6.81v11.31
		c0,2.1-0.02,4.79,3.32,4.79c3.2,0,3.2-2.69,3.2-4.79V2.15h6.79V14.88z"/>
</g>
</svg>
