<?xml version="1.0" encoding="utf-8"?>
<!-- Generator: Adobe Illustrator 23.0.6, SVG Export Plug-In . SVG Version: 6.00 Build 0)  -->
<svg version="1.1" id="레이어_1" xmlns="http://www.w3.org/2000/svg" xmlns:xlink="http://www.w3.org/1999/xlink" x="0px"
	 y="0px" viewBox="0 0 151.32 25.29" style="enable-background:new 0 0 151.32 25.29;" xml:space="preserve">
<style type="text/css">
	.st0{fill:#0047BA;}
	.st1{fill:#231815;}
	.st2{fill:#F32735;}
</style>
<g>
	<rect x="5.24" y="2.15" class="st0" width="6.96" height="21.04"/>
	<polygon class="st1" points="14.5,2.15 21.78,2.15 28.52,13.39 28.62,13.39 28.62,2.15 35.37,2.15 35.37,23.19 28.4,23.19 
		21.37,11.67 21.22,11.67 21.22,23.19 14.5,23.19 	"/>
	<path class="st1" d="M50.65,10.53c-0.05-1.17-0.53-3.41-3.12-3.41c-2.9,0-3.72,2.16-3.72,5.46v0.13c0,3.28,0.82,5.46,3.72,5.46
		c2.27,0,3.14-1.56,3.19-3.56h6.99c0.1,4.5-3.51,8.94-9.99,8.94c-7.59,0-10.79-3.85-10.79-10.89c0-7.1,3.43-10.92,10.79-10.92
		c5.9,0,9.58,3.15,9.84,8.79H50.65z"/>
	<polygon class="st1" points="59.3,2.15 66.27,2.15 66.27,9.87 72.68,9.87 72.68,2.15 79.62,2.15 79.62,23.19 72.68,23.19 
		72.68,15.31 66.27,15.31 66.27,23.19 59.3,23.19 	"/>
	<polygon class="st1" points="81.91,2.15 100.65,2.15 100.65,7.53 88.88,7.53 88.88,10.16 99.93,10.16 99.93,15.18 88.88,15.18 
		88.88,17.78 100.99,17.78 100.99,23.19 81.91,23.19 	"/>
	<path class="st1" d="M123.65,12.66c0,6.81-2.93,10.89-10.55,10.89c-7.59,0-10.54-4.08-10.54-10.89c0-6.84,3.17-10.92,10.54-10.92
		C120.46,1.74,123.65,5.82,123.65,12.66 M116.8,12.71v-0.13c0-3.3-0.77-5.46-3.7-5.46c-2.93,0-3.68,2.16-3.68,5.46v0.13
		c0,3.28,0.73,5.46,3.68,5.46C116.01,18.17,116.8,15.98,116.8,12.71"/>
	<polygon class="st2" points="125.22,2.15 132.49,2.15 139.24,13.39 139.34,13.39 139.34,2.15 146.09,2.15 146.09,23.19 
		139.12,23.19 132.08,11.67 131.94,11.67 131.94,23.19 125.22,23.19 	"/>
</g>
</svg>
