<?xml version="1.0" encoding="utf-8"?>
<!-- Generator: Adobe Illustrator 23.0.6, SVG Export Plug-In . SVG Version: 6.00 Build 0)  -->
<svg version="1.1" id="레이어_1" xmlns="http://www.w3.org/2000/svg" xmlns:xlink="http://www.w3.org/1999/xlink" x="0px"
	 y="0px" viewBox="0 0 119.32 25.29" style="enable-background:new 0 0 119.32 25.29;" xml:space="preserve">
<style type="text/css">
	.st0{fill:#0047BA;}
	.st1{fill:#231815;}
	.st2{fill:#F32735;}
</style>
<g>
	<path class="st0" d="M12.4,18.82c1.06,0,2.73-0.23,2.73-1.77c0-1.17-0.8-1.35-3.77-2.13c-0.29-0.08-0.6-0.18-0.97-0.26
		c-3.63-0.96-8.01-1.98-8.01-6.03c0-5.23,4.47-6.89,9.19-6.89c4.93,0,9.48,1.77,9.51,6.94h-6.77c0.15-1.66-1.45-2.26-2.76-2.26
		c-0.89,0-2.37,0.21-2.37,1.38c0,1.07,1.96,1.48,4.16,2l2.25,0.57c3.17,0.78,6.7,2.29,6.7,6.01c0,5.43-5.42,7.18-10.52,7.18
		c-2.54,0-9.99-0.86-9.99-7.51h7.16C8.94,18.3,10.44,18.82,12.4,18.82"/>
	<path class="st1" d="M44.08,14.95c0,5.85-3.24,8.61-10.09,8.61c-6.85,0-10.13-2.76-10.13-8.61V2.15h6.84v11.36
		c0,2.11-0.02,4.81,3.34,4.81c3.22,0,3.22-2.7,3.22-4.81V2.15h6.82V14.95z"/>
	<polygon class="st1" points="69.18,23.19 62.24,23.19 59.94,11.96 59.84,11.96 57.59,23.19 50.68,23.19 44.92,2.15 51.57,2.15 
		54.31,14.58 54.35,14.58 56.99,2.15 63.01,2.15 65.58,14.76 65.67,14.76 68.41,2.15 75.1,2.15 	"/>
	<path class="st1" d="M95.1,12.66c0,6.81-2.93,10.89-10.55,10.89c-7.59,0-10.54-4.08-10.54-10.89c0-6.84,3.17-10.92,10.54-10.92
		C91.91,1.74,95.1,5.82,95.1,12.66 M88.26,12.71v-0.13c0-3.3-0.77-5.46-3.7-5.46c-2.93,0-3.67,2.16-3.67,5.46v0.13
		c0,3.28,0.73,5.46,3.67,5.46C87.46,18.17,88.26,15.98,88.26,12.71"/>
	<polygon class="st2" points="96.67,2.15 103.95,2.15 110.69,13.39 110.79,13.39 110.79,2.15 117.54,2.15 117.54,23.19 
		110.57,23.19 103.53,11.67 103.39,11.67 103.39,23.19 96.67,23.19 	"/>
</g>
</svg>
