<?xml version="1.0" encoding="utf-8"?>
<!-- Generator: Adobe Illustrator 23.0.6, SVG Export Plug-In . SVG Version: 6.00 Build 0)  -->
<svg version="1.1" id="레이어_1" xmlns="http://www.w3.org/2000/svg" xmlns:xlink="http://www.w3.org/1999/xlink" x="0px"
	 y="0px" viewBox="0 0 206.32 25.29" style="enable-background:new 0 0 206.32 25.29;" xml:space="preserve">
<style type="text/css">
	.st0{fill:#0047BA;}
	.st1{fill:#231815;}
	.st2{fill:#F32735;}
</style>
<g>
	<path class="st0" d="M17.34,10.53c-0.05-1.17-0.53-3.41-3.12-3.41c-2.9,0-3.72,2.16-3.72,5.46v0.13c0,3.28,0.82,5.46,3.72,5.46
		c2.27,0,3.14-1.56,3.19-3.56h6.99c0.1,4.5-3.51,8.94-9.99,8.94c-7.6,0-10.79-3.85-10.79-10.89c0-7.1,3.43-10.92,10.79-10.92
		c5.9,0,9.58,3.15,9.84,8.79H17.34z"/>
	<polygon class="st1" points="25.99,2.15 32.96,2.15 32.96,9.87 39.36,9.87 39.36,2.15 46.31,2.15 46.31,23.19 39.36,23.19 
		39.36,15.31 32.96,15.31 32.96,23.19 25.99,23.19 	"/>
	<path class="st1" d="M68.82,14.95c0,5.85-3.24,8.61-10.09,8.61c-6.85,0-10.13-2.76-10.13-8.61V2.15h6.84v11.36
		c0,2.11-0.02,4.81,3.34,4.81c3.22,0,3.22-2.7,3.22-4.81V2.15h6.82V14.95z"/>
	<polygon class="st1" points="71.11,2.15 78.39,2.15 85.14,13.39 85.23,13.39 85.23,2.15 91.98,2.15 91.98,23.19 85.02,23.19 
		77.98,11.67 77.83,11.67 77.83,23.19 71.11,23.19 	"/>
	<path class="st1" d="M107.26,10.53c-0.05-1.17-0.53-3.41-3.12-3.41c-2.9,0-3.72,2.16-3.72,5.46v0.13c0,3.28,0.82,5.46,3.72,5.46
		c2.27,0,3.14-1.56,3.19-3.56h6.99c0.1,4.5-3.51,8.94-9.99,8.94c-7.6,0-10.79-3.85-10.79-10.89c0-7.1,3.43-10.92,10.79-10.92
		c5.9,0,9.58,3.15,9.84,8.79H107.26z"/>
	<polygon class="st1" points="115.91,2.15 122.88,2.15 122.88,9.87 129.29,9.87 129.29,2.15 136.23,2.15 136.23,23.19 129.29,23.19 
		129.29,15.31 122.88,15.31 122.88,23.19 115.91,23.19 	"/>
	<polygon class="st1" points="138.52,2.15 157.27,2.15 157.27,7.53 145.49,7.53 145.49,10.16 156.54,10.16 156.54,15.18 
		145.49,15.18 145.49,17.78 157.6,17.78 157.6,23.19 138.52,23.19 	"/>
	<path class="st1" d="M180.26,12.66c0,6.81-2.93,10.89-10.55,10.89c-7.59,0-10.54-4.08-10.54-10.89c0-6.84,3.17-10.92,10.54-10.92
		C177.07,1.74,180.26,5.82,180.26,12.66 M173.42,12.71v-0.13c0-3.3-0.77-5.46-3.7-5.46c-2.93,0-3.67,2.16-3.67,5.46v0.13
		c0,3.28,0.73,5.46,3.67,5.46C172.62,18.17,173.42,15.98,173.42,12.71"/>
	<polygon class="st2" points="181.83,2.15 189.11,2.15 195.86,13.39 195.95,13.39 195.95,2.15 202.7,2.15 202.7,23.19 195.73,23.19 
		188.7,11.67 188.55,11.67 188.55,23.19 181.83,23.19 	"/>
</g>
</svg>
