<?xml version="1.0" encoding="utf-8"?>
<!-- Generator: Adobe Illustrator 23.0.6, SVG Export Plug-In . SVG Version: 6.00 Build 0)  -->
<svg version="1.1" id="레이어_1" xmlns="http://www.w3.org/2000/svg" xmlns:xlink="http://www.w3.org/1999/xlink" x="0px"
	 y="0px" viewBox="0 0 151.32 25.29" style="enable-background:new 0 0 151.32 25.29;" xml:space="preserve">
<style type="text/css">
	.st0{fill:#0047BA;}
	.st1{fill:#231815;}
	.st2{fill:#F32735;}
</style>
<g>
	<path class="st0" d="M1.34,2.15h10.93c7.35,0,9.96,5.17,9.96,10.48c0,6.47-3.6,10.56-11.29,10.56h-9.6V2.15z M8.16,17.88h2.39
		c4.21,0,4.86-3.38,4.86-5.33c0-1.33-0.39-5.1-5.35-5.1H8.16V17.88z"/>
	<path class="st1" d="M37.16,20.41h-7.76l-1.09,2.78h-7.16l8.42-21.04h7.47l8.27,21.04h-7.13L37.16,20.41z M31.45,15.1h3.8
		l-1.79-4.97h-0.07L31.45,15.1z"/>
	<polygon class="st1" points="46.15,2.15 64.89,2.15 64.89,7.53 53.11,7.53 53.11,10.16 64.17,10.16 64.17,15.18 53.11,15.18 
		53.11,17.78 65.23,17.78 65.23,23.19 46.15,23.19 	"/>
	<path class="st1" d="M73.04,16.22c0.02,1.3,0.34,2.34,1.89,2.34c1.74,0,1.62-2,1.62-2.94V2.15h6.96v13.39
		c0,5.75-2.76,8.01-8.46,8.01c-5.64,0-8.17-2.83-8.25-7.33H73.04z"/>
	<polygon class="st1" points="85.8,2.15 104.55,2.15 104.55,7.53 92.77,7.53 92.77,10.16 103.82,10.16 103.82,15.18 92.77,15.18 
		92.77,17.78 104.89,17.78 104.89,23.19 85.8,23.19 	"/>
	<path class="st1" d="M127.54,12.66c0,6.81-2.93,10.89-10.55,10.89c-7.59,0-10.54-4.08-10.54-10.89c0-6.84,3.17-10.92,10.54-10.92
		C124.35,1.74,127.54,5.82,127.54,12.66 M120.7,12.71v-0.13c0-3.3-0.77-5.46-3.7-5.46c-2.93,0-3.68,2.16-3.68,5.46v0.13
		c0,3.28,0.73,5.46,3.68,5.46C119.9,18.17,120.7,15.98,120.7,12.71"/>
	<polygon class="st2" points="129.11,2.15 136.39,2.15 143.14,13.39 143.23,13.39 143.23,2.15 149.98,2.15 149.98,23.19 
		143.01,23.19 135.98,11.67 135.83,11.67 135.83,23.19 129.11,23.19 	"/>
</g>
</svg>
