<?xml version="1.0" encoding="utf-8"?>
<!-- Generator: Adobe Illustrator 23.0.6, SVG Export Plug-In . SVG Version: 6.00 Build 0)  -->
<svg version="1.1" id="레이어_1" xmlns="http://www.w3.org/2000/svg" xmlns:xlink="http://www.w3.org/1999/xlink" x="0px"
	 y="0px" viewBox="0 0 122.32 25.29" style="enable-background:new 0 0 122.32 25.29;" xml:space="preserve">
<style type="text/css">
	.st0{fill:#0047BA;}
	.st1{fill:#231815;}
	.st2{fill:#F32735;}
</style>
<g>
	<polygon class="st0" points="2.27,2.15 12.48,2.15 15.79,14.5 15.89,14.5 19.2,2.15 29.41,2.15 29.41,23.19 22.61,23.19 
		22.61,9.67 22.56,9.67 18.52,23.19 13.15,23.19 9.11,9.67 9.04,9.67 9.04,23.19 2.27,23.19 	"/>
	<path class="st1" d="M46.26,20.41h-7.76l-1.09,2.78h-7.16l8.42-21.04h7.47l8.27,21.04h-7.13L46.26,20.41z M40.55,15.1h3.8
		l-1.79-4.97h-0.07L40.55,15.1z"/>
	<path class="st1" d="M64.66,18.82c1.06,0,2.73-0.23,2.73-1.77c0-1.17-0.8-1.35-3.77-2.13c-0.29-0.08-0.61-0.18-0.97-0.26
		c-3.63-0.96-8.01-1.98-8.01-6.03c0-5.23,4.47-6.89,9.19-6.89c4.93,0,9.48,1.77,9.51,6.94h-6.77c0.15-1.66-1.45-2.26-2.76-2.26
		c-0.89,0-2.37,0.21-2.37,1.38c0,1.07,1.96,1.48,4.16,2l2.25,0.57c3.17,0.78,6.7,2.29,6.7,6.01c0,5.43-5.42,7.18-10.52,7.18
		c-2.54,0-9.99-0.86-9.99-7.51h7.16C61.2,18.3,62.7,18.82,64.66,18.82"/>
	<path class="st1" d="M90.19,20.41h-7.76l-1.09,2.78h-7.16L82.6,2.15h7.47l8.27,21.04h-7.13L90.19,20.41z M84.48,15.1h3.8
		l-1.79-4.97h-0.07L84.48,15.1z"/>
	<polygon class="st2" points="99.18,2.15 106.46,2.15 113.21,13.39 113.31,13.39 113.31,2.15 120.05,2.15 120.05,23.19 
		113.09,23.19 106.05,11.67 105.91,11.67 105.91,23.19 99.18,23.19 	"/>
</g>
</svg>
