<?xml version="1.0" encoding="utf-8"?>
<!-- Generator: Adobe Illustrator 23.0.6, SVG Export Plug-In . SVG Version: 6.00 Build 0)  -->
<svg version="1.1" id="레이어_1" xmlns="http://www.w3.org/2000/svg" xmlns:xlink="http://www.w3.org/1999/xlink" x="0px"
	 y="0px" viewBox="0 0 550.32 25.29" style="enable-background:new 0 0 550.32 25.29;" xml:space="preserve">
<style type="text/css">
	.st0{fill:#0047BA;}
	.st1{fill:#231815;}
	.st2{fill:#F32735;}
</style>
<g>
	<polygon class="st0" points="2.66,2.13 12.86,2.13 16.18,14.48 16.27,14.48 19.58,2.13 29.79,2.13 29.79,23.16 22.99,23.16 
		22.99,9.64 22.95,9.64 18.91,23.16 13.54,23.16 9.5,9.64 9.43,9.64 9.43,23.16 2.66,23.16 	"/>
	<rect x="32.08" y="2.13" class="st1" width="6.96" height="21.04"/>
	<polygon class="st1" points="41.34,2.13 48.33,2.13 48.33,17.75 58.34,17.75 58.34,23.16 41.34,23.16 	"/>
	<rect x="59.43" y="2.13" class="st1" width="6.96" height="21.04"/>
	<polygon class="st1" points="73.67,7.52 67.48,7.52 67.48,2.14 86.73,2.14 86.73,7.52 80.52,7.52 80.52,23.15 73.67,23.15 	"/>
	<path class="st1" d="M99.11,20.38h-7.76l-1.09,2.78H83.1l8.42-21.04h7.47l8.27,21.04h-7.13L99.11,20.38z M93.4,15.08h3.8
		l-1.79-4.97h-0.07L93.4,15.08z"/>
	<path class="st1" d="M108.1,2.13h11.85c6.65,0,8.73,3.77,8.73,6.84c0,2.81-1.28,4.76-3.43,5.9l5.61,8.29h-7.96l-4.45-7.07h-3.39
		v7.07h-6.97V2.13z M115.07,11.12h2.88c1.96,0,3.87,0.13,3.87-1.92c0-1.82-1.57-1.95-3.46-1.95h-3.29V11.12z"/>
	<polygon class="st1" points="136.22,15.41 128.24,2.13 135.96,2.13 139.71,9.72 139.76,9.72 143.65,2.13 151.34,2.13 143.21,15.41 
		143.21,23.16 136.22,23.16 	"/>
	<path class="st1" d="M180.4,12.66c0,6.81-2.93,10.89-10.55,10.89c-7.59,0-10.54-4.08-10.54-10.89c0-6.84,3.17-10.92,10.54-10.92
		C177.21,1.74,180.4,5.82,180.4,12.66 M173.56,12.71v-0.13c0-3.3-0.77-5.46-3.7-5.46c-2.93,0-3.67,2.16-3.67,5.46v0.13
		c0,3.28,0.73,5.46,3.67,5.46C172.76,18.17,173.56,15.98,173.56,12.71"/>
	<path class="st1" d="M181.97,2.13h11.85c6.65,0,8.73,3.77,8.73,6.84c0,2.81-1.28,4.76-3.43,5.9l5.61,8.29h-7.96l-4.45-7.07h-3.39
		v7.07h-6.97V2.13z M188.94,11.12h2.88c1.96,0,3.87,0.13,3.87-1.92c0-1.82-1.57-1.95-3.46-1.95h-3.29V11.12z"/>
	<path class="st1" d="M205.57,2.13h10.93c7.35,0,9.96,5.17,9.96,10.48c0,6.47-3.6,10.56-11.3,10.56h-9.6V2.13z M212.39,17.86h2.39
		c4.21,0,4.86-3.38,4.86-5.33c0-1.33-0.39-5.1-5.35-5.1h-1.91V17.86z"/>
	<rect x="228.03" y="2.13" class="st1" width="6.96" height="21.04"/>
	<polygon class="st1" points="237.29,2.13 244.57,2.13 251.32,13.36 251.42,13.36 251.42,2.13 258.17,2.13 258.17,23.16 
		251.2,23.16 244.16,11.64 244.02,11.64 244.02,23.16 237.29,23.16 	"/>
	<path class="st1" d="M275.02,20.38h-7.76l-1.09,2.78h-7.16l8.42-21.04h7.47l8.27,21.04h-7.13L275.02,20.38z M269.31,15.08h3.8
		l-1.79-4.97h-0.07L269.31,15.08z"/>
	<path class="st1" d="M284.01,2.13h11.85c6.65,0,8.73,3.77,8.73,6.84c0,2.81-1.28,4.76-3.43,5.9l5.61,8.29h-7.96l-4.45-7.07h-3.39
		v7.07h-6.97V2.13z M290.97,11.12h2.88c1.96,0,3.87,0.13,3.87-1.92c0-1.82-1.57-1.95-3.46-1.95h-3.29V11.12z"/>
	<rect x="307.61" y="2.13" class="st1" width="6.97" height="21.04"/>
	<path class="st1" d="M331.43,20.38h-7.76l-1.09,2.78h-7.16l8.42-21.04h7.47l8.27,21.04h-7.13L331.43,20.38z M325.72,15.08h3.8
		l-1.79-4.97h-0.07L325.72,15.08z"/>
	<polygon class="st1" points="342.02,7.52 335.83,7.52 335.83,2.14 355.08,2.14 355.08,7.52 348.86,7.52 348.86,23.15 342.02,23.15 
			"/>
	<polygon class="st1" points="356.28,2.13 375.03,2.13 375.03,7.51 363.25,7.51 363.25,10.13 374.3,10.13 374.3,15.15 363.25,15.15 
		363.25,17.75 375.36,17.75 375.36,23.16 356.28,23.16 	"/>
	<path class="st1" d="M405.88,12.66c0,6.81-2.93,10.89-10.55,10.89c-7.59,0-10.54-4.08-10.54-10.89c0-6.84,3.17-10.92,10.54-10.92
		C402.69,1.74,405.88,5.82,405.88,12.66 M399.04,12.71v-0.13c0-3.3-0.77-5.46-3.7-5.46c-2.93,0-3.68,2.16-3.68,5.46v0.13
		c0,3.28,0.73,5.46,3.68,5.46C398.24,18.17,399.04,15.98,399.04,12.71"/>
	<polygon class="st1" points="407.45,2.13 426.21,2.13 426.21,7.51 414.44,7.51 414.44,10.13 425.49,10.13 425.49,15.41 
		414.44,15.41 414.44,23.16 407.45,23.16 	"/>
	<polygon class="st1" points="449.5,10.37 458.66,23.16 450.37,23.16 444.93,15.15 442.97,17.18 442.97,23.16 436,23.16 436,2.13 
		442.97,2.13 442.97,9.1 443.02,9.1 449.26,2.13 457.43,2.13 	"/>
	<path class="st1" d="M478.42,12.66c0,6.81-2.93,10.89-10.54,10.89c-7.6,0-10.55-4.08-10.55-10.89c0-6.84,3.17-10.92,10.55-10.92
		C475.23,1.74,478.42,5.82,478.42,12.66 M471.57,12.71v-0.13c0-3.3-0.77-5.46-3.7-5.46s-3.68,2.16-3.68,5.46v0.13
		c0,3.28,0.73,5.46,3.68,5.46C470.78,18.17,471.57,15.98,471.57,12.71"/>
	<path class="st1" d="M479.99,2.13h11.85c6.65,0,8.73,3.77,8.73,6.84c0,2.81-1.28,4.76-3.43,5.9l5.61,8.29h-7.96l-4.45-7.07h-3.39
		v7.07h-6.97V2.13z M486.95,11.12h2.88c1.96,0,3.87,0.13,3.87-1.92c0-1.82-1.57-1.95-3.46-1.95h-3.29V11.12z"/>
	<polygon class="st1" points="503.58,2.13 522.33,2.13 522.33,7.51 510.55,7.51 510.55,10.13 521.6,10.13 521.6,15.15 510.55,15.15 
		510.55,17.75 522.67,17.75 522.67,23.16 503.58,23.16 	"/>
	<path class="st2" d="M539.52,20.38h-7.76l-1.09,2.78h-7.16l8.42-21.04h7.47l8.27,21.04h-7.13L539.52,20.38z M533.81,15.08h3.8
		l-1.79-4.97h-0.07L533.81,15.08z"/>
</g>
</svg>
