<?xml version="1.0" encoding="utf-8"?>
<!-- Generator: Adobe Illustrator 23.0.6, SVG Export Plug-In . SVG Version: 6.00 Build 0)  -->
<svg version="1.1" id="레이어_1" xmlns="http://www.w3.org/2000/svg" xmlns:xlink="http://www.w3.org/1999/xlink" x="0px"
	 y="0px" viewBox="0 0 117.32 25.29" style="enable-background:new 0 0 117.32 25.29;" xml:space="preserve">
<style type="text/css">
	.st0{fill:#0047BA;}
	.st1{fill:#231815;}
	.st2{fill:#F32735;}
</style>
<g>
	<path class="st0" d="M3.41,2.15h12.33c6.12,0,7.3,2.76,7.3,5.25c0,2.11-1.14,3.43-2.85,4.11c2.06,0.49,3.99,2.18,3.99,5.3
		c0,4.19-2.83,6.37-8,6.37H3.41V2.15z M10.23,10.08h3.7c1.55,0,2.42-0.1,2.42-1.46c0-1.17-0.94-1.22-2.42-1.22h-3.7V10.08z
		 M10.23,17.91h4.16c1.74,0,2.78-0.13,2.78-1.74c0-1.27-0.87-1.64-2.51-1.64h-4.43V17.91z"/>
	<path class="st1" d="M46.33,14.95c0,5.85-3.24,8.61-10.09,8.61c-6.85,0-10.13-2.76-10.13-8.61V2.15h6.84v11.36
		c0,2.11-0.02,4.81,3.34,4.81c3.22,0,3.22-2.7,3.22-4.81V2.15h6.82V14.95z"/>
	<path class="st1" d="M58.52,18.82c1.06,0,2.73-0.23,2.73-1.77c0-1.17-0.8-1.35-3.77-2.13c-0.29-0.08-0.61-0.18-0.97-0.26
		c-3.63-0.96-8.01-1.98-8.01-6.03c0-5.23,4.47-6.89,9.19-6.89c4.93,0,9.48,1.77,9.51,6.94h-6.77c0.15-1.66-1.45-2.26-2.76-2.26
		c-0.89,0-2.37,0.21-2.37,1.38c0,1.07,1.96,1.48,4.16,2l2.25,0.57c3.17,0.78,6.7,2.29,6.7,6.01c0,5.43-5.42,7.18-10.52,7.18
		c-2.54,0-9.99-0.86-9.99-7.51h7.16C55.06,18.3,56.56,18.82,58.52,18.82"/>
	<path class="st1" d="M84.05,20.41h-7.76l-1.09,2.78h-7.16l8.42-21.04h7.47l8.27,21.04h-7.13L84.05,20.41z M78.34,15.1h3.8
		l-1.79-4.97h-0.07L78.34,15.1z"/>
	<polygon class="st2" points="93.04,2.15 100.32,2.15 107.07,13.39 107.17,13.39 107.17,2.15 113.92,2.15 113.92,23.19 
		106.95,23.19 99.91,11.67 99.77,11.67 99.77,23.19 93.04,23.19 	"/>
</g>
</svg>
