<?xml version="1.0" encoding="utf-8"?>
<!-- Generator: Adobe Illustrator 23.0.6, SVG Export Plug-In . SVG Version: 6.00 Build 0)  -->
<svg version="1.1" id="레이어_1" xmlns="http://www.w3.org/2000/svg" xmlns:xlink="http://www.w3.org/1999/xlink" x="0px"
	 y="0px" viewBox="0 0 216.79 70" style="enable-background:new 0 0 216.79 70;" xml:space="preserve">
<style type="text/css">
	.st0{fill:#FFFFFF;}
	.st1{fill:#E60012;}
	.st2{stroke:#0A161E;stroke-width:0.9464;stroke-miterlimit:10;}
</style>
<g>
	<g>
		<path d="M51.69,30.55l-7.12-4.28c0,0-0.55-1.59-1.62-3.29c0.51-0.89,0.85-1.94,0.85-3.07c0-1.91-1.19-4.02-2.35-6.06
			c-0.64-1.14-1.2-2.14-1.53-3.11c-0.24-0.78-0.44-1.67-0.44-2.16c0-0.5,0.07-0.85-0.37-0.94c-0.56-0.12-1.71,1.1-2.17,3.23h0
			c-0.1,0.38-0.17,0.87-0.17,1.55c0,0.9,0.17,1.95,0.35,3.05c0.06,0.36,0.13,0.73,0.18,1.09c-4.59-4.59-9.67-6.55-9.67-6.55v2.79
			c-4.05-0.97-7.48,0.01-7.48,0.01l1.92,1.92c-1.51,0.5-3.17,1.42-4.13,2.13c0.06-0.45,0.14-0.92,0.22-1.37
			c0.18-1.11,0.35-2.15,0.35-3.05c0-0.68-0.07-1.17-0.17-1.55h0v-0.01c-0.47-2.12-1.61-3.34-2.17-3.22
			c-0.44,0.08-0.37,0.44-0.37,0.94c0,0.48-0.11,1.23-0.4,2l0,0.01c-0.32,1.02-0.9,2.06-1.57,3.25c-1.16,2.04-2.34,4.15-2.34,6.06
			c0,1.13,0.33,2.16,0.83,3.04c-1,1.62-1.6,3.33-1.6,3.33l-7.12,4.28c-0.47,0.27-0.28,0.97,0.26,0.97h5.26c0,0-1.07,5.02,0.3,11.4
			c0.53-1.17,1.31-2.2,2.29-3c-0.07,0.75-0.05,1.85-0.05,2.61c0,4.52,2.95,8.85,2.95,11.6c0.98-0.8,1.76-1.82,2.29-2.99
			c2.51,4.72,5.96,8.64,10.75,11.21v-5.61c1.22,1,2.21,2.29,2.86,3.74c3.49-2.47,5.9-5.6,7.89-9.35c0.52,1.17,1.31,2.19,2.29,2.99
			c0-2.75,2.95-7.08,2.95-11.6c0-0.76,0.02-1.86-0.05-2.61c1.72,1.5,2.24,2.85,2.28,2.98c1.35-5.74,0.3-11.39,0.3-11.39h5.27
			C51.97,31.52,52.16,30.81,51.69,30.55z M27.62,49.74l-2.33-0.01c-2.59,0-4.68-2.1-4.68-4.68c0-0.66,0.14-1.28,0.38-1.85
			l-1.22-6.95c-1.21-1.03-1.97-2.56-1.97-4.27v-4.65c0,1.54-1.24,2.79-2.78,2.79H7.05c0,0,9.35-5.61,9.35-5.62
			c-1.17,0-3.5-2-3.5-4.58c0-2.76,3.61-6.97,3.85-9.11l0.01-0.2c0.05,0.07,0.35,0.54,0.35,1.83c0,1.4-0.53,3.46-0.69,5.32
			c-0.16,1.79,1.06,3.16,3.95,3.95c2.84,0.77,7.26,0.91,7.26,0.89V49.74z M32.93,46.15c-0.43,0.43-0.87,1.09-1.17,1.8
			c0,0-0.63-0.64-0.3-1.62c0.34-0.99,0.76-1.45,1.2-1.45S33.38,45.7,32.93,46.15z M33.66,35.63c-1.43,0.39-2.29-0.62-2.29-0.62
			l4.68-3.11C36.09,33.29,35.09,35.24,33.66,35.63z"/>
		<path d="M22.61,44.88c-0.44,0-0.72,0.81-0.27,1.27c0.43,0.43,0.87,1.09,1.17,1.8c0,0,0.63-0.64,0.29-1.62
			C23.46,45.34,23.05,44.88,22.61,44.88z"/>
		<path d="M21.61,35.63c1.44,0.39,2.29-0.62,2.29-0.62l-4.68-3.11C19.18,33.29,20.18,35.24,21.61,35.63z"/>
		<path d="M207.51,28.19c0-1.52,1.24-2.77,2.77-2.77c1.53,0,2.77,1.24,2.77,2.77c0,1.53-1.25,2.78-2.77,2.78
			C208.76,30.96,207.51,29.72,207.51,28.19 M207.11,28.19c0,1.76,1.42,3.18,3.17,3.18c1.75,0,3.18-1.42,3.18-3.18
			c0-1.75-1.42-3.17-3.18-3.17C208.54,25.01,207.11,26.43,207.11,28.19"/>
		<path d="M209.35,30.03v-1.66h0.57c0.13,0,0.22,0,0.27,0.01c0.08,0.02,0.15,0.06,0.22,0.11c0.08,0.05,0.16,0.13,0.26,0.24
			c0.09,0.12,0.21,0.29,0.35,0.52l0.49,0.78h0.62l-0.64-1.01c-0.13-0.2-0.26-0.37-0.41-0.5c-0.06-0.06-0.17-0.12-0.29-0.18
			c0.35-0.05,0.61-0.17,0.79-0.35c0.17-0.18,0.25-0.4,0.25-0.67c0-0.21-0.05-0.4-0.15-0.56c-0.1-0.17-0.24-0.29-0.41-0.36
			c-0.17-0.06-0.42-0.1-0.75-0.1h-1.65v3.74H209.35z M209.35,26.71h1.17c0.28,0,0.47,0.06,0.61,0.17c0.13,0.11,0.19,0.26,0.19,0.43
			c0,0.12-0.03,0.23-0.09,0.33c-0.07,0.1-0.16,0.17-0.29,0.23c-0.12,0.04-0.3,0.07-0.52,0.07h-1.06V26.71z"/>
		<polygon points="140.36,34.23 147.44,25.18 141.35,25.18 134.38,34.08 134.38,25.18 128.56,25.18 128.56,44.67 134.38,44.67 
			134.38,35.42 140.8,44.67 147.7,44.67 		"/>
		<path d="M121.84,40.7c-3.84-0.64-4.86-3.81-4.86-5.7h0c0-1.9,1.01-5.07,4.86-5.7c2.47-0.42,4.94,1.06,5.12,1.13v-4.23
			c-1.18-0.57-3.15-1.39-6.47-1.23c-3.18,0.16-9.33,1.99-9.33,10.03v0.1c0.31,8.05,5.73,9.66,9.33,9.91
			c3.34,0.24,5.29-0.66,6.48-1.23v-4.23C126.77,39.64,124.31,41.11,121.84,40.7"/>
		<polygon points="163.85,25.2 159.72,31.65 155.6,25.2 149.68,25.2 156.64,36.4 156.64,44.68 156.89,44.68 162.56,44.68 
			162.8,44.68 162.8,36.39 169.77,25.2 		"/>
		<polygon points="187.5,25.18 193.32,25.18 193.32,34.08 200.36,25.18 206.38,25.18 199.3,34.23 206.64,44.67 199.7,44.67 
			193.32,35.42 193.32,44.67 187.5,44.67 		"/>
		<path d="M67.38,41.17h-3.39v-4.69h3.39c1.3,0,2.35,1.05,2.35,2.34C69.73,40.13,68.68,41.17,67.38,41.17 M63.99,28.67h3.14
			c1.2,0,2.18,0.96,2.18,2.16c0,1.2-0.97,2.17-2.18,2.17h-3.14V28.67z M71.72,34.02l-0.17-0.07l0.17-0.09
			c1.77-0.88,2.64-2.2,2.64-4.02c0-1.09-0.4-4.66-5.57-4.66H58.16v19.49h12.01c3.05,0,5.17-2.27,5.17-5.51
			C75.35,36.63,74.24,35.05,71.72,34.02"/>
		<path d="M98.75,25.18h6.18l7.77,19.49h-5.69l-5.08-13.43c-0.07-0.17-0.15-0.08-0.17-0.02L96.7,44.67h-5.63L98.75,25.18z"/>
		<path d="M172.72,25.18h6.18l7.77,19.49h-5.68l-5.07-13.43c-0.07-0.17-0.15-0.08-0.17-0.02l-5.07,13.45h-5.64L172.72,25.18z"/>
		<polygon points="90.34,40.42 82.28,40.42 82.28,25.18 76.45,25.18 76.45,44.67 90.34,44.67 		"/>
	</g>
</g>
</svg>
