<?xml version="1.0" encoding="utf-8"?>
<!-- Generator: Adobe Illustrator 23.0.6, SVG Export Plug-In . SVG Version: 6.00 Build 0)  -->
<svg version="1.1" xmlns="http://www.w3.org/2000/svg" xmlns:xlink="http://www.w3.org/1999/xlink" x="0px" y="0px"
	 viewBox="0 0 487.58 102.66" style="enable-background:new 0 0 487.58 102.66;" xml:space="preserve">
<style type="text/css">
	.st0{fill:none;}
	.st1{fill:none;stroke:#4F4C4B;stroke-width:0.75;stroke-miterlimit:10;}
	.st2{fill:none;stroke:#4F4C4B;stroke-width:0.25;stroke-miterlimit:10;}
	.st3{fill:#4F4C4B;}
	.st4{fill:#727171;}
	.st5{fill:#9FA0A0;}
	.st6{fill:#005EAD;}
</style>
<g id="Guides_For_Artboard">
</g>
<g id="Layer_1">
	<rect x="-971.76" y="250.33" class="st0" width="841.89" height="595.28"/>
	<line class="st1" x1="-915.06" y1="292.85" x2="-686.44" y2="292.85"/>
	<line class="st2" x1="-915.06" y1="335.37" x2="-686.44" y2="335.37"/>
	<line class="st1" x1="-672.27" y1="292.85" x2="-158.21" y2="292.85"/>
	<line class="st2" x1="-672.27" y1="335.37" x2="-158.21" y2="335.37"/>
	<g>
		<path class="st3" d="M-912.96,359.38v-1.24h2.56v-11.06h-2.56V346l4.1-0.54v12.68h2.42v1.24H-912.96z"/>
		<path class="st3" d="M-904.24,354.14v-1.5h5.1v1.5H-904.24z"/>
		<path class="st3" d="M-893.02,359.62h-0.9c-2.26,0-3.36-0.92-3.36-3.24v-7.56c0-2.32,1.1-3.24,3.36-3.24h0.9
			c2.22,0,3.42,0.88,3.42,3.18v7.68C-889.6,358.74-890.8,359.62-893.02,359.62z M-891.12,348.66c0-1.2-0.34-1.88-1.64-1.88h-1.36
			c-1.3,0-1.64,0.66-1.64,1.86v7.92c0,1.2,0.34,1.86,1.64,1.86h1.36c1.3,0,1.64-0.7,1.64-1.9V348.66z"/>
		<path class="st3" d="M-882.72,359.62h-1.06c-1.86,0-3.26-0.72-3.26-3.02v-1.52c0-1.18,0.74-2.38,2.16-2.6v-0.04
			c-1.38-0.34-2.02-1.2-2.02-2.86v-0.94c0-2.16,1.1-3.06,3.18-3.06h0.94c2.14,0,3.3,0.92,3.3,3.06v0.94c0,1.62-0.64,2.44-2.18,2.84
			v0.06c1.5,0.22,2.3,1.42,2.3,2.6v1.52C-879.36,358.9-880.82,359.62-882.72,359.62z M-880.88,355.1c0-1.52-0.54-2-1.9-2h-1.04
			c-1.04,0-1.72,0.5-1.72,2v1.24c0,1.46,0.32,2.08,1.7,2.08h1.3c1.34,0,1.66-0.64,1.66-2.08V355.1z M-880.94,348.48
			c0-1.04-0.34-1.76-1.7-1.76h-1.18c-1.38,0-1.62,0.8-1.62,1.76V350c0,1.2,0.76,1.88,1.62,1.88h1.04c1.2,0,1.84-0.58,1.84-1.88
			V348.48z"/>
	</g>
	<line class="st1" x1="-915.06" y1="817.27" x2="-158.21" y2="817.27"/>
	<g>
		<g>
			<path class="st3" d="M-166.48,307.64v-0.56h1.15v-4.98h-1.15v-0.49l1.85-0.24v5.71h1.09v0.56H-166.48z"/>
			<path class="st3" d="M-160.3,307.75h-0.48c-0.84,0-1.47-0.32-1.47-1.36v-0.68c0-0.53,0.33-1.07,0.97-1.17v-0.02
				c-0.62-0.15-0.91-0.54-0.91-1.29v-0.42c0-0.97,0.5-1.38,1.43-1.38h0.42c0.96,0,1.49,0.41,1.49,1.38v0.42
				c0,0.73-0.29,1.1-0.98,1.28v0.03c0.68,0.1,1.04,0.64,1.04,1.17v0.68C-158.79,307.43-159.44,307.75-160.3,307.75z M-159.47,305.72
				c0-0.68-0.24-0.9-0.86-0.9h-0.47c-0.47,0-0.77,0.23-0.77,0.9v0.56c0,0.66,0.14,0.94,0.76,0.94h0.59c0.6,0,0.75-0.29,0.75-0.94
				V305.72z M-159.5,302.74c0-0.47-0.15-0.79-0.77-0.79h-0.53c-0.62,0-0.73,0.36-0.73,0.79v0.68c0,0.54,0.34,0.85,0.73,0.85h0.47
				c0.54,0,0.83-0.26,0.83-0.85V302.74z"/>
		</g>
	</g>
	<g>
		<g>
			<path class="st3" d="M-669.81,307.72h-0.81c-0.41,0-0.99-0.03-1.24-0.29v-0.77h1.95c0.28,0,0.4-0.14,0.4-0.41v-0.75
				c0-0.32-0.05-0.39-0.42-0.43l-0.7-0.09c-0.95-0.12-1.24-0.41-1.24-1.3v-0.86c0-0.89,0.47-1.48,1.71-1.48h0.45
				c0.41,0,0.93,0.04,1.22,0.27v0.79h-1.76c-0.31,0-0.41,0.12-0.41,0.44v0.59c0,0.32,0.19,0.34,0.49,0.38l0.8,0.11
				c0.9,0.13,1.13,0.43,1.13,1.22v1.18C-668.24,307.26-668.64,307.72-669.81,307.72z"/>
			<path class="st3" d="M-667.31,302.16v-1.11h1.28v1.11H-667.31z M-667.31,307.64v-4.75h1.28v4.75H-667.31z"/>
			<path class="st3" d="M-663.08,309.56h-0.75c-0.42,0-0.77-0.09-1.11-0.23v-0.69h1.72c0.31,0,0.61-0.07,0.61-0.44v-1.11
				c-0.26,0.32-0.66,0.49-0.94,0.49h-0.33c-0.9,0-1.14-0.5-1.14-1.19v-2.35c0-0.83,0.43-1.26,1.22-1.26h0.36
				c0.62,0,0.87,0.23,1.02,0.46l0.07-0.35h1.04v5.15C-661.32,309.2-661.98,309.56-663.08,309.56z M-662.61,303.86
				c-0.13-0.05-0.37-0.1-0.62-0.1h-0.14c-0.2,0-0.37,0.05-0.37,0.35v2.08c0,0.3,0.05,0.42,0.37,0.42h0.13
				c0.28,0,0.42-0.03,0.64-0.08V303.86z"/>
			<path class="st3" d="M-657.83,307.64v-3.54c0-0.24-0.12-0.33-0.38-0.33h-0.2c-0.2,0-0.42,0.04-0.56,0.08v3.79h-1.28v-4.75h1.15
				l0.07,0.52c0.27-0.52,0.72-0.63,0.97-0.63h0.41c0.83,0,1.09,0.49,1.09,1.05v3.81H-657.83z"/>
			<path class="st3" d="M-653.12,307.64l-0.09-0.5h-0.05c-0.17,0.38-0.5,0.61-0.99,0.61h-0.23c-0.88,0-1.28-0.54-1.28-1.2v-0.39
				c0-0.83,0.51-1.31,1.39-1.31h1.03v-0.79c0-0.22-0.04-0.36-0.41-0.36h-1.62v-0.73c0.26-0.12,0.77-0.19,1.28-0.19h0.59
				c0.91,0,1.44,0.43,1.44,1.27v2.25c0,0.6,0.05,0.86,0.09,1.34H-653.12z M-653.35,305.56h-0.68c-0.31,0-0.45,0.14-0.45,0.46v0.47
				c0,0.33,0.21,0.38,0.44,0.38h0.2c0.3,0,0.5-0.15,0.5-0.52V305.56z"/>
			<path class="st3" d="M-649.49,307.75c-0.71,0-1.31-0.19-1.31-1.11v-2.87h-0.61v-0.8h0.61v-1.26l1.28-0.14v1.4h1.01v0.8h-1.01
				v2.58c0,0.19,0.01,0.45,0.34,0.45h0.68v0.68C-648.78,307.7-649.17,307.75-649.49,307.75z"/>
			<path class="st3" d="M-645.33,307.64l-0.07-0.52c-0.27,0.52-0.72,0.63-0.97,0.63h-0.4c-0.83,0-1.09-0.49-1.09-1.05v-3.81h1.28
				v3.54c0,0.24,0.12,0.33,0.38,0.33h0.2c0.2,0,0.42-0.04,0.56-0.08v-3.79h1.28v4.75H-645.33z"/>
			<path class="st3" d="M-640.89,303.87c-0.23,0-0.64,0.07-0.93,0.17v3.6h-1.28v-4.75h1.15l0.07,0.52c0.2-0.35,0.46-0.61,1.07-0.61
				c0.23,0,0.31,0.03,0.4,0.04v1.04H-640.89z"/>
			<path class="st3" d="M-636.9,305.56h-1.67v0.76c0,0.35,0.13,0.52,0.46,0.52h1.74v0.65c-0.31,0.19-0.68,0.26-1.17,0.26h-0.61
				c-1.08,0-1.69-0.38-1.69-1.53v-1.97c0-1.07,0.61-1.47,1.52-1.47h0.47c0.91,0,1.61,0.23,1.61,1.24v1.4L-636.9,305.56z
				 M-637.42,304.09c0-0.34-0.14-0.42-0.46-0.42h-0.24c-0.33,0-0.44,0.13-0.44,0.46v0.68h1.14V304.09z"/>
		</g>
	</g>
	<g>
		<path class="st3" d="M-663.1,356.34c0,2-1.04,3.28-2.8,3.28h-2.76c-0.66,0-1.7-0.08-2.24-0.5v-0.88h4.68
			c1.44,0,1.58-0.9,1.58-2.04v-1.4c0-1-0.32-1.42-1.6-1.64l-1.74-0.32c-1.98-0.38-2.94-1.02-2.94-2.72v-1.82c0-1.5,0.56-3,3.28-3
			h1.66c0.66,0,1.7,0.08,2.24,0.5v0.9h-4.04c-1.26,0-1.62,0.6-1.62,1.46v1.54c0,1.32,1,1.52,1.9,1.68l1.56,0.3
			c1.98,0.38,2.84,1,2.84,2.7V356.34z"/>
		<path class="st3" d="M-657.26,359.62c-1.54,0-2.6-0.48-2.6-2.18v-7.02h-1.58v-1.14h1.58v-2.9l1.52-0.18v3.08h2.62v1.14h-2.62v6.76
			c0,0.5,0.04,1.22,1.02,1.22h1.88v0.84C-655.94,359.5-656.56,359.62-657.26,359.62z"/>
		<path class="st3" d="M-647.82,359.38l-0.12-1h-0.12c-0.34,0.7-1.02,1.24-2.3,1.24h-1.02c-1.54,0-2.52-1.06-2.52-2.5v-1.04
			c0-1.96,1.5-2.78,3.12-2.78h2.56v-1.82c0-1.16-0.42-1.36-1.48-1.36h-3.5v-0.94c0.6-0.32,1.74-0.44,2.44-0.44h1.34
			c1.66,0,2.72,0.58,2.72,2.6v5.74c0,1.16,0.1,1.64,0.2,2.3H-647.82z M-648.22,354.42h-2.3c-1.18,0-1.86,0.34-1.86,1.6v0.96
			c0,1.1,0.68,1.4,1.46,1.4h0.98c0.88,0,1.72-0.48,1.72-1.84V354.42z"/>
		<path class="st3" d="M-637.78,359.38v-8.24c0-0.9-0.54-1.02-1.2-1.02h-1.26c-0.82,0-1.38,0.2-1.7,0.34v8.92h-1.52v-10.4h1.44
			l0.06,0.78c0.62-0.64,1.5-1.02,2.44-1.02h0.78c1.34,0,2.48,0.58,2.48,2.32v8.32H-637.78z"/>
		<path class="st3" d="M-627.36,359.38l-0.1-0.8c-0.54,0.72-1.54,1.04-2.44,1.04h-0.32c-2.22,0-3.12-1.02-3.12-2.88v-4.98
			c0-2.08,1.26-3.02,2.94-3.02h0.68c0.8,0,1.8,0.26,2.22,0.88v-4.88h1.52v14.64H-627.36z M-627.5,350.44
			c-0.48-0.26-1.06-0.44-1.96-0.44h-0.88c-0.98,0-1.48,0.52-1.48,1.56v5.28c0,1.24,0.72,1.52,1.56,1.52h0.64
			c1.12,0,1.64-0.18,2.12-0.44V350.44z"/>
		<path class="st3" d="M-617.16,359.38l-0.12-1h-0.12c-0.34,0.7-1.02,1.24-2.3,1.24h-1.02c-1.54,0-2.52-1.06-2.52-2.5v-1.04
			c0-1.96,1.5-2.78,3.12-2.78h2.56v-1.82c0-1.16-0.42-1.36-1.48-1.36h-3.5v-0.94c0.6-0.32,1.74-0.44,2.44-0.44h1.34
			c1.66,0,2.72,0.58,2.72,2.6v5.74c0,1.16,0.1,1.64,0.2,2.3H-617.16z M-617.56,354.42h-2.3c-1.18,0-1.86,0.34-1.86,1.6v0.96
			c0,1.1,0.68,1.4,1.46,1.4h0.98c0.88,0,1.72-0.48,1.72-1.84V354.42z"/>
		<path class="st3" d="M-608.42,350.3c-1.5,0-2.08,0.24-2.78,0.5v8.58h-1.6v-10.4h1.46l0.1,0.86c0.7-0.56,1.7-0.98,2.64-0.98
			c0.3,0,0.7,0.02,1.1,0.08v1.36H-608.42z"/>
		<path class="st3" d="M-599.94,359.38l-0.1-0.8c-0.54,0.72-1.54,1.04-2.44,1.04h-0.32c-2.22,0-3.12-1.02-3.12-2.88v-4.98
			c0-2.08,1.26-3.02,2.94-3.02h0.68c0.8,0,1.8,0.26,2.22,0.88v-4.88h1.52v14.64H-599.94z M-600.08,350.44
			c-0.48-0.26-1.06-0.44-1.96-0.44h-0.88c-0.98,0-1.48,0.52-1.48,1.56v5.28c0,1.24,0.72,1.52,1.56,1.52h0.64
			c1.12,0,1.64-0.18,2.12-0.44V350.44z"/>
		<path class="st3" d="M-584.52,356.34c0,2-1.04,3.28-2.8,3.28h-2.76c-0.66,0-1.7-0.08-2.24-0.5v-0.88h4.68
			c1.44,0,1.58-0.9,1.58-2.04v-1.4c0-1-0.32-1.42-1.6-1.64l-1.74-0.32c-1.98-0.38-2.94-1.02-2.94-2.72v-1.82c0-1.5,0.56-3,3.28-3
			h1.66c0.66,0,1.7,0.08,2.24,0.5v0.9h-4.04c-1.26,0-1.62,0.6-1.62,1.46v1.54c0,1.32,1,1.52,1.9,1.68l1.56,0.3
			c1.98,0.38,2.84,1,2.84,2.7V356.34z"/>
		<path class="st3" d="M-581.71,346.68v-1.94h1.52v1.94H-581.71z M-581.71,359.38v-10.4h1.52v10.4H-581.71z"/>
		<path class="st3" d="M-573.31,363.78h-1.32c-0.86,0-1.8-0.12-2.26-0.46v-0.88h3.76c1.2,0,1.78-0.56,1.78-1.92v-2.32
			c-0.54,0.7-1.46,0.92-2.36,0.92h-0.44c-2.32,0-3.04-1.18-3.04-3.04v-4.3c0-2.08,1.3-3.04,2.96-3.04h0.86
			c0.66,0,1.56,0.16,2.18,0.78l0.2-0.54h1.16v11.42C-569.82,362.88-571.15,363.78-573.31,363.78z M-571.34,350.44
			c-0.48-0.26-1.06-0.44-1.96-0.44h-0.88c-0.98,0-1.48,0.52-1.48,1.56v4.76c0,1.24,0.72,1.52,1.56,1.52h0.64
			c1.12,0,1.64-0.18,2.12-0.44V350.44z"/>
		<path class="st3" d="M-560.78,359.38v-8.24c0-0.9-0.54-1.02-1.2-1.02h-1.26c-0.82,0-1.38,0.2-1.7,0.34v8.92h-1.52v-10.4h1.44
			l0.06,0.78c0.62-0.64,1.5-1.02,2.44-1.02h0.78c1.34,0,2.48,0.58,2.48,2.32v8.32H-560.78z"/>
		<path class="st3" d="M-550.52,359.38l-0.12-1h-0.12c-0.34,0.7-1.02,1.24-2.3,1.24h-1.02c-1.54,0-2.52-1.06-2.52-2.5v-1.04
			c0-1.96,1.5-2.78,3.12-2.78h2.56v-1.82c0-1.16-0.42-1.36-1.48-1.36h-3.5v-0.94c0.6-0.32,1.74-0.44,2.44-0.44h1.34
			c1.66,0,2.72,0.58,2.72,2.6v5.74c0,1.16,0.1,1.64,0.2,2.3H-550.52z M-550.93,354.42h-2.3c-1.18,0-1.86,0.34-1.86,1.6v0.96
			c0,1.1,0.68,1.4,1.46,1.4h0.98c0.88,0,1.72-0.48,1.72-1.84V354.42z"/>
		<path class="st3" d="M-543.15,359.62c-1.54,0-2.6-0.48-2.6-2.18v-7.02h-1.58v-1.14h1.58v-2.9l1.52-0.18v3.08h2.62v1.14h-2.62v6.76
			c0,0.5,0.04,1.22,1.02,1.22h1.88v0.84C-541.82,359.5-542.44,359.62-543.15,359.62z"/>
		<path class="st3" d="M-533.48,359.38l-0.06-0.78c-0.62,0.64-1.5,1.02-2.44,1.02h-0.78c-1.34,0-2.48-0.58-2.48-2.32v-8.32h1.52
			v8.24c0,0.9,0.54,1.02,1.2,1.02h1.26c0.82,0,1.38-0.2,1.7-0.34v-8.92h1.52v10.4H-533.48z"/>
		<path class="st3" d="M-524.31,350.3c-1.5,0-2.08,0.24-2.78,0.5v8.58h-1.6v-10.4h1.46l0.1,0.86c0.7-0.56,1.7-0.98,2.64-0.98
			c0.3,0,0.7,0.02,1.1,0.08v1.36H-524.31z"/>
		<path class="st3" d="M-515.73,354.42h-4.56v1.8c0,1.28,0.02,2.12,1.78,2.12h3.62v0.7c-0.42,0.34-1.22,0.58-2.08,0.58h-1.7
			c-1.86,0-3.14-0.78-3.14-3.3v-3.84c0-2.88,1.04-3.74,3.3-3.74h1.1c1.7,0,3.06,0.82,3.06,3.16v2.28L-515.73,354.42z M-515.84,351.7
			c0-1.18-0.52-1.76-1.58-1.76h-1.26c-1.26,0-1.6,0.72-1.6,2.02v1.34h4.44V351.7z"/>
	</g>
	<g>
		<g>
			<path class="st4" d="M-912.86,451.21v-1.74h0.57v1.7c0,0.62,0.05,0.88,0.47,1.38c0.31,0.37,0.77,0.85,1.35,1.39l-0.36,0.38
				c-0.49-0.48-0.92-0.92-1.23-1.26c-0.23-0.26-0.46-0.52-0.5-0.62h-0.01c-0.02,0.1-0.32,0.48-0.55,0.74
				c-0.27,0.3-0.78,0.84-1.24,1.26l-0.36-0.39c0.51-0.46,0.94-0.89,1.3-1.31C-912.93,452.15-912.86,451.84-912.86,451.21z
				 M-908.93,456.25h-0.55v-7.31h0.55V456.25z"/>
			<path class="st4" d="M-901.52,454.73v0.49h-6.52v-0.49H-901.52z M-903.4,453.94c0.2-1.04,0.3-1.9,0.3-3.03v-0.76h-4.11v-0.5h4.68
				v0.96c0,1.34-0.09,2.38-0.29,3.4L-903.4,453.94z"/>
			<path class="st4" d="M-900.12,453.73h1.02c0.75,0,1.52-0.05,2.37-0.2l0.07,0.5c-0.83,0.15-1.75,0.21-2.49,0.21h-1.51v-4.7h0.55
				V453.73z M-895.42,456.25h-0.55v-7.31h0.55V456.25z"/>
			<path class="st4" d="M-892.06,450.05h1.64v0.5h-1.64v0.83c0,0.61,0.05,0.86,0.46,1.35c0.3,0.36,0.76,0.83,1.34,1.36l-0.36,0.38
				c-0.54-0.51-0.91-0.9-1.22-1.25c-0.23-0.25-0.44-0.5-0.48-0.6h-0.01c-0.04,0.14-0.34,0.5-0.57,0.75
				c-0.21,0.22-0.73,0.79-1.2,1.21l-0.37-0.38c0.49-0.45,0.93-0.89,1.29-1.3c0.49-0.57,0.56-0.87,0.56-1.48v-0.87h-1.69v-0.5h1.69
				v-1.07h0.55V450.05z M-889.21,451.62v-2.69h0.55v7.31h-0.55v-4.11h-1.54v-0.51H-889.21z"/>
			<path class="st4" d="M-881.26,452.72v0.49h-6.52v-0.49H-881.26z M-886.27,455.66h4.19v0.5h-4.74v-2.18h0.55V455.66z
				 M-886.24,451.21h4.05v0.5h-4.61v-2.49h0.55V451.21z"/>
			<path class="st4" d="M-875.58,450.09l-0.28,0.44c-0.5-0.37-0.92-0.49-1.49-0.49c-1.03,0-1.6,0.82-1.6,2.03v0.74
				c0,1.42,0.62,2.11,1.65,2.11c0.7,0,1.17-0.26,1.54-0.59l0.32,0.44c-0.41,0.38-0.98,0.69-1.86,0.69c-1.45,0-2.2-0.98-2.2-2.65
				v-0.71c0-1.63,0.79-2.58,2.15-2.58C-876.6,449.51-876.04,449.72-875.58,450.09z"/>
			<path class="st4" d="M-874.78,449.6h0.54v5.77h-0.54V449.6z"/>
			<path class="st4" d="M-868.7,454.45c-1.28,0.14-2.38,0.18-4.75,0.18v-0.5c2.26,0,3.5-0.04,4.71-0.18L-868.7,454.45z
				 M-873.08,451.35v-0.38c0-0.87,0.84-1.54,1.85-1.54c1.01,0,1.85,0.68,1.85,1.54v0.38c0,0.86-0.84,1.54-1.85,1.54
				C-872.24,452.9-873.08,452.22-873.08,451.35z M-872.55,451v0.32c0,0.6,0.64,1.08,1.32,1.08s1.32-0.48,1.32-1.08V451
				c0-0.6-0.64-1.08-1.32-1.08S-872.55,450.4-872.55,451z M-867.65,456.25h-0.55v-7.31h0.55V456.25z"/>
			<path class="st4" d="M-864.09,449.83v-0.9h0.54v0.9h1.33v0.49h-3.32v-0.49H-864.09z M-865.27,452.09v-0.29
				c0-0.6,0.58-1.12,1.45-1.12c0.87,0,1.45,0.52,1.45,1.12v0.29c0,0.59-0.58,1.12-1.45,1.12
				C-864.68,453.21-865.27,452.68-865.27,452.09z M-864.77,451.83v0.22c0,0.37,0.38,0.69,0.96,0.69c0.57,0,0.96-0.32,0.96-0.69
				v-0.22c0-0.37-0.38-0.69-0.96-0.69C-864.39,451.14-864.77,451.46-864.77,451.83z M-864.18,453.85h4.62v2.46h-0.54v-1.97h-4.08
				V453.85z M-861.1,450.96h1.01v-2.02h0.54v4.48h-0.54v-1.95h-1.01v1.94h-0.54v-4.37h0.54V450.96z"/>
			<path class="st4" d="M-856.61,451.18c-0.02,0.14-0.26,0.38-0.61,0.72c-0.27,0.26-0.71,0.65-1.16,1.02l-0.34-0.4
				c0.42-0.33,0.92-0.74,1.27-1.1c0.49-0.5,0.54-0.7,0.54-1.31v-0.86h0.56v0.85c0,0.59,0.05,0.78,0.57,1.26
				c0.38,0.34,0.8,0.69,1.15,0.95l-0.33,0.39c-0.43-0.34-0.77-0.62-1.03-0.86C-856.36,451.53-856.57,451.31-856.61,451.18
				L-856.61,451.18z M-857.34,453.45h4.34v2.78h-4.34V453.45z M-856.81,455.73h3.28v-1.78h-3.28V455.73z M-852.99,453.02h-0.54
				v-4.08h0.54V453.02z"/>
			<path class="st4" d="M-851.75,451.34v-0.48c0-0.79,0.68-1.61,1.75-1.61c1.06,0,1.75,0.82,1.75,1.61v0.48
				c0,0.79-0.68,1.61-1.75,1.61C-851.07,452.95-851.75,452.14-851.75,451.34z M-851.22,450.91v0.38c0,0.6,0.5,1.15,1.22,1.15
				c0.72,0,1.22-0.55,1.22-1.15v-0.38c0-0.6-0.5-1.15-1.22-1.15C-850.72,449.76-851.22,450.31-851.22,450.91z M-850,455.66h3.97v0.5
				h-4.52v-2.39h0.55V455.66z M-846.21,454.17h-0.54v-5.23h0.54V454.17z"/>
			<path class="st4" d="M-841.81,451.18c-0.02,0.14-0.26,0.38-0.6,0.72c-0.27,0.26-0.72,0.65-1.17,1.02l-0.34-0.4
				c0.42-0.33,0.92-0.74,1.27-1.1c0.49-0.5,0.54-0.7,0.54-1.31v-0.86h0.56v0.85c0,0.59,0.05,0.78,0.57,1.26
				c0.38,0.34,0.8,0.69,1.15,0.95l-0.33,0.39c-0.43-0.34-0.77-0.62-1.03-0.86C-841.55,451.53-841.76,451.31-841.81,451.18
				L-841.81,451.18z M-842.53,453.45h4.34v2.78h-4.34V453.45z M-842,455.73h3.29v-1.78H-842V455.73z M-838.19,453.02h-0.54v-4.08
				h0.54V453.02z"/>
			<path class="st4" d="M-834.28,452.32v-0.71h-2.02v-2.59h0.54v0.88h3.51v-0.88h0.54v2.59h-2.02v0.71h2.99v0.48h-6.52v-0.48
				H-834.28z M-831.71,453.43v1.66h-4.05v0.72h4.26v0.47h-4.79v-1.65h4.05v-0.72h-4.08v-0.47H-831.71z M-835.76,451.13h3.51v-0.77
				h-3.51V451.13z"/>
			<path class="st4" d="M-826.88,449.61v4.69h-3.27v-4.69H-826.88z M-827.43,450.12h-2.18v3.67h2.18V450.12z M-825,451.65h1.18v0.5
				H-825v4.09h-0.55v-7.31h0.55V451.65z"/>
			<path class="st4" d="M-817.24,454.73v0.49h-6.52v-0.49H-817.24z M-818.76,451.72c0.01-0.22,0.02-0.43,0.02-0.66v-0.96h-4.16v-0.5
				h4.72v1.16c0,1.34-0.09,2.27-0.28,3.3l-0.57-0.06c0.11-0.62,0.19-1.19,0.24-1.8l-4.22,0.08l-0.02-0.5L-818.76,451.72z"/>
			<path class="st4" d="M-812.4,454.51c-1.28,0.14-2.21,0.18-4.59,0.18v-0.5c0.74,0,1.36,0,1.9-0.02v-1.39
				c-0.89-0.1-1.57-0.75-1.57-1.51v-0.38c0-0.84,0.82-1.53,1.83-1.53c1.02,0,1.83,0.7,1.83,1.53v0.38c0,0.75-0.67,1.39-1.55,1.51
				v1.38c0.8-0.03,1.43-0.07,2.1-0.15L-812.4,454.51z M-816.14,450.93v0.32c0,0.57,0.62,1.06,1.3,1.06c0.68,0,1.31-0.49,1.31-1.06
				v-0.32c0-0.57-0.62-1.06-1.31-1.06C-815.52,449.87-816.14,450.36-816.14,450.93z M-811.35,451.81h1.13v0.5h-1.13v3.93h-0.55
				v-7.31h0.55V451.81z"/>
			<path class="st4" d="M-909.25,462.51v2.17h-4.04v1.18h4.2v0.49h-2.17v1.38h2.99v0.49h-6.52v-0.49h2.99v-1.38h-2.03v-2.15h4.04
				V463h-4.06v-0.49H-909.25z"/>
			<path class="st4" d="M-905.56,467.73v-2.81h0.56v2.81h3.49v0.49h-6.52v-0.49H-905.56z M-903.34,466.72
				c0.18-0.98,0.28-1.86,0.28-2.93v-0.66h-4.16v-0.5h4.72v0.86c0,1.34-0.09,2.27-0.27,3.3L-903.34,466.72z"/>
			<path class="st4" d="M-897.65,462.53v0.5h-2.69v1.63h2.53v0.5h-2.53v1.69h0.99c0.72,0,1.52-0.04,2.35-0.17l0.06,0.5
				c-0.83,0.14-1.73,0.18-2.56,0.18h-1.41v-4.85H-897.65z M-895.77,464.68h1.18v0.5h-1.18v4.06h-0.55v-7.31h0.55V464.68z"/>
			<path class="st4" d="M-894.2,463.66c0-0.74,0.7-1.45,1.73-1.45c1.03,0,1.73,0.72,1.73,1.45v0.38c0,0.74-0.7,1.46-1.73,1.46
				c-1.03,0-1.73-0.72-1.73-1.46V463.66z M-891.27,463.72c0-0.53-0.51-1.01-1.2-1.01c-0.69,0-1.2,0.48-1.2,1.01v0.27
				c0,0.53,0.51,1.01,1.2,1.01c0.69,0,1.2-0.48,1.2-1.01V463.72z M-888.67,466.1v3.13h-4.33v-3.13h0.54v1.01h3.26v-1.01H-888.67z
				 M-889.21,468.73v-1.13h-3.26v1.13H-889.21z M-888.67,465.67h-0.54v-3.73h0.54V465.67z"/>
			<path class="st4" d="M-881.26,465.21v0.48h-6.52v-0.48H-881.26z M-882.23,466.33v1.7h-4.04v0.78h4.25v0.47h-4.78v-1.71h4.04
				v-0.77h-4.08v-0.47H-882.23z M-882.3,463.46c0,0.75-0.97,1.21-2.22,1.21c-1.25,0-2.22-0.46-2.22-1.21v-0.24
				c0-0.76,0.97-1.21,2.22-1.21c1.25,0,2.22,0.46,2.22,1.21V463.46z M-886.21,463.43c0,0.43,0.75,0.76,1.69,0.76
				c0.93,0,1.69-0.33,1.69-0.76v-0.19c0-0.43-0.75-0.76-1.69-0.76c-0.93,0-1.69,0.33-1.69,0.76V463.43z"/>
			<path class="st4" d="M-879.41,463.9v-0.35c0-0.78,0.72-1.46,1.73-1.46c1.02,0,1.73,0.68,1.73,1.46v0.35
				c0,0.78-0.71,1.46-1.73,1.46C-878.69,465.35-879.41,464.67-879.41,463.9z M-878.88,463.59v0.26c0,0.54,0.5,1,1.2,1
				c0.71,0,1.2-0.46,1.2-1v-0.26c0-0.54-0.5-1-1.2-1C-878.37,462.59-878.88,463.05-878.88,463.59z M-873.88,465.97v1.89h-3.81v0.94
				h3.99v0.48h-4.53v-1.89h3.81v-0.93h-3.85v-0.49H-873.88z M-873.88,465.54h-0.54v-3.6h0.54V465.54z"/>
			<path class="st4" d="M-870.7,464.53c-0.03,0.12-0.28,0.38-0.61,0.68c-0.27,0.25-0.8,0.68-1.16,0.94l-0.33-0.4
				c0.46-0.34,0.95-0.73,1.34-1.11c0.38-0.38,0.47-0.66,0.47-1.1v-0.66h-1.6v-0.49h3.67v0.49h-1.52v0.63c0,0.47,0.05,0.69,0.56,1.14
				c0.25,0.22,0.68,0.55,1.13,0.86l-0.32,0.4c-0.31-0.22-0.68-0.51-0.92-0.7C-870.35,464.9-870.66,464.63-870.7,464.53
				L-870.7,464.53z M-867.04,467.77v0.31c0,0.84-0.99,1.36-2.15,1.36c-1.16,0-2.15-0.52-2.15-1.36v-0.31c0-0.86,0.99-1.35,2.15-1.35
				C-868.03,466.42-867.04,466.93-867.04,467.77z M-867.57,468.06v-0.27c0-0.57-0.79-0.9-1.62-0.9c-0.83,0-1.62,0.33-1.62,0.9v0.27
				c0,0.57,0.79,0.9,1.62,0.9C-868.36,468.96-867.57,468.63-867.57,468.06z M-867.08,466.25h-0.54v-1.94h-1.48v-0.5h1.48v-1.87h0.54
				V466.25z"/>
			<path class="st4" d="M-863.84,462.8h1.78v0.49h-4.08v-0.49h1.76v-0.94h0.54V462.8z M-862.48,465.27c0,0.66-0.62,1.29-1.63,1.29
				c-1.01,0-1.63-0.62-1.63-1.29v-0.3c0-0.66,0.62-1.29,1.63-1.29c1.01,0,1.63,0.62,1.63,1.29V465.27z M-863,465.25v-0.26
				c0-0.39-0.42-0.83-1.11-0.83c-0.69,0-1.11,0.44-1.11,0.83v0.26c0,0.39,0.42,0.83,1.11,0.83C-863.42,466.08-863,465.64-863,465.25
				z M-864.33,468.66h3.9v0.5h-4.45v-2.02h0.55V468.66z M-860.64,464.17h1.09v0.5h-1.09v2.59h-0.54v-5.32h0.54V464.17z"/>
			<path class="st4" d="M-857.81,467.13c2.39-1.41,2.66-1.88,2.66-3.07v-0.92h-2.58v-0.51h3.11v1.44c0,1.46-0.38,2-2.91,3.52
				L-857.81,467.13z M-852.33,469.25h-0.55v-7.31h0.55V469.25z"/>
			<path class="st4" d="M-844.9,465.61v0.48h-2.91v1.57h-0.54v-1.57h-3.07v-0.48H-844.9z M-849.09,464.46
				c-0.44,0.19-0.88,0.36-1.57,0.6l-0.22-0.44c0.71-0.24,1.24-0.44,1.62-0.62c0.64-0.29,0.82-0.51,0.82-0.93v-0.32h-2.13v-0.48h4.82
				v0.48h-2.14v0.32c0,0.42,0.17,0.65,0.81,0.93c0.38,0.17,0.97,0.39,1.62,0.61l-0.2,0.44c-0.64-0.22-1.17-0.42-1.58-0.6
				c-0.48-0.2-0.84-0.41-0.92-0.58h-0.01C-848.25,464.05-848.61,464.25-849.09,464.46z M-849.91,468.66h4.19v0.5h-4.75v-2.21h0.55
				V468.66z"/>
			<path class="st4" d="M-840.93,465.32c0,1.34-0.65,2.12-1.75,2.12c-1.09,0-1.75-0.78-1.75-2.12v-0.75c0-1.33,0.65-2.11,1.75-2.11
				c1.1,0,1.75,0.79,1.75,2.12V465.32z M-841.46,464.67c0-1.21-0.48-1.69-1.21-1.69c-0.73,0-1.21,0.47-1.21,1.69v0.55
				c0,1.22,0.48,1.7,1.21,1.7c0.73,0,1.21-0.48,1.21-1.7V464.67z M-839.16,464.68h1.18v0.5h-1.18v4.06h-0.55v-7.31h0.55V464.68z"/>
			<path class="st4" d="M-837.06,466.85h0.54c0.67,0,1.24-0.02,2.03-0.14l0.06,0.5c-0.81,0.13-1.52,0.14-2.2,0.14h-0.97v-2.69h2.05
				v-1.59h-2.05v-0.49h2.59v2.57h-2.05V466.85z M-833.38,464.65h0.99v-2.71h0.54v7.31h-0.54v-4.09h-0.99v3.73h-0.54v-6.8h0.54
				V464.65z"/>
			<path class="st4" d="M-827.81,464.34c-0.02,0.14-0.26,0.38-0.61,0.72c-0.27,0.26-0.73,0.66-1.16,1.02l-0.34-0.41
				c0.42-0.32,0.91-0.74,1.26-1.1c0.49-0.5,0.54-0.71,0.54-1.31v-1h0.56v0.98c0,0.59,0.05,0.78,0.57,1.26
				c0.38,0.34,0.79,0.68,1.13,0.94l-0.33,0.39c-0.41-0.32-0.75-0.61-1.02-0.84C-827.55,464.69-827.76,464.47-827.81,464.34
				L-827.81,464.34z M-824.28,467.77v0.3c0,0.84-0.95,1.37-2.11,1.37c-1.17,0-2.11-0.53-2.11-1.37v-0.3c0-0.86,0.95-1.37,2.11-1.37
				C-825.23,466.4-824.28,466.93-824.28,467.77z M-824.81,468.05v-0.26c0-0.57-0.75-0.91-1.58-0.91c-0.83,0-1.58,0.34-1.58,0.91
				v0.26c0,0.57,0.75,0.91,1.58,0.91C-825.56,468.96-824.81,468.61-824.81,468.05z M-824.32,463.79h1.09v0.5h-1.09v1.96h-0.54v-4.3
				h0.54V463.79z"/>
			<path class="st4" d="M-821.29,463.09v-1.11h0.55v1.11h1.77v0.5h-4.12v-0.5H-821.29z M-822.69,466.06v-0.43
				c0-0.74,0.6-1.52,1.68-1.52c1.07,0,1.68,0.78,1.68,1.52v0.43c0,0.74-0.61,1.51-1.68,1.51
				C-822.09,467.57-822.69,466.8-822.69,466.06z M-822.17,465.67v0.34c0,0.6,0.46,1.06,1.16,1.06c0.7,0,1.16-0.46,1.16-1.06v-0.34
				c0-0.6-0.46-1.06-1.16-1.06C-821.72,464.61-822.17,465.07-822.17,465.67z M-817.58,464.93h1.18v0.5h-1.18v3.81h-0.55v-7.31h0.55
				V464.93z"/>
			<path class="st4" d="M-815.94,467.76h0.68l-0.56,1.8h-0.45L-815.94,467.76z"/>
			<path class="st4" d="M-912.27,480.14c0.78-0.02,1.39-0.07,2.04-0.14l0.05,0.49c-1.28,0.14-2.21,0.18-4.59,0.18v-0.5
				c0.77,0,1.4,0,1.95-0.02v-1.36h0.55V480.14z M-912.53,477.43c-0.04,0.13-0.2,0.3-0.61,0.67c-0.26,0.24-0.72,0.62-1.25,1
				l-0.32-0.42c0.54-0.38,1.05-0.79,1.31-1.04c0.51-0.49,0.57-0.73,0.57-1.21v-0.39h-1.57v-0.5h3.68v0.5h-1.56v0.38
				c0,0.52,0.08,0.73,0.57,1.15c0.28,0.24,0.83,0.66,1.23,0.93l-0.3,0.4c-0.26-0.19-0.81-0.59-1.03-0.78
				C-912.23,477.78-912.48,477.55-912.53,477.43L-912.53,477.43z M-909.13,477.78h1.13v0.5h-1.13v3.96h-0.55v-7.31h0.55V477.78z"/>
			<path class="st4" d="M-901.52,479.25v0.49h-2.98v2.51h-0.55v-2.51h-2.99v-0.49H-901.52z M-907.11,476.62
				c0-0.97,1.19-1.5,2.34-1.5c1.15,0,2.34,0.53,2.34,1.5v0.37c0,0.97-1.19,1.5-2.34,1.5c-1.15,0-2.34-0.53-2.34-1.5V476.62z
				 M-902.98,476.66c0-0.65-0.83-1.03-1.79-1.03c-0.96,0-1.8,0.38-1.8,1.03v0.27c0,0.65,0.83,1.03,1.8,1.03
				c0.96,0,1.79-0.38,1.79-1.03V476.66z"/>
			<path class="st4" d="M-895.75,475.51v2.17h-4.04v1.18h4.2v0.49h-2.17v1.38h2.99v0.49h-6.52v-0.49h2.99v-1.38h-2.03v-2.15h4.04
				V476h-4.06v-0.49H-895.75z"/>
			<path class="st4" d="M-890.25,480.73v-1.68h0.56v1.68h2.98v0.49h-6.52v-0.49H-890.25z M-892.42,475.59h4.89v0.49h-2.17v0.28
				c0,0.82,0.15,1.01,0.89,1.52c0.36,0.24,0.96,0.6,1.62,0.94l-0.28,0.42c-0.54-0.29-1.18-0.66-1.64-0.97
				c-0.53-0.36-0.79-0.57-0.86-0.72h-0.01c-0.06,0.15-0.33,0.37-0.86,0.73c-0.46,0.3-1.1,0.69-1.65,0.98l-0.29-0.44
				c0.65-0.34,1.27-0.7,1.63-0.94c0.75-0.51,0.89-0.7,0.89-1.52v-0.28h-2.17V475.59z"/>
			<path class="st4" d="M-884.09,475.75h1.78v0.49h-4.09v-0.49h1.76v-0.92h0.54V475.75z M-885.98,477.96v-0.24
				c0-0.56,0.53-1.14,1.62-1.14c1.09,0,1.62,0.58,1.62,1.14v0.24c0,0.56-0.53,1.14-1.62,1.14
				C-885.46,479.1-885.98,478.52-885.98,477.96z M-885.46,477.75v0.18c0,0.32,0.35,0.7,1.1,0.7c0.74,0,1.09-0.38,1.09-0.7v-0.18
				c0-0.32-0.35-0.7-1.09-0.7C-885.11,477.06-885.46,477.43-885.46,477.75z M-880.9,479.48v2.77h-4.26v-2.77h0.54v0.86h3.18v-0.86
				H-880.9z M-881.43,481.74v-0.91h-3.18v0.91H-881.43z M-880.9,476.75h1.09v0.5h-1.09v1.8h-0.54v-4.11h0.54V476.75z"/>
			<path class="st4" d="M-877.34,475.8h1.78v0.49h-4.09v-0.49h1.76v-0.94h0.54V475.8z M-875.98,478.27c0,0.66-0.62,1.29-1.63,1.29
				c-1.01,0-1.63-0.62-1.63-1.29v-0.3c0-0.66,0.62-1.29,1.63-1.29c1.01,0,1.63,0.62,1.63,1.29V478.27z M-876.5,478.25v-0.26
				c0-0.39-0.42-0.83-1.11-0.83c-0.69,0-1.11,0.44-1.11,0.83v0.26c0,0.39,0.42,0.83,1.11,0.83
				C-876.92,479.08-876.5,478.64-876.5,478.25z M-877.83,481.66h3.9v0.5h-4.45v-2.02h0.55V481.66z M-874.15,477.17h1.09v0.5h-1.09
				v2.59h-0.54v-5.32h0.54V477.17z"/>
			<path class="st4" d="M-871.38,478.94c2.49-1.11,2.69-1.44,2.69-2.49v-0.54h-2.45v-0.5h2.99v1.06c0,0.14-0.01,0.28-0.02,0.41h1.83
				v-1.94h0.54v4.65h-0.54v-2.21h-1.93c-0.25,0.7-0.96,1.17-2.89,2.02L-871.38,478.94z M-868.29,479.26h0.54v0.65
				c0,0.66,0.21,0.9,0.82,1.22c0.4,0.22,0.99,0.48,1.46,0.67l-0.23,0.46c-0.5-0.22-1.06-0.49-1.41-0.67
				c-0.51-0.26-0.82-0.5-0.92-0.7c-0.09,0.2-0.4,0.43-0.92,0.7c-0.35,0.18-0.9,0.46-1.41,0.67l-0.23-0.46
				c0.47-0.19,1.06-0.46,1.47-0.67c0.57-0.3,0.82-0.56,0.82-1.22V479.26z"/>
			<path class="st4" d="M-858.4,478.21v0.48h-6.52v-0.48H-858.4z M-859.37,479.33v1.7h-4.04v0.78h4.25v0.47h-4.79v-1.71h4.04v-0.77
				h-4.08v-0.47H-859.37z M-859.44,476.46c0,0.75-0.97,1.21-2.22,1.21c-1.25,0-2.22-0.46-2.22-1.21v-0.24
				c0-0.76,0.97-1.21,2.22-1.21c1.25,0,2.22,0.46,2.22,1.21V476.46z M-863.35,476.43c0,0.43,0.75,0.76,1.69,0.76
				c0.93,0,1.69-0.33,1.69-0.76v-0.19c0-0.43-0.75-0.76-1.69-0.76c-0.93,0-1.69,0.33-1.69,0.76V476.43z"/>
			<path class="st4" d="M-853.35,478.21h-3.17v-2.97h3.17V478.21z M-853.88,475.72h-2.11v2h2.11V475.72z M-851.29,478.97v1.89h-3.74
				v0.94h3.93v0.48h-4.47v-1.89h3.74v-0.93h-3.78v-0.49H-851.29z M-851.29,476.42h1.09v0.5h-1.09v1.62h-0.54v-3.6h0.54V476.42z"/>
			<path class="st4" d="M-848.29,476.09v-1.11h0.55v1.11h1.77v0.5h-4.12v-0.5H-848.29z M-849.7,479.06v-0.43
				c0-0.74,0.61-1.52,1.68-1.52c1.07,0,1.68,0.78,1.68,1.52v0.43c0,0.74-0.61,1.51-1.68,1.51
				C-849.09,480.57-849.7,479.8-849.7,479.06z M-849.18,478.67v0.34c0,0.6,0.46,1.06,1.16,1.06c0.7,0,1.16-0.46,1.16-1.06v-0.34
				c0-0.6-0.46-1.06-1.16-1.06C-848.72,477.61-849.18,478.07-849.18,478.67z M-844.59,477.93h1.18v0.5h-1.18v3.81h-0.55v-7.31h0.55
				V477.93z"/>
			<path class="st4" d="M-839.68,475.61v1.09h1.69v-1.76h0.54v7.31h-0.54v-3.12h-1.69v1.18h-3.29v-4.69H-839.68z M-840.22,476.12
				h-2.2v3.67h2.2V476.12z M-839.68,478.62h1.69v-1.41h-1.69V478.62z"/>
			<path class="st4" d="M-833.25,477.34c-0.02,0.14-0.26,0.38-0.61,0.72c-0.27,0.26-0.73,0.66-1.16,1.02l-0.34-0.41
				c0.42-0.32,0.91-0.74,1.26-1.1c0.49-0.5,0.54-0.71,0.54-1.31v-1h0.56v0.98c0,0.59,0.05,0.78,0.57,1.26
				c0.38,0.34,0.79,0.68,1.13,0.94l-0.33,0.39c-0.41-0.32-0.75-0.61-1.02-0.84C-833,477.69-833.21,477.47-833.25,477.34
				L-833.25,477.34z M-829.73,480.77v0.3c0,0.84-0.95,1.37-2.11,1.37c-1.17,0-2.11-0.53-2.11-1.37v-0.3c0-0.86,0.95-1.37,2.11-1.37
				C-830.68,479.4-829.73,479.93-829.73,480.77z M-830.26,481.05v-0.26c0-0.57-0.75-0.91-1.58-0.91c-0.83,0-1.58,0.34-1.58,0.91
				v0.26c0,0.57,0.75,0.91,1.58,0.91C-831.01,481.96-830.26,481.61-830.26,481.05z M-829.77,476.79h1.09v0.5h-1.09v1.96h-0.54v-4.3
				h0.54V476.79z"/>
			<path class="st4" d="M-823.95,479.31c-0.95,0.13-2.39,0.22-4.61,0.22v-0.49c0.76,0,1.4,0,1.93-0.02v-0.54
				c-0.9-0.06-1.33-0.48-1.33-0.97v-0.19c0-0.54,0.51-0.98,1.6-0.98c1.09,0,1.6,0.45,1.6,0.98v0.19c0,0.49-0.43,0.9-1.33,0.97v0.53
				c0.89-0.03,1.5-0.08,2.08-0.16L-823.95,479.31z M-826.62,475.54v-0.7h0.54v0.7h1.67v0.48h-3.88v-0.48H-826.62z M-827.43,477.34
				v0.14c0,0.29,0.35,0.54,1.08,0.54c0.73,0,1.08-0.25,1.08-0.54v-0.14c0-0.29-0.35-0.54-1.08-0.54
				C-827.08,476.81-827.43,477.06-827.43,477.34z M-822.9,481.07v0.22c0,0.75-0.87,1.15-2.21,1.15c-1.33,0-2.2-0.4-2.2-1.15v-0.23
				c0-0.74,0.87-1.14,2.2-1.14C-823.77,479.92-822.9,480.32-822.9,481.07z M-823.44,481.26v-0.16c0-0.45-0.68-0.7-1.67-0.7
				c-0.99,0-1.67,0.26-1.67,0.7v0.16c0,0.45,0.67,0.7,1.67,0.7C-824.11,481.97-823.44,481.71-823.44,481.26z M-822.94,477.2h1.06
				v0.5h-1.06v1.91h-0.54v-4.68h0.54V477.2z"/>
			<path class="st4" d="M-821.6,478.28v-0.62c0-1.37,0.49-2.13,1.52-2.13s1.51,0.76,1.51,2.13v0.04h0.96v-2.61h0.54v6.8h-0.54v-3.69
				h-0.96v0.08c0,1.37-0.49,2.13-1.51,2.13S-821.6,479.65-821.6,478.28z M-821.07,477.72v0.5c0,1.1,0.3,1.67,0.99,1.67
				s0.99-0.58,0.99-1.67v-0.5c0-1.1-0.29-1.67-0.99-1.67S-821.07,476.62-821.07,477.72z M-815.71,482.25h-0.54v-7.31h0.54V482.25z"
				/>
			<path class="st4" d="M-811.6,480.18c-0.43,0.06-1.06,0.1-1.62,0.1h-0.33v-4.68h1.76v0.51H-813v3.65c0.47,0,0.9-0.02,1.36-0.09
				L-811.6,480.18z M-809.14,480.18c-0.4,0.06-1.06,0.11-1.82,0.11h-0.39v-4.68h1.88v0.51h-1.33v3.65c0.61,0,1.16-0.04,1.61-0.1
				L-809.14,480.18z M-808.15,477.64h1.06v0.5h-1.06v4.1h-0.55v-7.31h0.55V477.64z"/>
			<path class="st4" d="M-806.06,479.93h1c0.78,0,1.63-0.04,2.35-0.16l0.06,0.49c-0.82,0.14-1.71,0.18-2.56,0.18h-1.41v-2.8h2.58
				v-1.61h-2.58v-0.5h3.12v2.6h-2.58V479.93z M-801.48,477.67h1.18v0.5h-1.18v4.07h-0.55v-7.31h0.55V477.67z"/>
			<path class="st4" d="M-912.51,490.49c-0.03,0.12-0.28,0.38-0.61,0.68c-0.27,0.25-0.8,0.68-1.16,0.94l-0.33-0.4
				c0.46-0.34,0.96-0.73,1.34-1.11c0.38-0.38,0.47-0.66,0.47-1.1v-0.64h-1.6v-0.49h3.67v0.49h-1.52v0.62c0,0.47,0.05,0.69,0.56,1.14
				c0.25,0.22,0.68,0.55,1.13,0.86l-0.32,0.39c-0.32-0.22-0.68-0.5-0.92-0.7C-912.16,490.86-912.47,490.59-912.51,490.49
				L-912.51,490.49z M-913.46,492.61h4.57v2.69h-0.54v-2.2h-4.02V492.61z M-908.89,492.18h-0.54v-1.91h-1.48v-0.5h1.48v-1.83h0.54
				V492.18z"/>
			<path class="st4" d="M-906.25,491.68v-1.1c-0.46-0.21-0.75-0.54-0.75-0.98v-0.27c0-0.83,1.04-1.26,2.23-1.26
				c1.19,0,2.23,0.43,2.23,1.26v0.27c0,0.44-0.29,0.78-0.75,0.98v1.1h1.78v0.48h-6.52v-0.48H-906.25z M-907.01,494.17v-0.27
				c0-0.75,0.95-1.27,2.23-1.27c1.27,0,2.23,0.52,2.23,1.27v0.27c0,0.75-0.96,1.27-2.23,1.27
				C-906.05,495.44-907.01,494.92-907.01,494.17z M-906.48,489.37v0.19c0,0.51,0.85,0.82,1.7,0.82s1.7-0.31,1.7-0.82v-0.19
				c0-0.51-0.85-0.82-1.7-0.82S-906.48,488.86-906.48,489.37z M-906.48,493.94v0.18c0,0.5,0.81,0.84,1.7,0.84
				c0.89,0,1.7-0.34,1.7-0.84v-0.18c0-0.5-0.81-0.84-1.7-0.84C-905.67,493.1-906.48,493.45-906.48,493.94z M-905.72,490.77v0.91
				h1.89v-0.91c-0.29,0.06-0.61,0.1-0.95,0.1C-905.11,490.86-905.43,490.83-905.72,490.77z"/>
			<path class="st4" d="M-898.69,491.37v-1.54h0.56v1.54h3.37v0.48h-6.52v-0.48H-898.69z M-895.76,488.26V489
				c0,0.57-0.08,1.33-0.19,1.84l-0.54-0.06c0.13-0.58,0.19-1.23,0.19-1.77v-0.26h-4.12v-0.5H-895.76z M-895.82,493.85v0.29
				c0,0.84-1.04,1.3-2.21,1.3c-1.16,0-2.21-0.46-2.21-1.3v-0.29c0-0.86,1.04-1.3,2.21-1.3
				C-896.86,492.54-895.82,493.01-895.82,493.85z M-896.35,494.1v-0.22c0-0.54-0.84-0.86-1.68-0.86c-0.84,0-1.68,0.32-1.68,0.86
				v0.22c0,0.54,0.84,0.86,1.68,0.86C-897.19,494.96-896.35,494.64-896.35,494.1z"/>
			<path class="st4" d="M-894.34,491.96c2.48-1.11,2.68-1.43,2.68-2.49v-0.56h-2.44v-0.5h2.97v1.09c0,1.3-0.34,1.73-2.99,2.92
				L-894.34,491.96z M-892.67,494.66h3.91v0.5h-4.47v-2.38h0.55V494.66z M-888.98,490.07h1.09v0.5h-1.09v2.6h-0.54v-5.23h0.54
				V490.07z"/>
			<path class="st4" d="M-885.62,492.85h0.64c0.67,0,1.24-0.02,2.03-0.14l0.06,0.5c-0.81,0.13-1.52,0.14-2.2,0.14h-1.06v-2.7h1.92
				v-1.58h-1.92v-0.49h2.45v2.56h-1.92V492.85z M-882.32,490.63v-2.54h0.54v6.8h-0.54v-3.74h-0.99v-0.51H-882.32z M-880.41,495.25
				h-0.54v-7.31h0.54V495.25z"/>
			<path class="st4" d="M-875.83,491.33c0,1.34-0.65,2.13-1.76,2.13c-1.1,0-1.75-0.79-1.75-2.13v-0.76c0-1.34,0.65-2.12,1.75-2.12
				c1.1,0,1.76,0.79,1.76,2.13V491.33z M-876.37,490.67c0-1.21-0.49-1.69-1.22-1.69c-0.73,0-1.22,0.48-1.22,1.69v0.56
				c0,1.22,0.49,1.7,1.22,1.7c0.73,0,1.22-0.49,1.22-1.7V490.67z M-873.88,495.25h-0.55v-7.31h0.55V495.25z"/>
			<path class="st4" d="M-869.24,491.32c0,1.34-0.65,2.12-1.75,2.12c-1.09,0-1.75-0.78-1.75-2.12v-0.75c0-1.33,0.65-2.11,1.75-2.11
				c1.1,0,1.75,0.79,1.75,2.12V491.32z M-869.77,490.67c0-1.21-0.48-1.69-1.21-1.69c-0.73,0-1.21,0.47-1.21,1.69v0.55
				c0,1.22,0.48,1.7,1.21,1.7c0.73,0,1.21-0.48,1.21-1.7V490.67z M-867.47,490.68h1.18v0.5h-1.18v4.06h-0.55v-7.31h0.55V490.68z"/>
			<path class="st4" d="M-859.71,491.35v0.48h-2.99v0.8h-0.54v-0.8h-2.99v-0.48H-859.71z M-863.62,494.45
				c-0.6,0.31-1.29,0.59-1.84,0.81l-0.2-0.45c0.65-0.25,1.13-0.43,1.69-0.71c0.57-0.29,0.73-0.48,0.73-1.11v-0.1h0.54v0.1
				c0,0.63,0.16,0.82,0.73,1.11c0.56,0.28,1.04,0.46,1.69,0.71l-0.2,0.45c-0.55-0.22-1.24-0.5-1.84-0.81
				c-0.32-0.17-0.55-0.33-0.65-0.5C-863.07,494.13-863.3,494.29-863.62,494.45z M-865.2,489.56v-0.27c0-0.82,1.04-1.24,2.23-1.24
				c1.19,0,2.23,0.42,2.23,1.24v0.27c0,0.82-1.04,1.24-2.23,1.24C-864.16,490.8-865.2,490.38-865.2,489.56z M-864.67,489.33v0.19
				c0,0.5,0.85,0.8,1.7,0.8s1.7-0.3,1.7-0.8v-0.19c0-0.5-0.85-0.8-1.7-0.8S-864.67,488.83-864.67,489.33z"/>
			<path class="st4" d="M-851.65,491.42v0.49h-6.52v-0.49H-851.65z M-852.66,488.74h-3.99v1.4h4.03v0.49h-4.57v-2.37h4.53V488.74z
				 M-852.71,493.89v0.27c0,0.84-1.04,1.28-2.21,1.28c-1.17,0-2.21-0.44-2.21-1.28v-0.27c0-0.86,1.04-1.28,2.21-1.28
				C-853.75,492.61-852.71,493.05-852.71,493.89z M-853.23,494.13v-0.21c0-0.54-0.84-0.83-1.68-0.83c-0.84,0-1.68,0.3-1.68,0.83
				v0.21c0,0.54,0.84,0.83,1.68,0.83C-854.07,494.96-853.23,494.66-853.23,494.13z"/>
			<path class="st4" d="M-844.9,491.21v0.48h-6.52v-0.48H-844.9z M-845.87,492.33v1.7h-4.04v0.78h4.25v0.47h-4.78v-1.71h4.04v-0.77
				h-4.08v-0.47H-845.87z M-845.94,489.46c0,0.75-0.97,1.21-2.22,1.21c-1.25,0-2.22-0.46-2.22-1.21v-0.24
				c0-0.76,0.97-1.21,2.22-1.21c1.25,0,2.22,0.46,2.22,1.21V489.46z M-849.85,489.43c0,0.43,0.75,0.76,1.69,0.76
				c0.93,0,1.69-0.33,1.69-0.76v-0.19c0-0.43-0.75-0.76-1.69-0.76c-0.93,0-1.69,0.33-1.69,0.76V489.43z"/>
			<path class="st4" d="M-840.89,493.73v-2.81h0.56v2.81h3.49v0.49h-6.52v-0.49H-840.89z M-838.67,492.72
				c0.18-0.98,0.28-1.86,0.28-2.93v-0.66h-4.16v-0.5h4.72v0.86c0,1.34-0.09,2.27-0.27,3.3L-838.67,492.72z"/>
			<path class="st4" d="M-835.6,492.93h0.98c0.78,0,1.63-0.04,2.35-0.16l0.06,0.49c-0.82,0.14-1.71,0.18-2.56,0.18h-1.38v-2.8h2.3
				v-1.61h-2.3v-0.5h2.84v2.6h-2.3V492.93z M-831.26,489.56v-1.62h0.55v7.31h-0.55v-3.4h-1.47v-0.51h1.47v-1.26h-1.47v-0.51H-831.26
				z"/>
			<path class="st4" d="M-828.04,489.09v-1.11h0.55v1.11h1.77v0.5h-4.12v-0.5H-828.04z M-829.44,492.06v-0.43
				c0-0.74,0.61-1.52,1.68-1.52c1.07,0,1.68,0.78,1.68,1.52v0.43c0,0.74-0.61,1.51-1.68,1.51
				C-828.84,493.57-829.44,492.8-829.44,492.06z M-828.92,491.67v0.34c0,0.6,0.46,1.06,1.16,1.06c0.7,0,1.16-0.46,1.16-1.06v-0.34
				c0-0.6-0.46-1.06-1.16-1.06C-828.47,490.61-828.92,491.07-828.92,491.67z M-824.34,490.93h1.18v0.5h-1.18v3.81h-0.55v-7.31h0.55
				V490.93z"/>
			<path class="st4" d="M-817.23,495.25h-0.54v-3.07h-1.72c-0.22,0.81-0.8,1.26-1.63,1.26c-1.1,0-1.75-0.78-1.75-2.12v-0.75
				c0-1.33,0.65-2.11,1.75-2.11c0.82,0,1.4,0.46,1.63,1.25h1.72v-1.77h0.54V495.25z M-819.9,490.67c0-1.21-0.48-1.69-1.21-1.69
				c-0.73,0-1.21,0.47-1.21,1.69v0.55c0,1.22,0.48,1.7,1.21,1.7c0.73,0,1.21-0.48,1.21-1.7V490.67z M-819.36,491.32
				c0,0.12-0.01,0.24-0.02,0.35h1.61v-1.46h-1.61c0.01,0.12,0.02,0.24,0.02,0.36V491.32z"/>
			<path class="st4" d="M-812.78,490.49c-0.03,0.12-0.28,0.38-0.61,0.68c-0.27,0.25-0.8,0.68-1.16,0.94l-0.33-0.4
				c0.46-0.34,0.95-0.73,1.34-1.11c0.38-0.38,0.47-0.66,0.47-1.1v-0.64h-1.6v-0.49h3.67v0.49h-1.52v0.62c0,0.47,0.05,0.69,0.56,1.14
				c0.25,0.22,0.68,0.55,1.13,0.86l-0.32,0.39c-0.32-0.22-0.68-0.5-0.92-0.7C-812.43,490.86-812.74,490.59-812.78,490.49
				L-812.78,490.49z M-813.72,492.61h4.57v2.69h-0.54v-2.2h-4.02V492.61z M-809.16,492.18h-0.54v-1.91h-1.48v-0.5h1.48v-1.83h0.54
				V492.18z"/>
			<path class="st4" d="M-806.02,490.16c-0.02,0.1-0.22,0.3-0.57,0.6c-0.28,0.23-0.79,0.63-1.22,0.92l-0.31-0.42
				c0.45-0.3,0.89-0.62,1.26-0.94c0.45-0.39,0.54-0.59,0.54-1.14v-0.45h-1.6v-0.49h3.67v0.49h-1.52v0.38c0,0.62,0.05,0.74,0.58,1.16
				c0.33,0.26,0.72,0.54,1.11,0.78l-0.3,0.4c-0.3-0.19-0.67-0.46-0.97-0.69C-805.72,490.49-805.98,490.26-806.02,490.16
				L-806.02,490.16z M-802.4,492v1.87h-3.81v0.92h3.99v0.48h-4.53v-1.87h3.81v-0.91h-3.85V492H-802.4z M-802.95,489.51v-1.57h0.54
				v3.63h-0.54V490h-1.48v-0.5H-802.95z"/>
			<path class="st4" d="M-799.16,488.8h1.78v0.49h-4.09v-0.49h1.76v-0.94h0.54V488.8z M-797.8,491.27c0,0.66-0.62,1.29-1.63,1.29
				c-1.01,0-1.63-0.62-1.63-1.29v-0.3c0-0.66,0.62-1.29,1.63-1.29c1.01,0,1.63,0.62,1.63,1.29V491.27z M-798.33,491.25v-0.26
				c0-0.39-0.42-0.83-1.11-0.83c-0.69,0-1.11,0.44-1.11,0.83v0.26c0,0.39,0.42,0.83,1.11,0.83
				C-798.74,492.08-798.33,491.64-798.33,491.25z M-799.65,494.66h3.9v0.5h-4.45v-2.02h0.55V494.66z M-795.97,490.17h1.09v0.5h-1.09
				v2.59h-0.54v-5.32h0.54V490.17z"/>
			<path class="st4" d="M-914.49,504.94c2.48-1.11,2.69-1.44,2.69-2.49v-0.54h-2.45v-0.5h2.99v1.06c0,0.14-0.01,0.28-0.02,0.41h1.83
				v-1.94h0.54v4.65h-0.54v-2.21h-1.93c-0.25,0.7-0.96,1.17-2.89,2.02L-914.49,504.94z M-911.4,505.26h0.54v0.65
				c0,0.66,0.21,0.9,0.82,1.22c0.4,0.22,0.99,0.48,1.46,0.67l-0.23,0.46c-0.5-0.22-1.06-0.49-1.41-0.67
				c-0.51-0.26-0.82-0.5-0.92-0.7c-0.09,0.2-0.4,0.43-0.92,0.7c-0.35,0.18-0.9,0.46-1.41,0.67l-0.23-0.46
				c0.47-0.19,1.06-0.46,1.47-0.67c0.57-0.3,0.82-0.56,0.82-1.22V505.26z"/>
			<path class="st4" d="M-901.52,504.21v0.48h-6.52v-0.48H-901.52z M-902.49,505.33v1.7h-4.04v0.78h4.25v0.47h-4.78v-1.71h4.04
				v-0.77h-4.08v-0.47H-902.49z M-902.56,502.46c0,0.75-0.97,1.21-2.22,1.21c-1.25,0-2.22-0.46-2.22-1.21v-0.24
				c0-0.76,0.97-1.21,2.22-1.21c1.25,0,2.22,0.46,2.22,1.21V502.46z M-906.46,502.43c0,0.43,0.75,0.76,1.69,0.76
				c0.93,0,1.69-0.33,1.69-0.76v-0.19c0-0.43-0.75-0.76-1.69-0.76c-0.93,0-1.69,0.33-1.69,0.76V502.43z"/>
			<path class="st4" d="M-897.82,503.56c-0.02,0.14-0.26,0.38-0.61,0.72c-0.27,0.26-0.73,0.66-1.16,1.02l-0.34-0.41
				c0.42-0.32,0.91-0.74,1.26-1.1c0.49-0.5,0.54-0.71,0.54-1.31v-1.2h0.56v1.18c0,0.59,0.05,0.78,0.57,1.26
				c0.38,0.34,0.79,0.68,1.13,0.94l-0.33,0.39c-0.41-0.32-0.75-0.61-1.02-0.84C-897.56,503.9-897.77,503.69-897.82,503.56
				L-897.82,503.56z M-897.9,507.66h3.97v0.5h-4.52v-2.44h0.55V507.66z M-894.11,506.15h-0.54v-2.97h-1.6v-0.5h1.6v-1.74h0.54
				V506.15z"/>
			<path class="st4" d="M-890.27,501.35v0.49h-2.11v1.02h2.07v0.49h-2.07v1.03c0.99,0,1.57-0.02,2.47-0.12l0.06,0.48
				c-0.9,0.11-1.6,0.13-3.07,0.13v-3.52H-890.27z M-891.84,505.75h4.62v2.56h-0.54v-2.06h-4.08V505.75z M-888.78,502.79h1.03v-1.86
				h0.54v4.38h-0.54v-2.02h-1.03v2.01h-0.54v-4.27h0.54V502.79z"/>
			<path class="st4" d="M-884.66,502.09v-1.11h0.55v1.11h1.77v0.5h-4.12v-0.5H-884.66z M-886.06,505.06v-0.43
				c0-0.74,0.61-1.52,1.68-1.52c1.07,0,1.68,0.78,1.68,1.52v0.43c0,0.74-0.61,1.51-1.68,1.51
				C-885.46,506.57-886.06,505.8-886.06,505.06z M-885.54,504.67v0.34c0,0.6,0.46,1.06,1.16,1.06c0.7,0,1.16-0.46,1.16-1.06v-0.34
				c0-0.6-0.46-1.06-1.16-1.06C-885.08,503.61-885.54,504.07-885.54,504.67z M-880.95,503.93h1.18v0.5h-1.18v3.81h-0.55v-7.31h0.55
				V503.93z"/>
			<path class="st4" d="M-873.84,508.25h-0.54v-3.07h-1.72c-0.22,0.81-0.8,1.26-1.63,1.26c-1.1,0-1.75-0.78-1.75-2.12v-0.75
				c0-1.33,0.65-2.11,1.75-2.11c0.82,0,1.4,0.46,1.63,1.25h1.72v-1.77h0.54V508.25z M-876.52,503.67c0-1.21-0.48-1.69-1.21-1.69
				c-0.73,0-1.21,0.47-1.21,1.69v0.55c0,1.22,0.48,1.7,1.21,1.7c0.73,0,1.21-0.48,1.21-1.7V503.67z M-875.98,504.32
				c0,0.12-0.01,0.24-0.02,0.35h1.61v-1.46h-1.61c0.01,0.12,0.02,0.24,0.02,0.36V504.32z"/>
			<path class="st4" d="M-869.87,503.19v-1.72h0.57v1.68c0,0.62,0.05,0.88,0.47,1.38c0.31,0.37,0.77,0.85,1.35,1.39l-0.36,0.38
				c-0.49-0.48-0.92-0.92-1.23-1.26c-0.23-0.26-0.46-0.52-0.5-0.62h-0.01c-0.02,0.1-0.32,0.48-0.55,0.74
				c-0.27,0.3-0.78,0.84-1.24,1.26l-0.37-0.39c0.51-0.46,0.94-0.89,1.31-1.31C-869.94,504.14-869.87,503.82-869.87,503.19z
				 M-866.18,503.66h1.19v0.5h-1.19v4.08h-0.55v-7.31h0.55V503.66z"/>
			<path class="st4" d="M-863.14,504.68v-1.1c-0.46-0.21-0.75-0.54-0.75-0.98v-0.27c0-0.83,1.04-1.26,2.23-1.26
				c1.19,0,2.23,0.43,2.23,1.26v0.27c0,0.44-0.29,0.78-0.75,0.98v1.1h1.78v0.48h-6.52v-0.48H-863.14z M-863.89,507.17v-0.27
				c0-0.75,0.96-1.27,2.23-1.27c1.27,0,2.23,0.52,2.23,1.27v0.27c0,0.75-0.96,1.27-2.23,1.27
				C-862.94,508.44-863.89,507.92-863.89,507.17z M-863.36,502.37v0.19c0,0.51,0.85,0.82,1.7,0.82c0.85,0,1.7-0.31,1.7-0.82v-0.19
				c0-0.51-0.85-0.82-1.7-0.82C-862.52,501.55-863.36,501.86-863.36,502.37z M-863.36,506.94v0.18c0,0.5,0.81,0.84,1.7,0.84
				c0.89,0,1.7-0.34,1.7-0.84v-0.18c0-0.5-0.81-0.84-1.7-0.84C-862.56,506.1-863.36,506.45-863.36,506.94z M-862.6,503.77v0.91h1.89
				v-0.91c-0.3,0.06-0.61,0.1-0.95,0.1C-862,503.86-862.31,503.83-862.6,503.77z"/>
			<path class="st4" d="M-855.78,501.75h1.78v0.49h-4.09v-0.49h1.76v-0.92h0.54V501.75z M-857.68,503.96v-0.24
				c0-0.56,0.53-1.14,1.62-1.14c1.09,0,1.62,0.58,1.62,1.14v0.24c0,0.56-0.53,1.14-1.62,1.14
				C-857.15,505.1-857.68,504.52-857.68,503.96z M-857.15,503.75v0.18c0,0.32,0.35,0.7,1.1,0.7c0.75,0,1.09-0.38,1.09-0.7v-0.18
				c0-0.32-0.35-0.7-1.09-0.7C-856.8,503.06-857.15,503.43-857.15,503.75z M-852.59,505.48v2.77h-4.26v-2.77h0.54v0.86h3.18v-0.86
				H-852.59z M-853.13,507.74v-0.91h-3.18v0.91H-853.13z M-852.59,502.75h1.09v0.5h-1.09v1.8h-0.54v-4.11h0.54V502.75z"/>
			<path class="st4" d="M-850.26,505.73h1.02c0.75,0,1.52-0.05,2.37-0.2l0.07,0.5c-0.83,0.15-1.75,0.21-2.49,0.21h-1.52v-4.7h0.55
				V505.73z M-845.55,508.25h-0.55v-7.31h0.55V508.25z"/>
			<path class="st4" d="M-844.28,501.6h3.23v0.51h-2.68v3.67h0.92c0.79,0,1.55-0.05,2.42-0.2l0.07,0.5
				c-0.82,0.15-1.75,0.21-2.63,0.21h-1.33V501.6z M-839.16,503.65h1.18v0.5h-1.18v4.09h-0.55v-7.31h0.55V503.65z"/>
			<path class="st4" d="M-837.63,506.8h0.78v0.8h-0.78V506.8z"/>
		</g>
	</g>
	<g>
		<g>
			<path class="st3" d="M-912.66,307.75h-0.23c-1.15,0-1.58-0.48-1.58-1.6v-1.62c0-1.05,0.31-1.67,1.58-1.67h0.32
				c0.4,0,0.69,0.09,0.88,0.2v0.38h-1.32c-0.58,0-0.77,0.23-0.77,0.99v1.84c0,1.03,0.47,0.92,1,0.92h1.09v0.37
				C-911.91,307.69-912.27,307.75-912.66,307.75z"/>
			<path class="st3" d="M-908.5,307.75h-0.58c-0.3,0-0.61-0.09-0.84-0.4v2.21h-0.68v-6.59h0.62l0.04,0.3
				c0.35-0.29,0.83-0.4,1.11-0.4h0.24c0.94,0,1.31,0.49,1.31,1.24v2.3C-907.29,307.39-907.94,307.75-908.5,307.75z M-907.98,304.11
				c0-0.56-0.32-0.68-0.7-0.68h-0.29c-0.5,0-0.74,0.08-0.95,0.2V307c0.22,0.12,0.48,0.2,0.88,0.2h0.4c0.44,0,0.67-0.23,0.67-0.7
				V304.11z"/>
			<path class="st3" d="M-903.88,307.75h-0.49c-0.3,0-0.69-0.08-0.91-0.41l-0.06,0.31h-0.6v-6.59h0.68v2.21
				c0.33-0.33,0.79-0.4,1.08-0.4h0.23c0.94,0,1.31,0.49,1.31,1.24v2.3C-902.63,307.39-903.33,307.75-903.88,307.75z M-903.32,304.11
				c0-0.56-0.32-0.68-0.7-0.68h-0.29c-0.5,0-0.74,0.08-0.95,0.2V307c0.22,0.12,0.48,0.2,0.88,0.2h0.4c0.44,0,0.67-0.23,0.67-0.7
				V304.11z"/>
			<path class="st3" d="M-899.64,307.75h-0.23c-1.15,0-1.58-0.48-1.58-1.6v-1.62c0-1.05,0.31-1.67,1.58-1.67h0.32
				c0.4,0,0.69,0.09,0.88,0.2v0.38h-1.32c-0.58,0-0.76,0.23-0.76,0.99v1.84c0,1.03,0.47,0.92,1,0.92h1.09v0.37
				C-898.89,307.69-899.25,307.75-899.64,307.75z"/>
			<path class="st3" d="M-892.93,307.53c-0.19,0.19-0.72,0.23-1.02,0.23h-0.46c-1.42,0-1.86-0.53-1.86-1.87v-2.69
				c0-1.38,0.44-1.88,1.86-1.88h0.46c0.29,0,0.79,0.04,1.02,0.22v0.38h-1.59c-0.86,0-1.03,0.29-1.03,1.18v2.94
				c0,0.89,0.27,1.13,1.03,1.13h1.59V307.53z"/>
			<path class="st3" d="M-890.18,307.75h-0.33c-1.04,0-1.51-0.42-1.51-1.48v-1.94c0-1.05,0.48-1.49,1.51-1.49h0.33
				c1,0,1.54,0.4,1.54,1.43v2.03C-888.64,307.36-889.18,307.75-890.18,307.75z M-889.32,304.25c0-0.54-0.15-0.86-0.74-0.86h-0.54
				c-0.59,0-0.74,0.3-0.74,0.84v2.14c0,0.54,0.15,0.84,0.74,0.84h0.54c0.59,0,0.74-0.31,0.74-0.86V304.25z"/>
			<path class="st3" d="M-885.32,303.56c-0.68,0-0.94,0.11-1.25,0.23v3.86h-0.72v-4.68h0.66l0.04,0.39
				c0.31-0.25,0.76-0.44,1.19-0.44c0.13,0,0.31,0.01,0.5,0.04v0.61H-885.32z"/>
			<path class="st3" d="M-881.92,307.75h-0.59c-0.3,0-0.61-0.09-0.84-0.4v2.21h-0.68v-6.59h0.62l0.04,0.3
				c0.35-0.29,0.83-0.4,1.11-0.4h0.24c0.94,0,1.31,0.49,1.31,1.24v2.3C-880.72,307.39-881.37,307.75-881.92,307.75z M-881.4,304.11
				c0-0.56-0.32-0.68-0.7-0.68h-0.29c-0.5,0-0.74,0.08-0.95,0.2V307c0.22,0.12,0.48,0.2,0.88,0.2h0.4c0.44,0,0.67-0.23,0.67-0.7
				V304.11z"/>
			<path class="st3" d="M-877.69,307.75h-0.33c-1.04,0-1.51-0.42-1.51-1.48v-1.94c0-1.05,0.48-1.49,1.51-1.49h0.33
				c1,0,1.54,0.4,1.54,1.43v2.03C-876.15,307.36-876.69,307.75-877.69,307.75z M-876.83,304.25c0-0.54-0.15-0.86-0.74-0.86h-0.54
				c-0.59,0-0.74,0.3-0.74,0.84v2.14c0,0.54,0.15,0.84,0.74,0.84h0.54c0.59,0,0.74-0.31,0.74-0.86V304.25z"/>
			<path class="st3" d="M-872.83,303.56c-0.68,0-0.94,0.11-1.25,0.23v3.86h-0.72v-4.68h0.66l0.04,0.39
				c0.31-0.25,0.76-0.44,1.19-0.44c0.13,0,0.31,0.01,0.5,0.04v0.61H-872.83z"/>
			<path class="st3" d="M-869.08,307.64l-0.05-0.45h-0.05c-0.15,0.31-0.46,0.56-1.04,0.56h-0.46c-0.69,0-1.13-0.48-1.13-1.13v-0.47
				c0-0.88,0.68-1.25,1.4-1.25h1.15v-0.82c0-0.52-0.19-0.61-0.67-0.61h-1.58v-0.42c0.27-0.14,0.78-0.2,1.1-0.2h0.6
				c0.75,0,1.23,0.26,1.23,1.17v2.58c0,0.52,0.04,0.74,0.09,1.04H-869.08z M-869.26,305.41h-1.04c-0.53,0-0.84,0.15-0.84,0.72v0.43
				c0,0.5,0.31,0.63,0.66,0.63h0.44c0.4,0,0.77-0.22,0.77-0.83V305.41z"/>
			<path class="st3" d="M-865.76,307.75c-0.69,0-1.17-0.22-1.17-0.98v-3.16h-0.71v-0.51h0.71v-1.31l0.68-0.08v1.39h1.18v0.51h-1.18
				v3.04c0,0.23,0.02,0.55,0.46,0.55h0.85v0.38C-865.17,307.7-865.45,307.75-865.76,307.75z"/>
			<path class="st3" d="M-861.4,305.41h-2.05v0.81c0,0.58,0.01,0.95,0.8,0.95h1.63v0.32c-0.19,0.15-0.55,0.26-0.94,0.26h-0.76
				c-0.84,0-1.41-0.35-1.41-1.49v-1.73c0-1.3,0.47-1.68,1.48-1.68h0.5c0.77,0,1.38,0.37,1.38,1.42v1.03L-861.4,305.41z
				 M-861.45,304.19c0-0.53-0.23-0.79-0.71-0.79h-0.57c-0.57,0-0.72,0.32-0.72,0.91v0.6h2V304.19z"/>
			<path class="st3" d="M-858.02,307.64v-6.23h0.72v6.23H-858.02z"/>
			<path class="st3" d="M-853.26,307.64l-0.04-0.36c-0.24,0.32-0.69,0.47-1.1,0.47h-0.14c-1,0-1.4-0.46-1.4-1.3v-2.24
				c0-0.94,0.57-1.36,1.32-1.36h0.31c0.36,0,0.81,0.12,1,0.4v-2.2h0.68v6.59H-853.26z M-853.32,303.62c-0.22-0.12-0.48-0.2-0.88-0.2
				h-0.4c-0.44,0-0.67,0.23-0.67,0.7v2.38c0,0.56,0.32,0.68,0.7,0.68h0.29c0.5,0,0.74-0.08,0.95-0.2V303.62z"/>
			<path class="st3" d="M-848.55,305.41h-2.05v0.81c0,0.58,0.01,0.95,0.8,0.95h1.63v0.32c-0.19,0.15-0.55,0.26-0.94,0.26h-0.77
				c-0.84,0-1.41-0.35-1.41-1.49v-1.73c0-1.3,0.47-1.68,1.48-1.68h0.5c0.77,0,1.38,0.37,1.38,1.42v1.03L-848.55,305.41z
				 M-848.61,304.19c0-0.53-0.23-0.79-0.71-0.79h-0.57c-0.57,0-0.72,0.32-0.72,0.91v0.6h2V304.19z"/>
			<path class="st3" d="M-844.06,307.64v-3.71c0-0.41-0.24-0.46-0.54-0.46h-0.57c-0.37,0-0.62,0.09-0.77,0.15v4.02h-0.68v-4.68h0.65
				l0.03,0.35c0.28-0.29,0.68-0.46,1.1-0.46h0.35c0.6,0,1.12,0.26,1.12,1.04v3.75H-844.06z"/>
			<path class="st3" d="M-840.54,307.75c-0.69,0-1.17-0.22-1.17-0.98v-3.16h-0.71v-0.51h0.71v-1.31l0.68-0.08v1.39h1.18v0.51h-1.18
				v3.04c0,0.23,0.02,0.55,0.46,0.55h0.85v0.38C-839.95,307.7-840.23,307.75-840.54,307.75z"/>
			<path class="st3" d="M-838.75,301.93v-0.87h0.68v0.87H-838.75z M-838.75,307.64v-4.68h0.68v4.68H-838.75z"/>
			<path class="st3" d="M-835.2,307.75c-0.69,0-1.17-0.22-1.17-0.98v-3.16h-0.71v-0.51h0.71v-1.31l0.68-0.08v1.39h1.18v0.51h-1.18
				v3.04c0,0.23,0.02,0.55,0.46,0.55h0.85v0.38C-834.6,307.7-834.88,307.75-835.2,307.75z"/>
			<path class="st3" d="M-832.45,309.55h-0.65l0.52-1.85l-1.48-4.74h0.68l1.13,3.67l0.05,0.01l0.99-3.68h0.64L-832.45,309.55z"/>
			<path class="st3" d="M-824.92,307.64l-0.14-0.37c-0.35,0.37-0.76,0.48-1.12,0.48h-0.49c-1.23,0-1.69-0.65-1.69-1.95v-2.66
				c0-1.31,0.44-1.84,1.84-1.84h0.86c0.3,0,0.77,0.04,1.01,0.23v0.36h-2.04c-0.76,0-0.95,0.39-0.95,1.15v2.79
				c0,0.81,0.11,1.32,0.88,1.32h0.49c0.38,0,1-0.11,1.17-0.21v-2.02h-1.41v-0.56h2.13v3.27H-824.92z"/>
			<path class="st3" d="M-820.38,307.64l-0.03-0.35c-0.28,0.29-0.67,0.46-1.1,0.46h-0.35c-0.6,0-1.12-0.26-1.12-1.04v-3.75h0.68
				v3.71c0,0.4,0.24,0.46,0.54,0.46h0.57c0.37,0,0.62-0.09,0.77-0.15v-4.02h0.68v4.68H-820.38z"/>
			<path class="st3" d="M-818.22,301.93v-0.87h0.68v0.87H-818.22z M-818.22,307.64v-4.68h0.68v4.68H-818.22z"/>
			<path class="st3" d="M-813.49,307.64l-0.05-0.36c-0.24,0.32-0.69,0.47-1.1,0.47h-0.14c-1,0-1.4-0.46-1.4-1.3v-2.24
				c0-0.94,0.57-1.36,1.32-1.36h0.31c0.36,0,0.81,0.12,1,0.4v-2.2h0.68v6.59H-813.49z M-813.55,303.62c-0.22-0.12-0.48-0.2-0.88-0.2
				h-0.4c-0.44,0-0.67,0.23-0.67,0.7v2.38c0,0.56,0.32,0.68,0.7,0.68h0.29c0.5,0,0.74-0.08,0.95-0.2V303.62z"/>
			<path class="st3" d="M-808.78,305.41h-2.05v0.81c0,0.58,0.01,0.95,0.8,0.95h1.63v0.32c-0.19,0.15-0.55,0.26-0.94,0.26h-0.76
				c-0.84,0-1.41-0.35-1.41-1.49v-1.73c0-1.3,0.47-1.68,1.49-1.68h0.5c0.77,0,1.38,0.37,1.38,1.42v1.03L-808.78,305.41z
				 M-808.84,304.19c0-0.53-0.23-0.79-0.71-0.79h-0.57c-0.57,0-0.72,0.32-0.72,0.91v0.6h2V304.19z"/>
			<path class="st3" d="M-806.85,307.64v-6.59h0.68v6.59H-806.85z"/>
			<path class="st3" d="M-804.65,301.93v-0.87h0.68v0.87H-804.65z M-804.65,307.64v-4.68h0.68v4.68H-804.65z"/>
			<path class="st3" d="M-799.9,307.64v-3.71c0-0.41-0.24-0.46-0.54-0.46h-0.57c-0.37,0-0.62,0.09-0.76,0.15v4.02h-0.68v-4.68h0.65
				l0.03,0.35c0.28-0.29,0.67-0.46,1.1-0.46h0.35c0.6,0,1.12,0.26,1.12,1.04v3.75H-799.9z"/>
			<path class="st3" d="M-795.17,305.41h-2.05v0.81c0,0.58,0.01,0.95,0.8,0.95h1.63v0.32c-0.19,0.15-0.55,0.26-0.94,0.26h-0.76
				c-0.84,0-1.41-0.35-1.41-1.49v-1.73c0-1.3,0.47-1.68,1.49-1.68h0.5c0.76,0,1.38,0.37,1.38,1.42v1.03L-795.17,305.41z
				 M-795.22,304.19c0-0.53-0.23-0.79-0.71-0.79h-0.57c-0.57,0-0.72,0.32-0.72,0.91v0.6h2V304.19z"/>
			<path class="st3" d="M-791.83,307.75h-0.68c-0.24,0-0.59-0.05-0.83-0.19v-0.39h1.4c0.62,0,0.66-0.32,0.66-0.58v-0.5
				c0-0.39-0.14-0.43-0.48-0.48l-0.67-0.09c-0.54-0.07-1-0.32-1-0.99v-0.57c0-0.58,0.43-1.11,1.3-1.11h0.47
				c0.24,0,0.59,0.05,0.83,0.19v0.39h-1.22c-0.59,0-0.69,0.26-0.69,0.59v0.4c0,0.37,0.21,0.42,0.46,0.46l0.71,0.1
				c0.66,0.1,0.97,0.37,0.97,1.04v0.54C-790.6,307.35-791.14,307.75-791.83,307.75z"/>
		</g>
	</g>
	<g>
		<g>
			<path class="st3" d="M-669.02,453.02l1.96,4.59h-0.95l-1.58-3.82l-0.87,1.3v2.52h-0.88v-7.61h0.88v3.94l2.57-3.94h0.91
				L-669.02,453.02z"/>
			<path class="st3" d="M-663.83,457.74h-0.41c-1.27,0-1.85-0.52-1.85-1.8v-2.37c0-1.29,0.58-1.82,1.85-1.82h0.41
				c1.22,0,1.88,0.48,1.88,1.75v2.49C-661.95,457.26-662.61,457.74-663.83,457.74z M-662.78,453.46c0-0.66-0.19-1.05-0.9-1.05h-0.66
				c-0.71,0-0.9,0.36-0.9,1.02v2.62c0,0.66,0.19,1.02,0.9,1.02h0.66c0.72,0,0.9-0.38,0.9-1.04V453.46z"/>
			<path class="st3" d="M-657.89,452.61c-0.82,0-1.14,0.13-1.53,0.27v4.72h-0.88v-5.72h0.8l0.05,0.47c0.38-0.31,0.94-0.54,1.45-0.54
				c0.16,0,0.39,0.01,0.61,0.04v0.75H-657.89z"/>
			<path class="st3" d="M-653.17,454.88h-2.51v0.99c0,0.7,0.01,1.17,0.98,1.17h1.99v0.39c-0.23,0.19-0.67,0.32-1.14,0.32h-0.94
				c-1.02,0-1.73-0.43-1.73-1.81v-2.11c0-1.58,0.57-2.06,1.81-2.06h0.6c0.94,0,1.68,0.45,1.68,1.74v1.25L-653.17,454.88z
				 M-653.23,453.38c0-0.65-0.29-0.97-0.87-0.97h-0.69c-0.69,0-0.88,0.4-0.88,1.11v0.74h2.44V453.38z"/>
			<path class="st3" d="M-647.8,457.61l-0.07-0.55h-0.07c-0.19,0.39-0.56,0.68-1.27,0.68h-0.56c-0.85,0-1.39-0.58-1.39-1.38v-0.57
				c0-1.08,0.83-1.53,1.72-1.53h1.41v-1c0-0.64-0.23-0.75-0.81-0.75h-1.93V452c0.33-0.18,0.96-0.24,1.34-0.24h0.74
				c0.91,0,1.5,0.32,1.5,1.43v3.16c0,0.64,0.05,0.9,0.11,1.27H-647.8z M-648.02,454.88h-1.27c-0.65,0-1.02,0.19-1.02,0.88v0.53
				c0,0.61,0.37,0.77,0.8,0.77h0.54c0.48,0,0.95-0.26,0.95-1.01V454.88z"/>
			<path class="st3" d="M-642.28,457.61v-4.53c0-0.5-0.3-0.56-0.66-0.56h-0.69c-0.45,0-0.76,0.11-0.93,0.19v4.91h-0.84v-5.72h0.79
				l0.03,0.43c0.34-0.35,0.83-0.56,1.34-0.56h0.43c0.74,0,1.36,0.32,1.36,1.28v4.58H-642.28z"/>
			<path class="st3" d="M-635.66,454.58v1.88h-0.65v-1.88h-1.66v-0.65h1.65v-1.87h0.65v1.87h1.66v0.65H-635.66z"/>
			<path class="st3" d="M-630.49,457.61v-7.61h3.81v0.68h-2.93v2.65h2.12v0.69h-2.12v2.9h2.93v0.68H-630.49z"/>
			<path class="st3" d="M-622.15,457.61v-4.53c0-0.5-0.3-0.56-0.66-0.56h-0.69c-0.45,0-0.76,0.11-0.93,0.19v4.91h-0.84v-5.72h0.79
				l0.03,0.43c0.34-0.35,0.83-0.56,1.34-0.56h0.43c0.74,0,1.36,0.32,1.36,1.28v4.58H-622.15z"/>
			<path class="st3" d="M-617.57,460.03h-0.73c-0.47,0-0.99-0.07-1.24-0.25v-0.48h2.07c0.66,0,0.98-0.31,0.98-1.06v-1.28
				c-0.3,0.38-0.8,0.51-1.3,0.51h-0.24c-1.28,0-1.67-0.65-1.67-1.67v-2.37c0-1.14,0.71-1.67,1.63-1.67h0.47
				c0.36,0,0.86,0.09,1.2,0.43l0.11-0.3h0.64v6.28C-615.66,459.53-616.39,460.03-617.57,460.03z M-616.5,452.69
				c-0.26-0.14-0.58-0.24-1.08-0.24h-0.48c-0.54,0-0.81,0.29-0.81,0.86v2.62c0,0.68,0.4,0.84,0.86,0.84h0.35
				c0.62,0,0.9-0.1,1.17-0.24V452.69z"/>
			<path class="st3" d="M-613.81,457.61v-8.05h0.84v8.05H-613.81z"/>
			<path class="st3" d="M-611.13,450.62v-1.07h0.84v1.07H-611.13z M-611.13,457.61v-5.72h0.84v5.72H-611.13z"/>
			<path class="st3" d="M-606.73,457.74h-0.83c-0.3,0-0.71-0.07-1.01-0.23v-0.47h1.71c0.76,0,0.8-0.4,0.8-0.71v-0.62
				c0-0.47-0.18-0.53-0.58-0.58l-0.81-0.11c-0.66-0.09-1.22-0.39-1.22-1.21v-0.69c0-0.72,0.53-1.35,1.58-1.35h0.57
				c0.3,0,0.71,0.07,1.01,0.23v0.47h-1.49c-0.71,0-0.85,0.32-0.85,0.73v0.48c0,0.45,0.25,0.52,0.56,0.56l0.87,0.12
				c0.8,0.12,1.19,0.45,1.19,1.28v0.66C-605.22,457.24-605.89,457.74-606.73,457.74z"/>
			<path class="st3" d="M-600.56,457.61v-4.53c0-0.5-0.3-0.56-0.66-0.56h-0.69c-0.45,0-0.76,0.11-0.93,0.19v4.91h-0.84v-8.05h0.84
				v2.76c0.34-0.35,0.81-0.56,1.33-0.56h0.43c0.74,0,1.36,0.32,1.36,1.28v4.58H-600.56z"/>
		</g>
	</g>
	<g>
		<path class="st5" d="M-667.52,377.21l2.85,6.67h-1.38l-2.3-5.55l-1.26,1.89v3.67h-1.28v-11.08h1.28v5.73l3.75-5.73h1.33
			L-667.52,377.21z"/>
		<path class="st5" d="M-659.97,384.08h-0.59c-1.84,0-2.69-0.75-2.69-2.63v-3.44c0-1.87,0.85-2.64,2.69-2.64h0.59
			c1.78,0,2.74,0.7,2.74,2.54v3.62C-657.23,383.37-658.2,384.08-659.97,384.08z M-658.45,377.85c0-0.96-0.27-1.52-1.31-1.52h-0.96
			c-1.04,0-1.31,0.53-1.31,1.49v3.81c0,0.96,0.27,1.49,1.31,1.49h0.96c1.04,0,1.31-0.56,1.31-1.52V377.85z"/>
		<path class="st5" d="M-651.33,376.62c-1.2,0-1.67,0.19-2.23,0.4v6.87h-1.28v-8.32h1.17l0.08,0.69c0.56-0.45,1.36-0.78,2.11-0.78
			c0.24,0,0.56,0.02,0.88,0.06v1.09H-651.33z"/>
		<path class="st5" d="M-644.47,379.92h-3.65v1.44c0,1.02,0.02,1.7,1.42,1.7h2.9v0.56c-0.34,0.27-0.98,0.46-1.66,0.46h-1.36
			c-1.49,0-2.51-0.63-2.51-2.64v-3.07c0-2.3,0.83-2.99,2.64-2.99h0.88c1.36,0,2.45,0.66,2.45,2.53v1.82L-644.47,379.92z
			 M-644.56,377.74c0-0.94-0.42-1.41-1.26-1.41h-1.01c-1.01,0-1.28,0.58-1.28,1.62v1.07h3.55V377.74z"/>
		<path class="st5" d="M-636.66,383.89l-0.1-0.8h-0.1c-0.27,0.56-0.82,0.99-1.84,0.99h-0.82c-1.23,0-2.02-0.85-2.02-2v-0.83
			c0-1.57,1.2-2.23,2.5-2.23h2.05v-1.46c0-0.93-0.34-1.09-1.18-1.09h-2.8v-0.75c0.48-0.26,1.39-0.35,1.95-0.35h1.07
			c1.33,0,2.18,0.46,2.18,2.08v4.59c0,0.93,0.08,1.31,0.16,1.84H-636.66z M-636.98,379.92h-1.84c-0.94,0-1.49,0.27-1.49,1.28v0.77
			c0,0.88,0.54,1.12,1.17,1.12h0.78c0.7,0,1.38-0.38,1.38-1.47V379.92z"/>
		<path class="st5" d="M-628.63,383.89v-6.59c0-0.72-0.43-0.82-0.96-0.82h-1.01c-0.66,0-1.1,0.16-1.36,0.27v7.14h-1.22v-8.32h1.15
			l0.05,0.62c0.5-0.51,1.2-0.82,1.95-0.82h0.62c1.07,0,1.99,0.46,1.99,1.86v6.66H-628.63z"/>
		<path class="st5" d="M-619,379.48v2.74h-0.94v-2.74h-2.42v-0.94h2.4v-2.72h0.94v2.72h2.42v0.94H-619z"/>
		<path class="st5" d="M-611.48,383.89v-11.08h5.54v0.99h-4.26v3.86h3.09v1.01h-3.09v4.23h4.26v0.99H-611.48z"/>
		<path class="st5" d="M-599.35,383.89v-6.59c0-0.72-0.43-0.82-0.96-0.82h-1.01c-0.66,0-1.1,0.16-1.36,0.27v7.14h-1.22v-8.32h1.15
			l0.05,0.62c0.5-0.51,1.2-0.82,1.95-0.82h0.62c1.07,0,1.99,0.46,1.99,1.86v6.66H-599.35z"/>
		<path class="st5" d="M-592.69,387.41h-1.06c-0.69,0-1.44-0.1-1.81-0.37v-0.7h3.01c0.96,0,1.42-0.45,1.42-1.54v-1.86
			c-0.43,0.56-1.17,0.74-1.89,0.74h-0.35c-1.86,0-2.43-0.94-2.43-2.43v-3.44c0-1.67,1.04-2.43,2.37-2.43h0.69
			c0.53,0,1.25,0.13,1.74,0.62l0.16-0.43h0.93v9.14C-589.91,386.69-590.96,387.41-592.69,387.41z M-591.12,376.73
			c-0.38-0.21-0.85-0.35-1.57-0.35h-0.7c-0.78,0-1.18,0.42-1.18,1.25v3.81c0,0.99,0.58,1.22,1.25,1.22h0.51
			c0.9,0,1.31-0.14,1.7-0.35V376.73z"/>
		<path class="st5" d="M-587.22,383.89v-11.72h1.22v11.72H-587.22z"/>
		<path class="st5" d="M-583.32,373.72v-1.55h1.22v1.55H-583.32z M-583.32,383.89v-8.32h1.22v8.32H-583.32z"/>
		<path class="st5" d="M-576.92,384.08h-1.2c-0.43,0-1.04-0.1-1.47-0.34v-0.69h2.48c1.1,0,1.17-0.58,1.17-1.04v-0.9
			c0-0.69-0.26-0.77-0.85-0.85l-1.18-0.16c-0.96-0.13-1.78-0.56-1.78-1.76v-1.01c0-1.04,0.77-1.97,2.31-1.97h0.83
			c0.43,0,1.04,0.1,1.47,0.34v0.69h-2.16c-1.04,0-1.23,0.46-1.23,1.06v0.7c0,0.66,0.37,0.75,0.82,0.82l1.27,0.18
			c1.17,0.18,1.73,0.66,1.73,1.86v0.96C-574.72,383.36-575.7,384.08-576.92,384.08z"/>
		<path class="st5" d="M-567.94,383.89v-6.59c0-0.72-0.43-0.82-0.96-0.82h-1.01c-0.66,0-1.1,0.16-1.36,0.27v7.14h-1.22v-11.72h1.22
			v4.02c0.5-0.51,1.18-0.82,1.94-0.82h0.62c1.07,0,1.99,0.46,1.99,1.86v6.66H-567.94z"/>
	</g>
	<g>
		<g>
			<path class="st6" d="M-628.08,583.4L-628.08,583.4c-5.87,0-10.63,4.76-10.63,10.63c0,0,0,0,0,0v0v28.35
				c0,5.87,4.76,10.63,10.63,10.63h0h0h17.71v-10.63h-14.17c-1.96,0-3.54-1.59-3.54-3.54v-21.26c0-1.96,1.59-3.54,3.54-3.54h14.17
				V583.4H-628.08L-628.08,583.4z M-496.98,594.03V583.4h-17.71h0h0c-5.87,0-10.63,4.76-10.63,10.63c0,0,0,0,0,0v0v28.35
				c0,5.87,4.76,10.63,10.63,10.63h0h0h17.71v-10.63h-14.17c-1.96,0-3.54-1.59-3.54-3.54v-21.26c0-1.96,1.59-3.54,3.54-3.54H-496.98
				z"/>
			<g>
				<path class="st6" d="M-571.39,586.95L-571.39,586.95c0-1.96-1.59-3.54-3.54-3.54h0h0h-17.71l0,0h-10.63v67.32h10.63v-17.72l0,0
					v-10.63l0,0v-28.35h8.86c0.98,0,1.77,0.79,1.77,1.77v24.81c0,0.98-0.79,1.77-1.77,1.77h-8.86c0,5.87,4.76,10.63,10.63,10.63
					h7.09h0c1.96,0,3.54-1.59,3.54-3.54v0v-6.22l0,0v-29.21l0,0V586.95L-571.39,586.95z"/>
				<path class="st6" d="M-532.41,586.95L-532.41,586.95c0-1.96-1.59-3.54-3.54-3.54h0h0h-7.09c-5.87,0-10.63,4.76-10.63,10.63
					V583.4l0,0v-17.72h-10.63v67.32h0l0,0h28.34h0c1.96,0,3.54-1.59,3.54-3.54v0v-4.38l0,0v-31.05l0,0V586.95L-532.41,586.95z
					 M-543.04,620.61c0,0.98-0.79,1.77-1.77,1.77h-8.86v-28.35h8.86c0.98,0,1.77,0.79,1.77,1.77V620.61z"/>
			</g>
		</g>
		<g>
			<path class="st3" d="M-477.76,619.38h-0.96c-3.01,0-4.08,1.08-4.08,4.12v5.63c0,2.99,1.11,4.1,4.08,4.1h0.96
				c0.52,0,1.79-0.05,2.26-0.53l0.05-0.06v-1.04h-3.52c-1.52,0-1.96-0.49-1.96-2.18v-6.15c0-1.85,0.37-2.28,1.96-2.28h3.52v-1.07
				l-0.07-0.06C-476.08,619.43-477.27,619.38-477.76,619.38z"/>
			<path class="st3" d="M-467.02,630.66v-5.4c0-2.36-1.57-2.64-2.75-2.64h-1.26c-0.58,0-1.74,0.09-2.38,0.44l-0.1,0.05v1.19h3.48
				c0.93,0,1.2,0.14,1.2,1.09v1.52h-2.22c-1.44,0-3.13,0.73-3.13,2.8v0.98c0,1.5,1.05,2.54,2.56,2.54h0.96
				c0.98,0,1.69-0.32,2.14-0.94l0.08,0.71h1.63l-0.07-0.44C-466.95,632.05-467.02,631.6-467.02,630.66z M-468.82,628.34v1.81
				c0,1.34-0.9,1.54-1.43,1.54h-0.92c-0.81,0-1.19-0.36-1.19-1.13v-0.9c0-0.96,0.42-1.32,1.56-1.32H-468.82z"/>
			<path class="st3" d="M-462.14,630.75v-6.17h2.47v-1.45h-2.47v-2.92l-1.81,0.21v2.71h-1.49v1.45h1.49V631
				c0,2.01,1.5,2.24,2.63,2.24c0.71,0,1.32-0.13,1.8-0.38l0.1-0.05v-1.09h-1.96C-462.08,631.71-462.14,631.28-462.14,630.75z"/>
			<path class="st3" d="M-453.13,622.62h-0.73c-0.77,0-1.5,0.25-2.09,0.72v-4.49h-1.81v14.15h1.81v-8.46
				c0.44-0.17,0.9-0.26,1.41-0.26h1.19c0.64,0,0.94,0.12,0.94,0.77v7.94h1.81v-8.02C-450.6,623.46-451.5,622.62-453.13,622.62z"/>
			<path class="st3" d="M-444.19,622.62h-0.7c-2.32,0-3.35,1.02-3.35,3.29v4.05c0,2.26,1.03,3.28,3.35,3.28h0.7
				c2.33,0,3.41-1.01,3.41-3.18v-4.25C-440.78,623.63-441.86,622.62-444.19,622.62z M-446.42,625.69c0-1.15,0.35-1.56,1.35-1.56
				h1.13c1,0,1.35,0.42,1.35,1.6v4.4c0,1.18-0.35,1.6-1.35,1.6h-1.13c-1,0-1.35-0.41-1.35-1.56V625.69z"/>
			<rect x="-438.33" y="618.86" class="st3" width="1.81" height="14.15"/>
			<rect x="-433.74" y="622.85" class="st3" width="1.81" height="10.16"/>
			<rect x="-433.74" y="618.86" class="st3" width="1.81" height="2.2"/>
			<path class="st3" d="M-425.32,622.62H-426c-3.06,0-3.48,1.77-3.48,3.69v3.39c0,2.51,1.01,3.54,3.48,3.54h0.49
				c0.64,0,1.54-0.08,2.13-0.46l0.09-0.06v-1.06h-2.47c-0.1,0-0.2,0-0.29,0c-0.93,0.02-1.61,0.06-1.61-1.73v-3.84
				c0-1.61,0.43-1.88,1.41-1.88h2.96v-1.09l-0.09-0.05C-423.88,622.78-424.57,622.62-425.32,622.62z"/>
			<path class="st3" d="M-413.79,619.61h-4.61v13.4h1.88v-5.08h2.62c2.27,0,3.58-1.23,3.58-3.37v-1.62
				C-410.32,620.79-411.55,619.61-413.79,619.61z M-416.52,621.15h2.41c1.39,0,1.9,0.56,1.9,2.05v1.11c0,1.39-0.25,2.01-1.75,2.01
				h-2.56V621.15z"/>
			<path class="st3" d="M-404,622.62h-1.04c-2.37,0-3.29,1.04-3.29,3.71v3.61c0,2.22,1.03,3.29,3.14,3.29h1.6
				c0.83,0,1.63-0.23,2.08-0.59l0.07-0.06v-0.94h-3.6c-1.49,0-1.49-0.6-1.49-1.81v-1.5l4.13,0l1.46-0.25v-2.3
				C-400.93,623.74-402.02,622.62-404,622.62z M-406.52,625.84c0-1.26,0.34-1.71,1.32-1.71h1.19c0.89,0,1.3,0.47,1.3,1.47v1.32h-3.8
				V625.84z"/>
			<path class="st3" d="M-391.99,630.66v-5.4c0-2.36-1.57-2.64-2.75-2.64H-396c-0.58,0-1.74,0.09-2.38,0.44l-0.1,0.05v1.19h3.48
				c0.93,0,1.2,0.14,1.2,1.09v1.52h-2.22c-1.44,0-3.13,0.73-3.13,2.8v0.98c0,1.5,1.05,2.54,2.56,2.54h0.96
				c0.98,0,1.69-0.32,2.14-0.94l0.09,0.71h1.63l-0.07-0.43C-391.92,632.05-391.99,631.6-391.99,630.66z M-393.8,628.34v1.81
				c0,1.34-0.9,1.54-1.43,1.54h-0.92c-0.81,0-1.19-0.36-1.19-1.13v-0.9c0-0.96,0.42-1.32,1.56-1.32H-393.8z"/>
			<path class="st3" d="M-385.5,622.62h-0.68c-3.06,0-3.48,1.77-3.48,3.69v3.39c0,2.51,1.01,3.54,3.48,3.54h0.49
				c0.64,0,1.54-0.08,2.13-0.46l0.09-0.06v-1.06h-2.47c-0.1,0-0.2,0-0.29,0c-0.93,0.02-1.61,0.06-1.61-1.73v-3.84
				c0-1.61,0.43-1.88,1.41-1.88h2.96v-1.09l-0.09-0.05C-384.05,622.78-384.74,622.62-385.5,622.62z"/>
			<path class="st3" d="M-377.59,622.62h-1.04c-2.37,0-3.29,1.04-3.29,3.71v3.61c0,2.22,1.03,3.29,3.14,3.29h1.6
				c0.83,0,1.63-0.23,2.08-0.59l0.07-0.06v-0.94h-3.6c-1.49,0-1.49-0.6-1.49-1.81v-1.5l4.13,0l1.46-0.25v-2.3
				C-374.52,623.74-375.61,622.62-377.59,622.62z M-380.11,625.84c0-1.26,0.34-1.71,1.32-1.71h1.19c0.89,0,1.3,0.47,1.3,1.47v1.32
				h-3.8V625.84z"/>
			<path class="st3" d="M-363.01,626.19c1.14-0.41,1.55-1.17,1.55-2.76v-1.32c0-1.15-0.78-2.5-2.97-2.5h-4.71v13.4h4.46
				c1.46,0,3.41-0.31,3.41-2.97v-1.49C-361.27,627.33-361.89,626.5-363.01,626.19z M-363.25,623.71c0,1.45-0.65,1.75-1.64,1.75
				h-2.37v-4.31h2.31c1.43,0,1.69,0.47,1.69,1.41V623.71z M-367.26,627.08h2.35c1.31,0,1.75,0.41,1.75,1.64v1.3
				c0,1.11-0.38,1.45-1.64,1.45h-2.46V627.08z"/>
			<path class="st3" d="M-354.69,622.73c-0.76,0-1.63,0.29-2.33,0.77l-0.08-0.65h-1.73v10.16h1.88v-8.13
				c0.6-0.22,1.14-0.41,2.43-0.41h1.05v-1.63l-0.16-0.02C-354.07,622.74-354.48,622.73-354.69,622.73z"/>
			<path class="st3" d="M-348.3,622.62h-0.7c-2.32,0-3.35,1.02-3.35,3.29v4.05c0,2.26,1.03,3.28,3.35,3.28h0.7
				c2.32,0,3.41-1.01,3.41-3.18v-4.25C-344.9,623.63-345.98,622.62-348.3,622.62z M-350.54,625.69c0-1.15,0.35-1.56,1.35-1.56h1.13
				c1,0,1.35,0.42,1.35,1.6v4.4c0,1.18-0.35,1.6-1.35,1.6h-1.13c-1,0-1.35-0.41-1.35-1.56V625.69z"/>
			<path class="st3" d="M-335.88,630.66v-5.4c0-2.36-1.57-2.64-2.75-2.64h-1.26c-0.58,0-1.74,0.09-2.38,0.44l-0.1,0.05v1.19h3.48
				c0.93,0,1.2,0.14,1.2,1.09v1.52h-2.22c-1.44,0-3.13,0.73-3.13,2.8v0.98c0,1.5,1.05,2.54,2.56,2.54h0.96
				c0.98,0,1.69-0.32,2.14-0.94l0.09,0.71h1.63l-0.07-0.44C-335.81,632.05-335.88,631.6-335.88,630.66z M-337.69,628.34v1.81
				c0,1.34-0.9,1.54-1.43,1.54h-0.92c-0.81,0-1.19-0.36-1.19-1.13v-0.9c0-0.96,0.42-1.32,1.56-1.32H-337.69z"/>
			<path class="st3" d="M-328.05,623.17c-0.52-0.4-1.3-0.55-1.9-0.55h-0.64c-1.85,0-2.96,1.13-2.96,3.03v4.69
				c0,1.95,1.02,2.9,3.13,2.9h0.3c0.68,0,1.56-0.2,2.16-0.74l0.06,0.52h1.65v-14.15h-1.81V623.17z M-329.71,624.18
				c0.67,0,1.18,0.11,1.66,0.34v6.81c-0.42,0.21-0.89,0.34-1.81,0.34h-0.6c-0.9,0-1.28-0.37-1.28-1.24v-4.97
				c0-0.87,0.38-1.28,1.2-1.28H-329.71z"/>
			<path class="st3" d="M-319.64,622.62h-0.68c-3.06,0-3.48,1.77-3.48,3.69v3.39c0,2.51,1.01,3.54,3.48,3.54h0.49
				c0.64,0,1.54-0.08,2.13-0.46l0.09-0.06v-1.06h-2.47c-0.1,0-0.2,0-0.29,0c-0.93,0.02-1.61,0.06-1.61-1.73v-3.84
				c0-1.61,0.43-1.88,1.41-1.88h2.96v-1.09l-0.1-0.05C-318.19,622.78-318.88,622.62-319.64,622.62z"/>
			<path class="st3" d="M-309.15,630.66v-5.4c0-2.36-1.57-2.64-2.75-2.64h-1.26c-0.58,0-1.74,0.09-2.38,0.44l-0.1,0.05v1.19h3.48
				c0.93,0,1.2,0.14,1.2,1.09v1.52h-2.22c-1.44,0-3.13,0.73-3.13,2.8v0.98c0,1.5,1.05,2.54,2.56,2.54h0.96
				c0.98,0,1.69-0.32,2.14-0.94l0.09,0.71h1.63l-0.07-0.44C-309.08,632.05-309.15,631.6-309.15,630.66z M-310.96,628.34v1.81
				c0,1.34-0.9,1.54-1.43,1.54h-0.92c-0.81,0-1.18-0.36-1.18-1.13v-0.9c0-0.96,0.42-1.32,1.56-1.32H-310.96z"/>
			<path class="st3" d="M-302.78,627.06l-1.49-0.21c-0.54-0.08-0.8-0.18-0.8-0.77v-0.83c0-0.67,0.21-1.05,1.26-1.05h2.73v-1.11
				l-0.1-0.05c-0.56-0.31-1.31-0.42-1.82-0.42h-0.98c-2,0-2.9,1.26-2.9,2.5v1.19c0,1.3,0.76,2.06,2.25,2.26l1.39,0.19
				c0.66,0.09,0.83,0.14,0.83,0.81v1.05c0,0.57-0.09,1.03-1.19,1.03h-3.11v1.11l0.1,0.05c0.56,0.31,1.31,0.42,1.82,0.42h1.41
				c1.68,0,2.77-1.05,2.77-2.67v-1.13C-300.59,628.01-301.24,627.3-302.78,627.06z"/>
			<path class="st3" d="M-296.13,630.75v-6.17h2.47v-1.45h-2.47v-2.92l-1.81,0.21v2.71h-1.49v1.45h1.49V631
				c0,2.01,1.5,2.24,2.63,2.24c0.71,0,1.32-0.13,1.8-0.38l0.1-0.05v-1.09h-1.96C-296.07,631.71-296.13,631.28-296.13,630.75z"/>
			<rect x="-291.74" y="622.85" class="st3" width="1.81" height="10.16"/>
			<rect x="-291.74" y="618.86" class="st3" width="1.81" height="2.2"/>
			<path class="st3" d="M-282.52,622.62h-0.73c-0.78,0-1.54,0.27-2.14,0.75l-0.04-0.52h-1.72v10.16h1.81v-8.46
				c0.44-0.17,0.9-0.26,1.41-0.26h1.19c0.64,0,0.94,0.12,0.94,0.77v7.94h1.81v-8.02C-280,623.46-280.89,622.62-282.52,622.62z"/>
			<path class="st3" d="M-271.87,623.22c-0.66-0.52-1.5-0.6-1.97-0.6h-0.81c-1.83,0-2.97,1.17-2.97,3.05v4.05
				c0,2.08,0.97,3.05,3.05,3.05h0.41c0.85,0,1.55-0.2,2.03-0.6v1.72c0,1.15-0.43,1.62-1.49,1.62h-3.73v1.11l0.08,0.06
				c0.55,0.41,1.64,0.47,2.24,0.47h1.24c2.33,0,3.46-1.1,3.46-3.37v-10.94h-1.41L-271.87,623.22z M-272.13,624.52v6.32
				c-0.42,0.21-0.89,0.34-1.81,0.34h-0.6c-0.9,0-1.28-0.37-1.28-1.24v-4.48c0-0.87,0.38-1.28,1.2-1.28h0.83
				C-273.12,624.18-272.6,624.29-272.13,624.52z"/>
			<path class="st3" d="M-259.75,619.38h-0.96c-3.02,0-4.08,1.08-4.08,4.12v5.63c0,2.99,1.11,4.1,4.08,4.1h0.96
				c0.52,0,1.79-0.05,2.26-0.53l0.06-0.06v-1.04h-3.52c-1.52,0-1.96-0.49-1.96-2.18v-6.15c0-1.85,0.37-2.28,1.96-2.28h3.52v-1.07
				l-0.07-0.06C-258.06,619.43-259.26,619.38-259.75,619.38z"/>
			<path class="st3" d="M-251.86,622.62h-0.7c-2.32,0-3.35,1.02-3.35,3.29v4.05c0,2.26,1.03,3.28,3.35,3.28h0.7
				c2.32,0,3.41-1.01,3.41-3.18v-4.25C-248.45,623.63-249.53,622.62-251.86,622.62z M-254.1,625.69c0-1.15,0.35-1.56,1.35-1.56h1.13
				c1,0,1.35,0.42,1.35,1.6v4.4c0,1.18-0.35,1.6-1.35,1.6h-1.13c-1,0-1.35-0.41-1.35-1.56V625.69z"/>
			<path class="st3" d="M-241.86,622.73c-0.76,0-1.63,0.29-2.33,0.77l-0.08-0.65H-246v10.16h1.88v-8.13
				c0.6-0.22,1.14-0.41,2.43-0.41h1.05v-1.63l-0.16-0.02C-241.25,622.74-241.66,622.73-241.86,622.73z"/>
			<path class="st3" d="M-234.81,622.64h-0.51c-0.6,0-1.47,0.21-2.17,0.67l-0.06-0.47h-1.65V637h1.81v-4.31
				c0.41,0.36,0.93,0.54,1.56,0.54h1.22c1.35,0,2.71-0.93,2.71-2.99v-4.82C-231.89,623.6-232.9,622.64-234.81,622.64z
				 M-233.69,625.44v4.97c0,0.87-0.38,1.28-1.2,1.28h-0.83c-0.67,0-1.18-0.11-1.66-0.34v-6.81c0.42-0.21,0.89-0.34,1.81-0.34h0.6
				C-234.08,624.2-233.69,624.57-233.69,625.44z"/>
			<path class="st3" d="M-225.73,622.62h-0.7c-2.32,0-3.35,1.02-3.35,3.29v4.05c0,2.26,1.03,3.28,3.35,3.28h0.7
				c2.32,0,3.41-1.01,3.41-3.18v-4.25C-222.33,623.63-223.41,622.62-225.73,622.62z M-227.97,625.69c0-1.15,0.35-1.56,1.36-1.56
				h1.13c1,0,1.35,0.42,1.35,1.6v4.4c0,1.18-0.35,1.6-1.35,1.6h-1.13c-1,0-1.36-0.41-1.36-1.56V625.69z"/>
			<path class="st3" d="M-215.74,622.73c-0.76,0-1.63,0.29-2.33,0.77l-0.08-0.65h-1.73v10.16h1.88v-8.13
				c0.6-0.22,1.14-0.41,2.43-0.41h1.05v-1.63l-0.16-0.02C-215.12,622.74-215.53,622.73-215.74,622.73z"/>
			<path class="st3" d="M-206.5,630.66v-5.4c0-2.36-1.57-2.64-2.75-2.64h-1.26c-0.58,0-1.74,0.09-2.38,0.44l-0.1,0.05v1.19h3.48
				c0.93,0,1.2,0.14,1.2,1.09v1.52h-2.22c-1.44,0-3.13,0.73-3.13,2.8v0.98c0,1.5,1.05,2.54,2.56,2.54h0.96
				c0.98,0,1.69-0.32,2.14-0.94l0.09,0.71h1.63l-0.07-0.43C-206.43,632.05-206.5,631.6-206.5,630.66z M-208.3,628.34v1.81
				c0,1.34-0.9,1.54-1.43,1.54h-0.92c-0.81,0-1.18-0.36-1.18-1.13v-0.9c0-0.96,0.42-1.32,1.56-1.32H-208.3z"/>
			<path class="st3" d="M-201.62,630.75v-6.17h2.47v-1.45h-2.47v-2.92l-1.81,0.21v2.71h-1.49v1.45h1.49V631
				c0,2.01,1.5,2.24,2.64,2.24c0.71,0,1.32-0.13,1.8-0.38l0.1-0.05v-1.09h-1.96C-201.56,631.71-201.62,631.28-201.62,630.75z"/>
			<rect x="-197.24" y="618.86" class="st3" width="1.81" height="2.2"/>
			<rect x="-197.24" y="622.85" class="st3" width="1.81" height="10.16"/>
			<path class="st3" d="M-188.94,622.62h-0.7c-2.32,0-3.35,1.02-3.35,3.29v4.05c0,2.26,1.03,3.28,3.35,3.28h0.7
				c2.32,0,3.41-1.01,3.41-3.18v-4.25C-185.53,623.63-186.61,622.62-188.94,622.62z M-191.17,625.69c0-1.15,0.35-1.56,1.35-1.56
				h1.13c1,0,1.35,0.42,1.35,1.6v4.4c0,1.18-0.35,1.6-1.35,1.6h-1.13c-1,0-1.35-0.41-1.35-1.56V625.69z"/>
			<path class="st3" d="M-178.45,622.62h-0.73c-0.78,0-1.54,0.27-2.14,0.75l-0.04-0.52h-1.72v10.16h1.81v-8.46
				c0.44-0.17,0.9-0.26,1.41-0.26h1.19c0.64,0,0.94,0.12,0.94,0.77v7.94h1.81v-8.02C-175.93,623.46-176.82,622.62-178.45,622.62z"/>
		</g>
		<g>
			<g>
				<g>
					<polygon class="st3" points="-464.3,611.76 -464.3,583.4 -461.01,583.4 -461.01,593.38 -456.67,593.38 -456.67,596.33 
						-461.01,596.33 -461.01,611.76 					"/>
					<path class="st3" d="M-482.81,602.8l0.12-0.07c9.62-5.76,10.05-7.29,10.05-11.74v-1.34c0-0.68-0.53-1.25-1.21-1.31l-8.36,0
						v-2.91h9.7c1.72,0,3.12,1.4,3.13,3.13v2.46c0,5.74-0.46,7.52-11.58,14.39l-0.11,0.07L-482.81,602.8z"/>
				</g>
				<g>
					<path class="st3" d="M-449.62,611.95c-1.66,0-3.01-1.35-3.01-3.01v-4.08h15.84v-1.58h-15.85v-2.76h19.08v7.03h-15.84v0.33
						c0,0.72,0.59,1.31,1.31,1.31h14.53v2.76H-449.62z"/>
					<path class="st3" d="M-456.14,599.04v-2.82h11.4v-1.77h-4.52c-1.7,0-3.09-1.39-3.09-3.09v-7.96H-434v2.76h-15.13v1.42h14.97
						v2.66h-14.97v0.14c0,0.72,0.59,1.31,1.31,1.31h13.97v2.76h-7.58v1.77h11.4v2.82H-456.14z"/>
				</g>
				<g>
					<path class="st3" d="M-409.66,612.05v-6c-0.02-0.66-0.53-1.21-1.19-1.27l-14.99,0v-2.91h16.35c1.71,0,3.11,1.4,3.11,3.11v7.07
						H-409.66z"/>
					<rect x="-409.63" y="583.4" class="st3" width="3.26" height="17.23"/>
					<path class="st3" d="M-425.06,598.92c-1.7,0-3.09-1.39-3.09-3.09v-5.78h9.56v-1.8c0-0.72-0.59-1.31-1.31-1.31h-8.35v-2.88h9.8
						c1.72,0,3.11,1.4,3.11,3.11v5.69h-9.56v1.86c0,0.72,0.59,1.31,1.31,1.31h1.13c3.34,0,6.16-0.09,9.95-0.56l0.13-0.02l0.3,2.82
						l-0.13,0.02c-3.21,0.41-5.84,0.63-10.56,0.63H-425.06z"/>
				</g>
				<g>
					<path class="st3" d="M-387.08,600.4c-6.06,0-8.78,2.76-8.78,5.5v1.22c0,3.27,3.53,5.46,8.78,5.46c5.25,0,8.78-2.2,8.78-5.46
						v-1.22C-378.3,603.16-381.01,600.4-387.08,600.4z M-381.52,606.86c0,1.41-2.12,2.93-5.55,2.93c-3.43,0-5.55-1.52-5.55-2.93
						v-0.75c0-1.41,2.12-2.92,5.55-2.92c3.43,0,5.55,1.52,5.55,2.92V606.86z"/>
					<polygon class="st3" points="-381.68,600.29 -381.68,594.71 -385.68,594.71 -385.68,591.79 -381.68,591.79 -381.68,590.43 
						-385.68,590.43 -385.68,587.52 -381.68,587.52 -381.68,583.4 -378.42,583.4 -378.42,600.29 					"/>
					<path class="st3" d="M-384.64,595.56l-0.13,0.01c-1.42,0.14-2.46,0.22-3.55,0.27v-5.99c-0.08-1.14-0.8-2.09-1.79-2.54h4.45
						v-2.79h-15.63v2.79h2.69v8.75h-2.87v2.79l0.13,0c9.77-0.06,13.09-0.22,16.82-0.56l0.13-0.01L-384.64,595.56z M-391.49,595.98
						l-3.96,0.09v-5.99c0-1.23-0.74-2.29-1.79-2.76h5.75V595.98z"/>
				</g>
				<g>
					<path class="st3" d="M-333.81,600.28c-5.16,0-8.63,2.22-8.63,5.53v1.25c0,3.31,3.47,5.53,8.63,5.53c5.16,0,8.63-2.22,8.63-5.53
						v-1.25C-325.18,602.5-328.65,600.28-333.81,600.28z M-328.41,606.86c0,1.41-2.06,2.93-5.4,2.93c-3.34,0-5.4-1.52-5.4-2.93
						v-0.87c0-1.41,2.07-2.93,5.4-2.93c3.34,0,5.4,1.52,5.4,2.93V606.86z"/>
					<polygon class="st3" points="-328.56,600.16 -328.56,583.4 -325.31,583.4 -325.31,589.42 -321.3,589.42 -321.3,592.37 
						-325.31,592.37 -325.31,600.16 					"/>
					<path class="st3" d="M-336.23,584.15v4.65h-4.53c-1.08,0-2.01,0.63-2.45,1.55v-6.2h-3.22v14.01h7.76
						c1.08,0,2.01-0.64,2.45-1.55v1.55h3.23v-14.01H-336.23z M-336.23,595.29h-6.98v-3.64h6.98V595.29z"/>
				</g>
				<g>
					<path class="st3" d="M-307.96,600.9c-5.34,0-8.93,2.13-8.93,5.31v1.06c0,3.13,3.67,5.31,8.93,5.31c5.26,0,8.93-2.18,8.93-5.31
						v-1.06C-299.03,603.08-302.7,600.9-307.96,600.9z M-302.28,607.08c0,1.33-2.12,2.71-5.68,2.71s-5.68-1.38-5.68-2.71v-0.69
						c0-1.33,2.12-2.71,5.68-2.71s5.68,1.38,5.68,2.71V607.08z"/>
					<polygon class="st3" points="-321.02,599.48 -321.02,596.6 -309.62,596.6 -309.62,592.95 -306.3,592.95 -306.3,596.6 
						-294.9,596.6 -294.9,599.48 					"/>
					<path class="st3" d="M-298.17,594.82c-2.26-0.89-4.48-1.85-5.94-2.56c-2.28-1.11-3.44-1.86-3.84-2.5
						c-0.38,0.64-1.48,1.35-3.84,2.5c-1.58,0.77-3.8,1.73-5.94,2.56l-0.11,0.04l-1.27-2.76l0.13-0.05c2.89-1.1,5.18-2.1,6.61-2.89
						c2.08-1.14,2.77-1.87,2.77-3.97v-1.78h3.26v1.78c0,2.04,0.54,2.82,2.77,3.97c1.15,0.59,3.55,1.75,6.65,2.89l0.13,0.05
						l-1.27,2.77L-298.17,594.82z"/>
				</g>
				<g>
					<polygon class="st3" points="-355.46,611.76 -355.46,583.4 -352.2,583.4 -352.2,594.26 -347.98,594.26 -347.98,597.2 
						-352.2,597.2 -352.2,611.76 					"/>
					<path class="st3" d="M-356.86,602.98l-0.13,0.01c-2.58,0.23-4.61,0.4-7.19,0.49v-2.56c3.05-0.54,5.16-2.53,5.16-4.88v-1.19
						c0-2.44-2.43-5.03-6.94-5.03c-4.51,0-6.95,2.59-6.95,5.03v1.19c0,2.48,2.24,4.5,5.47,4.95v2.6c-2.05,0.06-4.4,0.06-7.36,0.06
						h-0.13v2.88h0.13c9.87,0,13.08-0.23,18.07-0.75l0.13-0.01L-356.86,602.98z M-369.71,595.76v-0.62c0-1.25,1.29-2.52,3.75-2.52
						c2.44,0,3.75,1.3,3.75,2.52v0.62c0,1.25-1.29,2.52-3.75,2.52C-368.42,598.28-369.71,597.01-369.71,595.76z"/>
					<polygon class="st3" points="-374.34,588.9 -374.34,585.99 -367.59,585.99 -367.59,583.4 -364.33,583.4 -364.33,585.99 
						-357.88,585.99 -357.88,588.9 					"/>
				</g>
			</g>
			<g>
				<g>
					<path class="st3" d="M-220.73,611.45c-1.72,0-3.11-1.4-3.11-3.11v-6.82h3.29v5.67c0,0.72,0.59,1.31,1.31,1.31h14.59v2.94
						H-220.73z"/>
					<rect x="-208.58" y="583.4" class="st3" width="3.26" height="20.06"/>
					<path class="st3" d="M-228.68,597.92l0.11-0.08c1.98-1.54,3.93-3.23,4.97-4.29c1.49-1.52,1.95-2.66,1.95-4.87v-4.59h3.32v4.46
						c0,1.98,0.14,2.92,1.55,4.24c1.35,1.26,3.14,2.73,5.03,4.14l0.11,0.08l-1.94,2.36l-0.1-0.08c-1.49-1.17-2.94-2.4-4.34-3.59
						l-0.19-0.16c-0.87-0.74-1.41-1.3-1.66-1.72c-0.32,0.63-1.21,1.6-1.98,2.31c-1.15,1.09-2.96,2.65-4.74,4.09l-0.1,0.08
						L-228.68,597.92z"/>
				</g>
				<g>
					<path class="st3" d="M-268.1,600.4c-6.06,0-8.78,2.76-8.78,5.5v1.22c0,3.27,3.53,5.46,8.78,5.46c5.25,0,8.78-2.2,8.78-5.46
						v-1.22C-259.33,603.16-262.04,600.4-268.1,600.4z M-262.55,606.86c0,1.41-2.12,2.93-5.55,2.93c-3.43,0-5.55-1.52-5.55-2.93
						v-0.75c0-1.41,2.12-2.92,5.55-2.92c3.43,0,5.55,1.52,5.55,2.92V606.86z"/>
					<polygon class="st3" points="-262.7,600.29 -262.7,594.71 -266.71,594.71 -266.71,591.79 -262.7,591.79 -262.7,590.43 
						-266.71,590.43 -266.71,587.52 -262.7,587.52 -262.7,583.4 -259.45,583.4 -259.45,600.29 					"/>
					<path class="st3" d="M-265.66,595.56l-0.13,0.01c-1.42,0.14-2.46,0.22-3.55,0.27v-5.99c-0.08-1.14-0.8-2.09-1.79-2.54h4.45
						v-2.79h-15.63v2.79h2.69v8.75h-2.87v2.79l0.13,0c9.77-0.06,13.09-0.22,16.82-0.56l0.13-0.01L-265.66,595.56z M-272.51,595.98
						l-3.96,0.09v-5.99c0-1.23-0.74-2.29-1.79-2.76h5.75V595.98z"/>
				</g>
				<g>
					<path class="st3" d="M-195.86,611.45c-1.71,0-3.11-1.4-3.11-3.11v-5.63h3.29v4.49c0,0.72,0.59,1.31,1.31,1.31h15.26v2.94
						H-195.86z"/>
					<polygon class="st3" points="-190.28,605.56 -190.28,600.01 -202.04,600.01 -202.04,597.13 -175.93,597.13 -175.93,600.01 
						-186.96,600.01 -186.96,605.56 					"/>
					<path class="st3" d="M-179.7,586.86L-179.7,586.86c-0.07-1.66-1.44-2.99-3.11-2.99h-15.47v7.69c0,1.71,1.4,3.11,3.11,3.11
						h15.48v-7.69L-179.7,586.86z M-182.94,591.82h-10.77c-0.72,0-1.31-0.59-1.31-1.31v-3.79h10.77c0.72,0,1.31,0.59,1.31,1.31
						V591.82z"/>
				</g>
				<g>
					<polygon class="st3" points="-236.48,611.76 -236.48,583.4 -233.23,583.4 -233.23,594.26 -229.01,594.26 -229.01,597.2 
						-233.23,597.2 -233.23,611.76 					"/>
					<path class="st3" d="M-237.88,602.98l-0.13,0.01c-2.58,0.23-4.61,0.4-7.19,0.49v-2.56c3.05-0.54,5.16-2.53,5.16-4.88v-1.19
						c0-2.44-2.43-5.03-6.95-5.03c-4.51,0-6.95,2.59-6.95,5.03v1.19c0,2.48,2.24,4.5,5.47,4.95v2.6c-2.05,0.06-4.4,0.06-7.36,0.06
						h-0.13v2.88h0.13c9.87,0,13.08-0.23,18.07-0.75l0.13-0.01L-237.88,602.98z M-250.74,595.76v-0.62c0-1.25,1.29-2.52,3.75-2.52
						s3.75,1.27,3.75,2.52v0.62c0,1.25-1.29,2.52-3.75,2.52C-249.42,598.28-250.74,596.98-250.74,595.76z"/>
					<polygon class="st3" points="-255.37,588.9 -255.37,585.99 -248.61,585.99 -248.61,583.4 -245.36,583.4 -245.36,585.99 
						-238.91,585.99 -238.91,588.9 					"/>
				</g>
			</g>
			<path class="st3" d="M-286.8,597.55c0,1.05-0.85,1.9-1.9,1.9c-1.05,0-1.9-0.85-1.9-1.9c0-1.05,0.85-1.9,1.9-1.9
				C-287.65,595.65-286.8,596.5-286.8,597.55z"/>
		</g>
	</g>
	<g>
		<g>
			<path class="st6" d="M23.03,26.53L23.03,26.53c-5.87,0-10.63,4.76-10.63,10.63c0,0,0,0,0,0v0v28.35
				c0,5.87,4.76,10.63,10.63,10.63h0h0h17.71V65.51H26.57c-1.96,0-3.54-1.59-3.54-3.54V40.7c0-1.96,1.59-3.54,3.54-3.54h14.17V26.53
				H23.03L23.03,26.53z M154.13,37.16V26.53h-17.71h0h0c-5.87,0-10.63,4.76-10.63,10.63c0,0,0,0,0,0v0v28.35
				c0,5.87,4.76,10.63,10.63,10.63h0h0h17.71V65.51h-14.17c-1.96,0-3.54-1.59-3.54-3.54V40.7c0-1.96,1.59-3.54,3.54-3.54H154.13z"/>
			<g>
				<path class="st6" d="M79.72,30.07L79.72,30.07c0-1.96-1.59-3.54-3.54-3.54h0h0H58.46l0,0H47.83v67.32h10.63V76.14l0,0V65.51l0,0
					V37.16h8.86c0.98,0,1.77,0.79,1.77,1.77v24.81c0,0.98-0.79,1.77-1.77,1.77h-8.86c0,5.87,4.76,10.63,10.63,10.63h7.09h0
					c1.96,0,3.54-1.59,3.54-3.54v0v-6.22l0,0V37.16l0,0V30.07L79.72,30.07z"/>
				<path class="st6" d="M118.7,30.07L118.7,30.07c0-1.96-1.59-3.54-3.54-3.54h0h0h-7.09c-5.87,0-10.63,4.76-10.63,10.63V26.53l0,0
					V8.81H86.81v67.32h0l0,0h28.34h0c1.96,0,3.54-1.59,3.54-3.54v0v-4.38l0,0V37.16l0,0V30.07L118.7,30.07z M108.07,63.74
					c0,0.98-0.79,1.77-1.77,1.77h-8.86V37.16h8.86c0.98,0,1.77,0.79,1.77,1.77V63.74z"/>
			</g>
		</g>
		<g>
			<path class="st3" d="M173.35,62.51h-0.96c-3.01,0-4.08,1.08-4.08,4.12v5.63c0,2.99,1.11,4.1,4.08,4.1h0.96
				c0.52,0,1.79-0.05,2.26-0.53l0.05-0.06v-1.04h-3.52c-1.52,0-1.96-0.49-1.96-2.18V66.4c0-1.85,0.37-2.28,1.96-2.28h3.52v-1.07
				L175.59,63C175.03,62.56,173.84,62.51,173.35,62.51z"/>
			<path class="st3" d="M184.09,73.78v-5.4c0-2.36-1.57-2.64-2.75-2.64h-1.26c-0.58,0-1.74,0.09-2.38,0.44l-0.1,0.05v1.19h3.48
				c0.93,0,1.2,0.14,1.2,1.09v1.52h-2.22c-1.44,0-3.13,0.73-3.13,2.8v0.98c0,1.5,1.05,2.54,2.56,2.54h0.96
				c0.98,0,1.69-0.32,2.14-0.94l0.09,0.71h1.63l-0.07-0.44C184.16,75.18,184.09,74.73,184.09,73.78z M182.29,71.47v1.81
				c0,1.34-0.9,1.54-1.43,1.54h-0.92c-0.81,0-1.19-0.36-1.19-1.13v-0.9c0-0.96,0.42-1.32,1.56-1.32H182.29z"/>
			<path class="st3" d="M188.97,73.88V67.7h2.47v-1.45h-2.47v-2.92l-1.81,0.21v2.71h-1.49v1.45h1.49v6.42c0,2.01,1.5,2.24,2.63,2.24
				c0.71,0,1.32-0.13,1.8-0.38l0.1-0.05v-1.09h-1.96C189.03,74.83,188.97,74.4,188.97,73.88z"/>
			<path class="st3" d="M197.99,65.75h-0.73c-0.77,0-1.5,0.25-2.09,0.72v-4.49h-1.81v14.15h1.81v-8.46c0.44-0.17,0.9-0.26,1.41-0.26
				h1.19c0.64,0,0.94,0.12,0.94,0.77v7.94h1.81v-8.02C200.51,66.59,199.61,65.75,197.99,65.75z"/>
			<path class="st3" d="M206.93,65.75h-0.7c-2.32,0-3.35,1.02-3.35,3.29v4.05c0,2.26,1.03,3.28,3.35,3.28h0.7
				c2.33,0,3.41-1.01,3.41-3.18v-4.25C210.33,66.76,209.25,65.75,206.93,65.75z M204.69,68.81c0-1.15,0.35-1.56,1.35-1.56h1.13
				c1,0,1.35,0.42,1.35,1.6v4.4c0,1.18-0.35,1.6-1.35,1.6h-1.13c-1,0-1.35-0.41-1.35-1.56V68.81z"/>
			<rect x="212.78" y="61.98" class="st3" width="1.81" height="14.15"/>
			<rect x="217.37" y="65.97" class="st3" width="1.81" height="10.16"/>
			<rect x="217.37" y="61.98" class="st3" width="1.81" height="2.2"/>
			<path class="st3" d="M225.79,65.75h-0.68c-3.06,0-3.48,1.77-3.48,3.69v3.39c0,2.51,1.01,3.54,3.48,3.54h0.49
				c0.64,0,1.54-0.08,2.13-0.46l0.09-0.06v-1.06h-2.47c-0.1,0-0.2,0-0.29,0c-0.93,0.02-1.61,0.06-1.61-1.73v-3.84
				c0-1.61,0.43-1.88,1.41-1.88h2.96v-1.09l-0.09-0.05C227.23,65.9,226.54,65.75,225.79,65.75z"/>
			<path class="st3" d="M237.32,62.73h-4.61v13.4h1.88v-5.08h2.62c2.27,0,3.58-1.23,3.58-3.37v-1.62
				C240.79,63.92,239.56,62.73,237.32,62.73z M234.6,64.28H237c1.39,0,1.9,0.56,1.9,2.05v1.11c0,1.39-0.25,2.01-1.75,2.01h-2.56
				V64.28z"/>
			<path class="st3" d="M247.11,65.75h-1.04c-2.37,0-3.29,1.04-3.29,3.71v3.61c0,2.22,1.03,3.29,3.14,3.29h1.6
				c0.83,0,1.63-0.23,2.08-0.59l0.07-0.06v-0.94h-3.6c-1.49,0-1.49-0.6-1.49-1.81v-1.5l4.13,0l1.46-0.25v-2.3
				C250.18,66.87,249.09,65.75,247.11,65.75z M244.59,68.96c0-1.26,0.34-1.71,1.32-1.71h1.19c0.89,0,1.3,0.47,1.3,1.47v1.32h-3.8
				V68.96z"/>
			<path class="st3" d="M259.12,73.78v-5.4c0-2.36-1.57-2.64-2.75-2.64h-1.26c-0.58,0-1.74,0.09-2.38,0.44l-0.1,0.05v1.19h3.48
				c0.93,0,1.2,0.14,1.2,1.09v1.52h-2.22c-1.44,0-3.13,0.73-3.13,2.8v0.98c0,1.5,1.05,2.54,2.56,2.54h0.96
				c0.98,0,1.69-0.32,2.14-0.94l0.09,0.71h1.63l-0.07-0.43C259.19,75.18,259.12,74.73,259.12,73.78z M257.31,71.47v1.81
				c0,1.34-0.9,1.54-1.43,1.54h-0.92c-0.81,0-1.19-0.36-1.19-1.13v-0.9c0-0.96,0.42-1.32,1.56-1.32H257.31z"/>
			<path class="st3" d="M265.61,65.75h-0.68c-3.06,0-3.48,1.77-3.48,3.69v3.39c0,2.51,1.01,3.54,3.48,3.54h0.49
				c0.64,0,1.54-0.08,2.13-0.46l0.09-0.06v-1.06h-2.47c-0.1,0-0.2,0-0.29,0c-0.93,0.02-1.61,0.06-1.61-1.73v-3.84
				c0-1.61,0.43-1.88,1.41-1.88h2.96v-1.09l-0.09-0.05C267.06,65.9,266.37,65.75,265.61,65.75z"/>
			<path class="st3" d="M273.52,65.75h-1.04c-2.37,0-3.29,1.04-3.29,3.71v3.61c0,2.22,1.03,3.29,3.14,3.29h1.6
				c0.83,0,1.63-0.23,2.08-0.59l0.07-0.06v-0.94h-3.6c-1.49,0-1.49-0.6-1.49-1.81v-1.5l4.13,0l1.46-0.25v-2.3
				C276.59,66.87,275.5,65.75,273.52,65.75z M271,68.96c0-1.26,0.34-1.71,1.32-1.71h1.19c0.89,0,1.3,0.47,1.3,1.47v1.32H271V68.96z"
				/>
			<path class="st3" d="M288.1,69.31c1.14-0.41,1.55-1.17,1.55-2.76v-1.32c0-1.15-0.78-2.5-2.97-2.5h-4.71v13.4h4.46
				c1.46,0,3.41-0.31,3.41-2.97v-1.49C289.84,70.45,289.22,69.63,288.1,69.31z M287.86,66.84c0,1.45-0.65,1.75-1.64,1.75h-2.37
				v-4.31h2.31c1.43,0,1.69,0.47,1.69,1.41V66.84z M283.85,70.21h2.35c1.31,0,1.75,0.41,1.75,1.64v1.3c0,1.11-0.38,1.45-1.64,1.45
				h-2.46V70.21z"/>
			<path class="st3" d="M296.43,65.86c-0.76,0-1.63,0.29-2.33,0.77l-0.08-0.65h-1.73v10.16h1.88V68c0.6-0.22,1.14-0.41,2.43-0.41
				h1.05v-1.63l-0.16-0.02C297.04,65.87,296.63,65.86,296.43,65.86z"/>
			<path class="st3" d="M302.81,65.75h-0.7c-2.32,0-3.35,1.02-3.35,3.29v4.05c0,2.26,1.03,3.28,3.35,3.28h0.7
				c2.32,0,3.41-1.01,3.41-3.18v-4.25C306.21,66.76,305.13,65.75,302.81,65.75z M300.57,68.81c0-1.15,0.35-1.56,1.35-1.56h1.13
				c1,0,1.35,0.42,1.35,1.6v4.4c0,1.18-0.35,1.6-1.35,1.6h-1.13c-1,0-1.35-0.41-1.35-1.56V68.81z"/>
			<path class="st3" d="M315.23,73.78v-5.4c0-2.36-1.57-2.64-2.75-2.64h-1.26c-0.58,0-1.74,0.09-2.38,0.44l-0.1,0.05v1.19h3.48
				c0.93,0,1.2,0.14,1.2,1.09v1.52h-2.22c-1.44,0-3.13,0.73-3.13,2.8v0.98c0,1.5,1.05,2.54,2.56,2.54h0.96
				c0.98,0,1.69-0.32,2.14-0.94l0.09,0.71h1.63l-0.07-0.44C315.3,75.18,315.23,74.73,315.23,73.78z M313.42,71.47v1.81
				c0,1.34-0.9,1.54-1.43,1.54h-0.92c-0.81,0-1.19-0.36-1.19-1.13v-0.9c0-0.96,0.42-1.32,1.56-1.32H313.42z"/>
			<path class="st3" d="M323.06,66.3c-0.52-0.4-1.3-0.55-1.9-0.55h-0.64c-1.85,0-2.96,1.13-2.96,3.03v4.69c0,1.95,1.02,2.9,3.13,2.9
				h0.3c0.68,0,1.56-0.2,2.16-0.74l0.06,0.52h1.65V61.98h-1.81V66.3z M321.4,67.31c0.67,0,1.18,0.11,1.66,0.34v6.81
				c-0.42,0.21-0.89,0.34-1.81,0.34h-0.6c-0.9,0-1.28-0.37-1.28-1.24v-4.97c0-0.87,0.38-1.28,1.2-1.28H321.4z"/>
			<path class="st3" d="M331.47,65.75h-0.68c-3.06,0-3.48,1.77-3.48,3.69v3.39c0,2.51,1.01,3.54,3.48,3.54h0.49
				c0.64,0,1.54-0.08,2.13-0.46l0.09-0.06v-1.06h-2.47c-0.1,0-0.2,0-0.29,0c-0.93,0.02-1.61,0.06-1.61-1.73v-3.84
				c0-1.61,0.43-1.88,1.41-1.88h2.96v-1.09l-0.1-0.05C332.92,65.9,332.23,65.75,331.47,65.75z"/>
			<path class="st3" d="M341.96,73.78v-5.4c0-2.36-1.57-2.64-2.75-2.64h-1.26c-0.58,0-1.74,0.09-2.38,0.44l-0.1,0.05v1.19h3.48
				c0.93,0,1.2,0.14,1.2,1.09v1.52h-2.22c-1.44,0-3.13,0.73-3.13,2.8v0.98c0,1.5,1.05,2.54,2.56,2.54h0.96
				c0.98,0,1.69-0.32,2.14-0.94l0.09,0.71h1.63l-0.07-0.44C342.03,75.18,341.96,74.73,341.96,73.78z M340.15,71.47v1.81
				c0,1.34-0.9,1.54-1.43,1.54h-0.92c-0.81,0-1.18-0.36-1.18-1.13v-0.9c0-0.96,0.42-1.32,1.56-1.32H340.15z"/>
			<path class="st3" d="M348.33,70.19l-1.49-0.21c-0.54-0.08-0.8-0.18-0.8-0.77v-0.83c0-0.67,0.21-1.05,1.26-1.05h2.73v-1.11
				l-0.1-0.05c-0.56-0.31-1.31-0.42-1.82-0.42h-0.98c-2,0-2.9,1.26-2.9,2.5v1.19c0,1.3,0.76,2.06,2.25,2.26l1.39,0.19
				c0.66,0.09,0.83,0.14,0.83,0.81v1.05c0,0.57-0.09,1.03-1.19,1.03h-3.11v1.11l0.1,0.05c0.56,0.31,1.31,0.42,1.82,0.42h1.41
				c1.68,0,2.77-1.05,2.77-2.67v-1.13C350.52,71.13,349.87,70.42,348.33,70.19z"/>
			<path class="st3" d="M354.98,73.88V67.7h2.47v-1.45h-2.47v-2.92l-1.81,0.21v2.71h-1.49v1.45h1.49v6.42c0,2.01,1.5,2.24,2.63,2.24
				c0.71,0,1.32-0.13,1.8-0.38l0.1-0.05v-1.09h-1.96C355.04,74.83,354.98,74.4,354.98,73.88z"/>
			<rect x="359.37" y="65.97" class="st3" width="1.81" height="10.16"/>
			<rect x="359.37" y="61.98" class="st3" width="1.81" height="2.2"/>
			<path class="st3" d="M368.59,65.75h-0.73c-0.78,0-1.54,0.27-2.14,0.75l-0.04-0.52h-1.72v10.16h1.81v-8.46
				c0.44-0.17,0.9-0.26,1.41-0.26h1.19c0.64,0,0.94,0.12,0.94,0.77v7.94h1.81v-8.02C371.11,66.59,370.22,65.75,368.59,65.75z"/>
			<path class="st3" d="M379.24,66.34c-0.66-0.52-1.5-0.6-1.97-0.6h-0.81c-1.83,0-2.97,1.17-2.97,3.05v4.05
				c0,2.08,0.97,3.05,3.05,3.05h0.41c0.85,0,1.55-0.2,2.03-0.6v1.72c0,1.15-0.43,1.62-1.49,1.62h-3.73v1.11l0.08,0.06
				c0.55,0.41,1.64,0.47,2.24,0.47h1.24c2.33,0,3.46-1.1,3.46-3.37V65.97h-1.41L379.24,66.34z M378.98,67.65v6.32
				c-0.42,0.21-0.89,0.34-1.81,0.34h-0.6c-0.9,0-1.28-0.37-1.28-1.24v-4.48c0-0.87,0.38-1.28,1.2-1.28h0.83
				C377.99,67.31,378.51,67.41,378.98,67.65z"/>
			<path class="st3" d="M391.36,62.51h-0.96c-3.02,0-4.08,1.08-4.08,4.12v5.63c0,2.99,1.11,4.1,4.08,4.1h0.96
				c0.52,0,1.79-0.05,2.26-0.53l0.06-0.06v-1.04h-3.52c-1.52,0-1.96-0.49-1.96-2.18V66.4c0-1.85,0.37-2.28,1.96-2.28h3.52v-1.07
				L393.61,63C393.05,62.56,391.86,62.51,391.36,62.51z"/>
			<path class="st3" d="M399.25,65.75h-0.7c-2.32,0-3.35,1.02-3.35,3.29v4.05c0,2.26,1.03,3.28,3.35,3.28h0.7
				c2.32,0,3.41-1.01,3.41-3.18v-4.25C402.66,66.76,401.58,65.75,399.25,65.75z M397.01,68.81c0-1.15,0.35-1.56,1.35-1.56h1.13
				c1,0,1.35,0.42,1.35,1.6v4.4c0,1.18-0.35,1.6-1.35,1.6h-1.13c-1,0-1.35-0.41-1.35-1.56V68.81z"/>
			<path class="st3" d="M409.25,65.86c-0.76,0-1.63,0.29-2.33,0.77l-0.08-0.65h-1.73v10.16h1.88V68c0.6-0.22,1.14-0.41,2.43-0.41
				h1.05v-1.63l-0.16-0.02C409.86,65.87,409.45,65.86,409.25,65.86z"/>
			<path class="st3" d="M416.31,65.76h-0.51c-0.6,0-1.47,0.21-2.17,0.67l-0.06-0.47h-1.65v14.15h1.81v-4.31
				c0.41,0.36,0.93,0.54,1.56,0.54h1.22c1.35,0,2.71-0.93,2.71-2.99v-4.82C419.22,66.73,418.21,65.76,416.31,65.76z M417.42,68.57
				v4.97c0,0.87-0.38,1.28-1.2,1.28h-0.83c-0.67,0-1.18-0.11-1.66-0.34v-6.81c0.42-0.21,0.89-0.34,1.81-0.34h0.6
				C417.03,67.33,417.42,67.7,417.42,68.57z"/>
			<path class="st3" d="M425.38,65.75h-0.7c-2.32,0-3.35,1.02-3.35,3.29v4.05c0,2.26,1.03,3.28,3.35,3.28h0.7
				c2.32,0,3.41-1.01,3.41-3.18v-4.25C428.78,66.76,427.7,65.75,425.38,65.75z M423.14,68.81c0-1.15,0.35-1.56,1.36-1.56h1.13
				c1,0,1.35,0.42,1.35,1.6v4.4c0,1.18-0.35,1.6-1.35,1.6h-1.13c-1,0-1.36-0.41-1.36-1.56V68.81z"/>
			<path class="st3" d="M435.37,65.86c-0.76,0-1.63,0.29-2.33,0.77l-0.08-0.65h-1.73v10.16h1.88V68c0.6-0.22,1.14-0.41,2.43-0.41
				h1.05v-1.63l-0.16-0.02C435.99,65.87,435.58,65.86,435.37,65.86z"/>
			<path class="st3" d="M444.61,73.78v-5.4c0-2.36-1.57-2.64-2.75-2.64h-1.26c-0.58,0-1.74,0.09-2.38,0.44l-0.1,0.05v1.19h3.48
				c0.93,0,1.2,0.14,1.2,1.09v1.52h-2.22c-1.44,0-3.13,0.73-3.13,2.8v0.98c0,1.5,1.05,2.54,2.56,2.54h0.96
				c0.98,0,1.69-0.32,2.14-0.94l0.09,0.71h1.63l-0.07-0.43C444.69,75.18,444.61,74.73,444.61,73.78z M442.81,71.47v1.81
				c0,1.34-0.9,1.54-1.43,1.54h-0.92c-0.81,0-1.18-0.36-1.18-1.13v-0.9c0-0.96,0.42-1.32,1.56-1.32H442.81z"/>
			<path class="st3" d="M449.49,73.88V67.7h2.47v-1.45h-2.47v-2.92l-1.81,0.21v2.71h-1.49v1.45h1.49v6.42c0,2.01,1.5,2.24,2.64,2.24
				c0.71,0,1.32-0.13,1.8-0.38l0.1-0.05v-1.09h-1.96C449.55,74.83,449.49,74.4,449.49,73.88z"/>
			<rect x="453.87" y="61.98" class="st3" width="1.81" height="2.2"/>
			<rect x="453.87" y="65.97" class="st3" width="1.81" height="10.16"/>
			<path class="st3" d="M462.18,65.75h-0.7c-2.32,0-3.35,1.02-3.35,3.29v4.05c0,2.26,1.03,3.28,3.35,3.28h0.7
				c2.32,0,3.41-1.01,3.41-3.18v-4.25C465.58,66.76,464.5,65.75,462.18,65.75z M459.94,68.81c0-1.15,0.35-1.56,1.35-1.56h1.13
				c1,0,1.35,0.42,1.35,1.6v4.4c0,1.18-0.35,1.6-1.35,1.6h-1.13c-1,0-1.35-0.41-1.35-1.56V68.81z"/>
			<path class="st3" d="M472.66,65.75h-0.73c-0.78,0-1.54,0.27-2.14,0.75l-0.04-0.52h-1.72v10.16h1.81v-8.46
				c0.44-0.17,0.9-0.26,1.41-0.26h1.19c0.64,0,0.94,0.12,0.94,0.77v7.94h1.81v-8.02C475.18,66.59,474.29,65.75,472.66,65.75z"/>
		</g>
		<g>
			<g>
				<g>
					<polygon class="st3" points="186.81,54.89 186.81,26.53 190.1,26.53 190.1,36.51 194.44,36.51 194.44,39.45 190.1,39.45 
						190.1,54.89 					"/>
					<path class="st3" d="M168.3,45.92l0.12-0.07c9.62-5.76,10.05-7.29,10.05-11.74v-1.34c0-0.68-0.53-1.25-1.21-1.31l-8.36,0v-2.91
						h9.7c1.72,0,3.12,1.4,3.13,3.13v2.46c0,5.74-0.46,7.52-11.58,14.39l-0.11,0.07L168.3,45.92z"/>
				</g>
				<g>
					<path class="st3" d="M201.49,55.08c-1.66,0-3.01-1.35-3.01-3.01v-4.08h15.84v-1.58h-15.85v-2.76h19.08v7.03h-15.84v0.33
						c0,0.72,0.59,1.31,1.31,1.31h14.53v2.76H201.49z"/>
					<path class="st3" d="M194.97,42.17v-2.82h11.4v-1.77h-4.52c-1.7,0-3.09-1.39-3.09-3.09v-7.96h18.35v2.76h-15.13v1.42h14.97
						v2.66h-14.97v0.14c0,0.72,0.59,1.31,1.31,1.31h13.97v2.76h-7.58v1.77h11.4v2.82H194.97z"/>
				</g>
				<g>
					<path class="st3" d="M241.45,55.17v-6c-0.02-0.66-0.53-1.21-1.19-1.27l-14.99,0v-2.91h16.35c1.71,0,3.11,1.4,3.11,3.11v7.07
						H241.45z"/>
					<rect x="241.48" y="26.53" class="st3" width="3.26" height="17.23"/>
					<path class="st3" d="M226.05,42.04c-1.7,0-3.09-1.39-3.09-3.09v-5.78h9.56v-1.8c0-0.72-0.59-1.31-1.31-1.31h-8.35v-2.88h9.8
						c1.72,0,3.11,1.4,3.11,3.11v5.69h-9.56v1.86c0,0.72,0.59,1.31,1.31,1.31h1.13c3.34,0,6.16-0.09,9.95-0.56l0.13-0.02l0.3,2.82
						l-0.13,0.02c-3.21,0.41-5.84,0.63-10.56,0.63H226.05z"/>
				</g>
				<g>
					<path class="st3" d="M264.03,43.53c-6.06,0-8.78,2.76-8.78,5.5v1.22c0,3.27,3.53,5.46,8.78,5.46c5.25,0,8.78-2.2,8.78-5.46
						v-1.22C272.81,46.29,270.1,43.53,264.03,43.53z M269.59,49.99c0,1.41-2.12,2.93-5.55,2.93c-3.43,0-5.55-1.52-5.55-2.93v-0.75
						c0-1.41,2.12-2.92,5.55-2.92c3.43,0,5.55,1.52,5.55,2.92V49.99z"/>
					<polygon class="st3" points="269.43,43.41 269.43,37.83 265.43,37.83 265.43,34.92 269.43,34.92 269.43,33.56 265.43,33.56 
						265.43,30.65 269.43,30.65 269.43,26.53 272.69,26.53 272.69,43.41 					"/>
					<path class="st3" d="M266.47,38.68l-0.13,0.01c-1.42,0.14-2.46,0.22-3.55,0.27v-5.99c-0.08-1.14-0.8-2.09-1.79-2.54h4.45v-2.79
						h-15.63v2.79h2.69v8.75h-2.87v2.79l0.13,0c9.77-0.06,13.09-0.22,16.82-0.56l0.13-0.01L266.47,38.68z M259.62,39.1l-3.96,0.09
						V33.2c0-1.23-0.74-2.29-1.79-2.76h5.75V39.1z"/>
				</g>
				<g>
					<path class="st3" d="M317.3,43.4c-5.16,0-8.63,2.22-8.63,5.53v1.25c0,3.31,3.47,5.53,8.63,5.53c5.16,0,8.63-2.22,8.63-5.53
						v-1.25C325.93,45.62,322.46,43.4,317.3,43.4z M322.7,49.99c0,1.41-2.06,2.93-5.4,2.93c-3.34,0-5.4-1.52-5.4-2.93v-0.87
						c0-1.41,2.07-2.93,5.4-2.93c3.34,0,5.4,1.52,5.4,2.93V49.99z"/>
					<polygon class="st3" points="322.55,43.29 322.55,26.53 325.81,26.53 325.81,32.55 329.81,32.55 329.81,35.49 325.81,35.49 
						325.81,43.29 					"/>
					<path class="st3" d="M314.88,27.28v4.65h-4.53c-1.08,0-2.01,0.63-2.45,1.55v-6.2h-3.22v14.01h7.76c1.08,0,2.01-0.64,2.45-1.55
						v1.55h3.23V27.28H314.88z M314.88,38.41h-6.98v-3.64h6.98V38.41z"/>
				</g>
				<g>
					<path class="st3" d="M343.15,44.02c-5.34,0-8.93,2.13-8.93,5.31v1.06c0,3.13,3.67,5.31,8.93,5.31c5.26,0,8.93-2.18,8.93-5.31
						v-1.06C352.08,46.21,348.41,44.02,343.15,44.02z M348.83,50.21c0,1.33-2.12,2.71-5.68,2.71s-5.68-1.38-5.68-2.71v-0.69
						c0-1.33,2.12-2.71,5.68-2.71s5.68,1.38,5.68,2.71V50.21z"/>
					<polygon class="st3" points="330.09,42.6 330.09,39.72 341.49,39.72 341.49,36.07 344.81,36.07 344.81,39.72 356.21,39.72 
						356.21,42.6 					"/>
					<path class="st3" d="M352.94,37.95c-2.26-0.89-4.48-1.85-5.94-2.56c-2.28-1.11-3.44-1.86-3.84-2.5
						c-0.38,0.64-1.48,1.35-3.84,2.5c-1.58,0.77-3.8,1.73-5.94,2.56l-0.11,0.04L332,35.23l0.13-0.05c2.89-1.1,5.18-2.1,6.61-2.89
						c2.08-1.14,2.77-1.87,2.77-3.97v-1.78h3.26v1.78c0,2.04,0.54,2.82,2.77,3.97c1.15,0.59,3.55,1.75,6.65,2.89l0.13,0.05
						l-1.27,2.77L352.94,37.95z"/>
				</g>
				<g>
					<polygon class="st3" points="295.65,54.89 295.65,26.53 298.91,26.53 298.91,37.38 303.13,37.38 303.13,40.33 298.91,40.33 
						298.91,54.89 					"/>
					<path class="st3" d="M294.25,46.1l-0.13,0.01c-2.58,0.23-4.61,0.4-7.19,0.49v-2.56c3.05-0.54,5.16-2.53,5.16-4.88v-1.19
						c0-2.44-2.43-5.03-6.94-5.03c-4.51,0-6.95,2.59-6.95,5.03v1.19c0,2.48,2.24,4.5,5.47,4.95v2.6c-2.05,0.06-4.4,0.06-7.36,0.06
						h-0.13v2.88h0.13c9.87,0,13.08-0.23,18.07-0.75l0.13-0.01L294.25,46.1z M281.4,38.88v-0.62c0-1.25,1.29-2.52,3.75-2.52
						c2.44,0,3.75,1.3,3.75,2.52v0.62c0,1.25-1.29,2.52-3.75,2.52C282.69,41.41,281.4,40.14,281.4,38.88z"/>
					<polygon class="st3" points="276.77,32.03 276.77,29.12 283.52,29.12 283.52,26.53 286.78,26.53 286.78,29.12 293.23,29.12 
						293.23,32.03 					"/>
				</g>
			</g>
			<g>
				<g>
					<path class="st3" d="M430.38,54.58c-1.72,0-3.11-1.4-3.11-3.11v-6.82h3.29v5.67c0,0.72,0.59,1.31,1.31,1.31h14.59v2.94H430.38z
						"/>
					<rect x="442.53" y="26.53" class="st3" width="3.26" height="20.06"/>
					<path class="st3" d="M422.43,41.05l0.11-0.08c1.98-1.54,3.93-3.23,4.97-4.29c1.49-1.52,1.95-2.66,1.95-4.87v-4.59h3.32v4.46
						c0,1.98,0.14,2.92,1.55,4.24c1.35,1.26,3.14,2.73,5.03,4.14l0.11,0.08l-1.94,2.36l-0.1-0.08c-1.49-1.17-2.94-2.4-4.34-3.59
						l-0.19-0.16c-0.87-0.74-1.41-1.3-1.66-1.72c-0.32,0.63-1.21,1.6-1.98,2.31c-1.15,1.08-2.96,2.65-4.74,4.09l-0.1,0.08
						L422.43,41.05z"/>
				</g>
				<g>
					<path class="st3" d="M383.01,43.53c-6.06,0-8.78,2.76-8.78,5.5v1.22c0,3.27,3.53,5.46,8.78,5.46c5.25,0,8.78-2.2,8.78-5.46
						v-1.22C391.78,46.29,389.07,43.53,383.01,43.53z M388.56,49.99c0,1.41-2.12,2.93-5.55,2.93c-3.43,0-5.55-1.52-5.55-2.93v-0.75
						c0-1.41,2.12-2.92,5.55-2.92c3.43,0,5.55,1.52,5.55,2.92V49.99z"/>
					<polygon class="st3" points="388.41,43.41 388.41,37.83 384.4,37.83 384.4,34.92 388.41,34.92 388.41,33.56 384.4,33.56 
						384.4,30.65 388.41,30.65 388.41,26.53 391.66,26.53 391.66,43.41 					"/>
					<path class="st3" d="M385.45,38.68l-0.13,0.01c-1.42,0.14-2.46,0.22-3.55,0.27v-5.99c-0.08-1.14-0.8-2.09-1.79-2.54h4.45v-2.79
						h-15.63v2.79h2.69v8.75h-2.87v2.79l0.13,0c9.77-0.06,13.09-0.22,16.82-0.56l0.13-0.01L385.45,38.68z M378.6,39.1l-3.96,0.09
						V33.2c0-1.23-0.74-2.29-1.79-2.76h5.75V39.1z"/>
				</g>
				<g>
					<path class="st3" d="M455.26,54.58c-1.71,0-3.11-1.4-3.11-3.11v-5.63h3.29v4.49c0,0.72,0.59,1.31,1.31,1.31H472v2.94H455.26z"
						/>
					<polygon class="st3" points="460.83,48.68 460.83,43.13 449.07,43.13 449.07,40.25 475.18,40.25 475.18,43.13 464.15,43.13 
						464.15,48.68 					"/>
					<path class="st3" d="M471.41,29.99L471.41,29.99c-0.07-1.66-1.44-2.99-3.11-2.99h-15.47v7.69c0,1.71,1.4,3.11,3.11,3.11h15.48
						v-7.69L471.41,29.99z M468.17,34.95h-10.77c-0.72,0-1.31-0.59-1.31-1.31v-3.79h10.77c0.72,0,1.31,0.59,1.31,1.31V34.95z"/>
				</g>
				<g>
					<polygon class="st3" points="414.63,54.89 414.63,26.53 417.88,26.53 417.88,37.38 422.1,37.38 422.1,40.33 417.88,40.33 
						417.88,54.89 					"/>
					<path class="st3" d="M413.23,46.1l-0.13,0.01c-2.58,0.23-4.61,0.4-7.19,0.49v-2.56c3.05-0.54,5.16-2.53,5.16-4.88v-1.19
						c0-2.44-2.43-5.03-6.95-5.03c-4.51,0-6.95,2.59-6.95,5.03v1.19c0,2.48,2.24,4.5,5.47,4.95v2.6c-2.05,0.06-4.4,0.06-7.36,0.06
						h-0.13v2.88h0.13c9.87,0,13.08-0.23,18.07-0.75l0.13-0.01L413.23,46.1z M400.37,38.88v-0.62c0-1.25,1.29-2.52,3.75-2.52
						c2.46,0,3.75,1.27,3.75,2.52v0.62c0,1.25-1.29,2.52-3.75,2.52C401.69,41.41,400.37,40.11,400.37,38.88z"/>
					<polygon class="st3" points="395.74,32.03 395.74,29.12 402.5,29.12 402.5,26.53 405.75,26.53 405.75,29.12 412.2,29.12 
						412.2,32.03 					"/>
				</g>
			</g>
			<path class="st3" d="M364.31,40.67c0,1.05-0.85,1.9-1.9,1.9c-1.05,0-1.9-0.85-1.9-1.9c0-1.05,0.85-1.9,1.9-1.9
				C363.46,38.78,364.31,39.63,364.31,40.67z"/>
		</g>
	</g>
</g>
</svg>
